%TF.GenerationSoftware,KiCad,Pcbnew,10.0.1*%
%TF.CreationDate,2026-06-08T17:05:58+02:00*%
%TF.ProjectId,esp32c5-airunit-nano,65737033-3263-4352-9d61-6972756e6974,v1.2*%
%TF.SameCoordinates,Original*%
%TF.FileFunction,Paste,Bot*%
%TF.FilePolarity,Positive*%
%FSLAX46Y46*%
G04 Gerber Fmt 4.6, Leading zero omitted, Abs format (unit mm)*
G04 Created by KiCad (PCBNEW 10.0.1) date 2026-06-08 17:05:58*
%MOMM*%
%LPD*%
G01*
G04 APERTURE LIST*
%ADD10R,1.500000X0.900000*%
%ADD11R,1.300000X1.300000*%
%ADD12R,0.900000X1.500000*%
G04 APERTURE END LIST*
D10*
%TO.C,U2*%
X158130000Y-72560000D03*
X158130000Y-73830000D03*
X158130000Y-75100000D03*
X158130000Y-76370000D03*
X158130000Y-77640000D03*
X158130000Y-78910000D03*
X158130000Y-80180000D03*
X158130000Y-81450000D03*
X158130000Y-82720000D03*
X158130000Y-83990000D03*
X158130000Y-85260000D03*
X158130000Y-86530000D03*
X158130000Y-87800000D03*
X158130000Y-89070000D03*
X140630000Y-89070000D03*
X140630000Y-87800000D03*
X140630000Y-86530000D03*
X140630000Y-85260000D03*
X140630000Y-83990000D03*
X140630000Y-82720000D03*
X140630000Y-81450000D03*
X140630000Y-80180000D03*
X140630000Y-78910000D03*
X140630000Y-77640000D03*
X140630000Y-76370000D03*
X140630000Y-75100000D03*
X140630000Y-73830000D03*
X140630000Y-72560000D03*
D11*
X150250200Y-82848000D03*
X150250200Y-81148000D03*
X150250200Y-79448000D03*
X148550200Y-82848000D03*
X148550200Y-81148000D03*
X148550200Y-79448000D03*
X146850200Y-82848000D03*
X146850200Y-81148000D03*
X146850200Y-79448000D03*
D12*
X145380000Y-71120000D03*
X146650000Y-71120000D03*
X147920000Y-71120000D03*
%TD*%
M02*
