%TF.GenerationSoftware,KiCad,Pcbnew,10.0.1*%
%TF.CreationDate,2026-06-08T17:05:58+02:00*%
%TF.ProjectId,esp32c5-airunit-nano,65737033-3263-4352-9d61-6972756e6974,v1.2*%
%TF.SameCoordinates,Original*%
%TF.FileFunction,Legend,Bot*%
%TF.FilePolarity,Positive*%
%FSLAX46Y46*%
G04 Gerber Fmt 4.6, Leading zero omitted, Abs format (unit mm)*
G04 Created by KiCad (PCBNEW 10.0.1) date 2026-06-08 17:05:58*
%MOMM*%
%LPD*%
G01*
G04 APERTURE LIST*
%ADD10C,0.150000*%
%ADD11C,0.120000*%
G04 APERTURE END LIST*
D10*
X145358458Y-74423152D02*
X145120363Y-75089819D01*
X145120363Y-75089819D02*
X144882268Y-74423152D01*
X144072744Y-75042200D02*
X144167982Y-75089819D01*
X144167982Y-75089819D02*
X144358458Y-75089819D01*
X144358458Y-75089819D02*
X144453696Y-75042200D01*
X144453696Y-75042200D02*
X144501315Y-74994580D01*
X144501315Y-74994580D02*
X144548934Y-74899342D01*
X144548934Y-74899342D02*
X144548934Y-74613628D01*
X144548934Y-74613628D02*
X144501315Y-74518390D01*
X144501315Y-74518390D02*
X144453696Y-74470771D01*
X144453696Y-74470771D02*
X144358458Y-74423152D01*
X144358458Y-74423152D02*
X144167982Y-74423152D01*
X144167982Y-74423152D02*
X144072744Y-74470771D01*
X143215601Y-75042200D02*
X143310839Y-75089819D01*
X143310839Y-75089819D02*
X143501315Y-75089819D01*
X143501315Y-75089819D02*
X143596553Y-75042200D01*
X143596553Y-75042200D02*
X143644172Y-74994580D01*
X143644172Y-74994580D02*
X143691791Y-74899342D01*
X143691791Y-74899342D02*
X143691791Y-74613628D01*
X143691791Y-74613628D02*
X143644172Y-74518390D01*
X143644172Y-74518390D02*
X143596553Y-74470771D01*
X143596553Y-74470771D02*
X143501315Y-74423152D01*
X143501315Y-74423152D02*
X143310839Y-74423152D01*
X143310839Y-74423152D02*
X143215601Y-74470771D01*
X145114649Y-76923152D02*
X145114649Y-77589819D01*
X145543220Y-76923152D02*
X145543220Y-77446961D01*
X145543220Y-77446961D02*
X145495601Y-77542200D01*
X145495601Y-77542200D02*
X145400363Y-77589819D01*
X145400363Y-77589819D02*
X145257506Y-77589819D01*
X145257506Y-77589819D02*
X145162268Y-77542200D01*
X145162268Y-77542200D02*
X145114649Y-77494580D01*
X144447982Y-76589819D02*
X144352744Y-76589819D01*
X144352744Y-76589819D02*
X144257506Y-76637438D01*
X144257506Y-76637438D02*
X144209887Y-76685057D01*
X144209887Y-76685057D02*
X144162268Y-76780295D01*
X144162268Y-76780295D02*
X144114649Y-76970771D01*
X144114649Y-76970771D02*
X144114649Y-77208866D01*
X144114649Y-77208866D02*
X144162268Y-77399342D01*
X144162268Y-77399342D02*
X144209887Y-77494580D01*
X144209887Y-77494580D02*
X144257506Y-77542200D01*
X144257506Y-77542200D02*
X144352744Y-77589819D01*
X144352744Y-77589819D02*
X144447982Y-77589819D01*
X144447982Y-77589819D02*
X144543220Y-77542200D01*
X144543220Y-77542200D02*
X144590839Y-77494580D01*
X144590839Y-77494580D02*
X144638458Y-77399342D01*
X144638458Y-77399342D02*
X144686077Y-77208866D01*
X144686077Y-77208866D02*
X144686077Y-76970771D01*
X144686077Y-76970771D02*
X144638458Y-76780295D01*
X144638458Y-76780295D02*
X144590839Y-76685057D01*
X144590839Y-76685057D02*
X144543220Y-76637438D01*
X144543220Y-76637438D02*
X144447982Y-76589819D01*
X143828934Y-76923152D02*
X143447982Y-76923152D01*
X143686077Y-76589819D02*
X143686077Y-77446961D01*
X143686077Y-77446961D02*
X143638458Y-77542200D01*
X143638458Y-77542200D02*
X143543220Y-77589819D01*
X143543220Y-77589819D02*
X143447982Y-77589819D01*
X143209886Y-77589819D02*
X142686077Y-76923152D01*
X143209886Y-76923152D02*
X142686077Y-77589819D01*
X145114649Y-79423152D02*
X145114649Y-80089819D01*
X145543220Y-79423152D02*
X145543220Y-79946961D01*
X145543220Y-79946961D02*
X145495601Y-80042200D01*
X145495601Y-80042200D02*
X145400363Y-80089819D01*
X145400363Y-80089819D02*
X145257506Y-80089819D01*
X145257506Y-80089819D02*
X145162268Y-80042200D01*
X145162268Y-80042200D02*
X145114649Y-79994580D01*
X144447982Y-79089819D02*
X144352744Y-79089819D01*
X144352744Y-79089819D02*
X144257506Y-79137438D01*
X144257506Y-79137438D02*
X144209887Y-79185057D01*
X144209887Y-79185057D02*
X144162268Y-79280295D01*
X144162268Y-79280295D02*
X144114649Y-79470771D01*
X144114649Y-79470771D02*
X144114649Y-79708866D01*
X144114649Y-79708866D02*
X144162268Y-79899342D01*
X144162268Y-79899342D02*
X144209887Y-79994580D01*
X144209887Y-79994580D02*
X144257506Y-80042200D01*
X144257506Y-80042200D02*
X144352744Y-80089819D01*
X144352744Y-80089819D02*
X144447982Y-80089819D01*
X144447982Y-80089819D02*
X144543220Y-80042200D01*
X144543220Y-80042200D02*
X144590839Y-79994580D01*
X144590839Y-79994580D02*
X144638458Y-79899342D01*
X144638458Y-79899342D02*
X144686077Y-79708866D01*
X144686077Y-79708866D02*
X144686077Y-79470771D01*
X144686077Y-79470771D02*
X144638458Y-79280295D01*
X144638458Y-79280295D02*
X144590839Y-79185057D01*
X144590839Y-79185057D02*
X144543220Y-79137438D01*
X144543220Y-79137438D02*
X144447982Y-79089819D01*
X143686077Y-80089819D02*
X143686077Y-79423152D01*
X143686077Y-79613628D02*
X143638458Y-79518390D01*
X143638458Y-79518390D02*
X143590839Y-79470771D01*
X143590839Y-79470771D02*
X143495601Y-79423152D01*
X143495601Y-79423152D02*
X143400363Y-79423152D01*
X143162267Y-80089819D02*
X142638458Y-79423152D01*
X143162267Y-79423152D02*
X142638458Y-80089819D01*
X155234649Y-74273152D02*
X155234649Y-75082676D01*
X155234649Y-75082676D02*
X155282268Y-75177914D01*
X155282268Y-75177914D02*
X155329887Y-75225533D01*
X155329887Y-75225533D02*
X155425125Y-75273152D01*
X155425125Y-75273152D02*
X155567982Y-75273152D01*
X155567982Y-75273152D02*
X155663220Y-75225533D01*
X155234649Y-74892200D02*
X155329887Y-74939819D01*
X155329887Y-74939819D02*
X155520363Y-74939819D01*
X155520363Y-74939819D02*
X155615601Y-74892200D01*
X155615601Y-74892200D02*
X155663220Y-74844580D01*
X155663220Y-74844580D02*
X155710839Y-74749342D01*
X155710839Y-74749342D02*
X155710839Y-74463628D01*
X155710839Y-74463628D02*
X155663220Y-74368390D01*
X155663220Y-74368390D02*
X155615601Y-74320771D01*
X155615601Y-74320771D02*
X155520363Y-74273152D01*
X155520363Y-74273152D02*
X155329887Y-74273152D01*
X155329887Y-74273152D02*
X155234649Y-74320771D01*
X154758458Y-74273152D02*
X154758458Y-74939819D01*
X154758458Y-74368390D02*
X154710839Y-74320771D01*
X154710839Y-74320771D02*
X154615601Y-74273152D01*
X154615601Y-74273152D02*
X154472744Y-74273152D01*
X154472744Y-74273152D02*
X154377506Y-74320771D01*
X154377506Y-74320771D02*
X154329887Y-74416009D01*
X154329887Y-74416009D02*
X154329887Y-74939819D01*
X153425125Y-74939819D02*
X153425125Y-73939819D01*
X153425125Y-74892200D02*
X153520363Y-74939819D01*
X153520363Y-74939819D02*
X153710839Y-74939819D01*
X153710839Y-74939819D02*
X153806077Y-74892200D01*
X153806077Y-74892200D02*
X153853696Y-74844580D01*
X153853696Y-74844580D02*
X153901315Y-74749342D01*
X153901315Y-74749342D02*
X153901315Y-74463628D01*
X153901315Y-74463628D02*
X153853696Y-74368390D01*
X153853696Y-74368390D02*
X153806077Y-74320771D01*
X153806077Y-74320771D02*
X153710839Y-74273152D01*
X153710839Y-74273152D02*
X153520363Y-74273152D01*
X153520363Y-74273152D02*
X153425125Y-74320771D01*
X155494649Y-76773152D02*
X155494649Y-77439819D01*
X155923220Y-76773152D02*
X155923220Y-77296961D01*
X155923220Y-77296961D02*
X155875601Y-77392200D01*
X155875601Y-77392200D02*
X155780363Y-77439819D01*
X155780363Y-77439819D02*
X155637506Y-77439819D01*
X155637506Y-77439819D02*
X155542268Y-77392200D01*
X155542268Y-77392200D02*
X155494649Y-77344580D01*
X154494649Y-77439819D02*
X155066077Y-77439819D01*
X154780363Y-77439819D02*
X154780363Y-76439819D01*
X154780363Y-76439819D02*
X154875601Y-76582676D01*
X154875601Y-76582676D02*
X154970839Y-76677914D01*
X154970839Y-76677914D02*
X155066077Y-76725533D01*
X154208934Y-76773152D02*
X153827982Y-76773152D01*
X154066077Y-76439819D02*
X154066077Y-77296961D01*
X154066077Y-77296961D02*
X154018458Y-77392200D01*
X154018458Y-77392200D02*
X153923220Y-77439819D01*
X153923220Y-77439819D02*
X153827982Y-77439819D01*
X153589886Y-77439819D02*
X153066077Y-76773152D01*
X153589886Y-76773152D02*
X153066077Y-77439819D01*
X155494649Y-79273152D02*
X155494649Y-79939819D01*
X155923220Y-79273152D02*
X155923220Y-79796961D01*
X155923220Y-79796961D02*
X155875601Y-79892200D01*
X155875601Y-79892200D02*
X155780363Y-79939819D01*
X155780363Y-79939819D02*
X155637506Y-79939819D01*
X155637506Y-79939819D02*
X155542268Y-79892200D01*
X155542268Y-79892200D02*
X155494649Y-79844580D01*
X154494649Y-79939819D02*
X155066077Y-79939819D01*
X154780363Y-79939819D02*
X154780363Y-78939819D01*
X154780363Y-78939819D02*
X154875601Y-79082676D01*
X154875601Y-79082676D02*
X154970839Y-79177914D01*
X154970839Y-79177914D02*
X155066077Y-79225533D01*
X154066077Y-79939819D02*
X154066077Y-79273152D01*
X154066077Y-79463628D02*
X154018458Y-79368390D01*
X154018458Y-79368390D02*
X153970839Y-79320771D01*
X153970839Y-79320771D02*
X153875601Y-79273152D01*
X153875601Y-79273152D02*
X153780363Y-79273152D01*
X153542267Y-79939819D02*
X153018458Y-79273152D01*
X153542267Y-79273152D02*
X153018458Y-79939819D01*
X153335237Y-84983208D02*
X153097142Y-85649875D01*
X153097142Y-85649875D02*
X152859047Y-84983208D01*
X152097142Y-85602256D02*
X152192380Y-85649875D01*
X152192380Y-85649875D02*
X152382856Y-85649875D01*
X152382856Y-85649875D02*
X152478094Y-85602256D01*
X152478094Y-85602256D02*
X152525713Y-85507017D01*
X152525713Y-85507017D02*
X152525713Y-85126065D01*
X152525713Y-85126065D02*
X152478094Y-85030827D01*
X152478094Y-85030827D02*
X152382856Y-84983208D01*
X152382856Y-84983208D02*
X152192380Y-84983208D01*
X152192380Y-84983208D02*
X152097142Y-85030827D01*
X152097142Y-85030827D02*
X152049523Y-85126065D01*
X152049523Y-85126065D02*
X152049523Y-85221303D01*
X152049523Y-85221303D02*
X152525713Y-85316541D01*
X151620951Y-85649875D02*
X151620951Y-84983208D01*
X151620951Y-85173684D02*
X151573332Y-85078446D01*
X151573332Y-85078446D02*
X151525713Y-85030827D01*
X151525713Y-85030827D02*
X151430475Y-84983208D01*
X151430475Y-84983208D02*
X151335237Y-84983208D01*
X151049522Y-85602256D02*
X150954284Y-85649875D01*
X150954284Y-85649875D02*
X150763808Y-85649875D01*
X150763808Y-85649875D02*
X150668570Y-85602256D01*
X150668570Y-85602256D02*
X150620951Y-85507017D01*
X150620951Y-85507017D02*
X150620951Y-85459398D01*
X150620951Y-85459398D02*
X150668570Y-85364160D01*
X150668570Y-85364160D02*
X150763808Y-85316541D01*
X150763808Y-85316541D02*
X150906665Y-85316541D01*
X150906665Y-85316541D02*
X151001903Y-85268922D01*
X151001903Y-85268922D02*
X151049522Y-85173684D01*
X151049522Y-85173684D02*
X151049522Y-85126065D01*
X151049522Y-85126065D02*
X151001903Y-85030827D01*
X151001903Y-85030827D02*
X150906665Y-84983208D01*
X150906665Y-84983208D02*
X150763808Y-84983208D01*
X150763808Y-84983208D02*
X150668570Y-85030827D01*
X150192379Y-85649875D02*
X150192379Y-84983208D01*
X150192379Y-84649875D02*
X150239998Y-84697494D01*
X150239998Y-84697494D02*
X150192379Y-84745113D01*
X150192379Y-84745113D02*
X150144760Y-84697494D01*
X150144760Y-84697494D02*
X150192379Y-84649875D01*
X150192379Y-84649875D02*
X150192379Y-84745113D01*
X149573332Y-85649875D02*
X149668570Y-85602256D01*
X149668570Y-85602256D02*
X149716189Y-85554636D01*
X149716189Y-85554636D02*
X149763808Y-85459398D01*
X149763808Y-85459398D02*
X149763808Y-85173684D01*
X149763808Y-85173684D02*
X149716189Y-85078446D01*
X149716189Y-85078446D02*
X149668570Y-85030827D01*
X149668570Y-85030827D02*
X149573332Y-84983208D01*
X149573332Y-84983208D02*
X149430475Y-84983208D01*
X149430475Y-84983208D02*
X149335237Y-85030827D01*
X149335237Y-85030827D02*
X149287618Y-85078446D01*
X149287618Y-85078446D02*
X149239999Y-85173684D01*
X149239999Y-85173684D02*
X149239999Y-85459398D01*
X149239999Y-85459398D02*
X149287618Y-85554636D01*
X149287618Y-85554636D02*
X149335237Y-85602256D01*
X149335237Y-85602256D02*
X149430475Y-85649875D01*
X149430475Y-85649875D02*
X149573332Y-85649875D01*
X148811427Y-84983208D02*
X148811427Y-85649875D01*
X148811427Y-85078446D02*
X148763808Y-85030827D01*
X148763808Y-85030827D02*
X148668570Y-84983208D01*
X148668570Y-84983208D02*
X148525713Y-84983208D01*
X148525713Y-84983208D02*
X148430475Y-85030827D01*
X148430475Y-85030827D02*
X148382856Y-85126065D01*
X148382856Y-85126065D02*
X148382856Y-85649875D01*
X146620951Y-85649875D02*
X147192379Y-85649875D01*
X146906665Y-85649875D02*
X146906665Y-84649875D01*
X146906665Y-84649875D02*
X147001903Y-84792732D01*
X147001903Y-84792732D02*
X147097141Y-84887970D01*
X147097141Y-84887970D02*
X147192379Y-84935589D01*
X146192379Y-85554636D02*
X146144760Y-85602256D01*
X146144760Y-85602256D02*
X146192379Y-85649875D01*
X146192379Y-85649875D02*
X146239998Y-85602256D01*
X146239998Y-85602256D02*
X146192379Y-85554636D01*
X146192379Y-85554636D02*
X146192379Y-85649875D01*
X145763808Y-84745113D02*
X145716189Y-84697494D01*
X145716189Y-84697494D02*
X145620951Y-84649875D01*
X145620951Y-84649875D02*
X145382856Y-84649875D01*
X145382856Y-84649875D02*
X145287618Y-84697494D01*
X145287618Y-84697494D02*
X145239999Y-84745113D01*
X145239999Y-84745113D02*
X145192380Y-84840351D01*
X145192380Y-84840351D02*
X145192380Y-84935589D01*
X145192380Y-84935589D02*
X145239999Y-85078446D01*
X145239999Y-85078446D02*
X145811427Y-85649875D01*
X145811427Y-85649875D02*
X145192380Y-85649875D01*
X155597142Y-86593152D02*
X155359047Y-87259819D01*
X155359047Y-87259819D02*
X155120952Y-86593152D01*
X154311428Y-87212200D02*
X154406666Y-87259819D01*
X154406666Y-87259819D02*
X154597142Y-87259819D01*
X154597142Y-87259819D02*
X154692380Y-87212200D01*
X154692380Y-87212200D02*
X154739999Y-87164580D01*
X154739999Y-87164580D02*
X154787618Y-87069342D01*
X154787618Y-87069342D02*
X154787618Y-86783628D01*
X154787618Y-86783628D02*
X154739999Y-86688390D01*
X154739999Y-86688390D02*
X154692380Y-86640771D01*
X154692380Y-86640771D02*
X154597142Y-86593152D01*
X154597142Y-86593152D02*
X154406666Y-86593152D01*
X154406666Y-86593152D02*
X154311428Y-86640771D01*
X153454285Y-87212200D02*
X153549523Y-87259819D01*
X153549523Y-87259819D02*
X153739999Y-87259819D01*
X153739999Y-87259819D02*
X153835237Y-87212200D01*
X153835237Y-87212200D02*
X153882856Y-87164580D01*
X153882856Y-87164580D02*
X153930475Y-87069342D01*
X153930475Y-87069342D02*
X153930475Y-86783628D01*
X153930475Y-86783628D02*
X153882856Y-86688390D01*
X153882856Y-86688390D02*
X153835237Y-86640771D01*
X153835237Y-86640771D02*
X153739999Y-86593152D01*
X153739999Y-86593152D02*
X153549523Y-86593152D01*
X153549523Y-86593152D02*
X153454285Y-86640771D01*
X153025713Y-87164580D02*
X152978094Y-87212200D01*
X152978094Y-87212200D02*
X153025713Y-87259819D01*
X153025713Y-87259819D02*
X153073332Y-87212200D01*
X153073332Y-87212200D02*
X153025713Y-87164580D01*
X153025713Y-87164580D02*
X153025713Y-87259819D01*
X153025713Y-86640771D02*
X152978094Y-86688390D01*
X152978094Y-86688390D02*
X153025713Y-86736009D01*
X153025713Y-86736009D02*
X153073332Y-86688390D01*
X153073332Y-86688390D02*
X153025713Y-86640771D01*
X153025713Y-86640771D02*
X153025713Y-86736009D01*
X151882856Y-86259819D02*
X151263809Y-86259819D01*
X151263809Y-86259819D02*
X151597142Y-86640771D01*
X151597142Y-86640771D02*
X151454285Y-86640771D01*
X151454285Y-86640771D02*
X151359047Y-86688390D01*
X151359047Y-86688390D02*
X151311428Y-86736009D01*
X151311428Y-86736009D02*
X151263809Y-86831247D01*
X151263809Y-86831247D02*
X151263809Y-87069342D01*
X151263809Y-87069342D02*
X151311428Y-87164580D01*
X151311428Y-87164580D02*
X151359047Y-87212200D01*
X151359047Y-87212200D02*
X151454285Y-87259819D01*
X151454285Y-87259819D02*
X151739999Y-87259819D01*
X151739999Y-87259819D02*
X151835237Y-87212200D01*
X151835237Y-87212200D02*
X151882856Y-87164580D01*
X150835237Y-87164580D02*
X150787618Y-87212200D01*
X150787618Y-87212200D02*
X150835237Y-87259819D01*
X150835237Y-87259819D02*
X150882856Y-87212200D01*
X150882856Y-87212200D02*
X150835237Y-87164580D01*
X150835237Y-87164580D02*
X150835237Y-87259819D01*
X150168571Y-86259819D02*
X150073333Y-86259819D01*
X150073333Y-86259819D02*
X149978095Y-86307438D01*
X149978095Y-86307438D02*
X149930476Y-86355057D01*
X149930476Y-86355057D02*
X149882857Y-86450295D01*
X149882857Y-86450295D02*
X149835238Y-86640771D01*
X149835238Y-86640771D02*
X149835238Y-86878866D01*
X149835238Y-86878866D02*
X149882857Y-87069342D01*
X149882857Y-87069342D02*
X149930476Y-87164580D01*
X149930476Y-87164580D02*
X149978095Y-87212200D01*
X149978095Y-87212200D02*
X150073333Y-87259819D01*
X150073333Y-87259819D02*
X150168571Y-87259819D01*
X150168571Y-87259819D02*
X150263809Y-87212200D01*
X150263809Y-87212200D02*
X150311428Y-87164580D01*
X150311428Y-87164580D02*
X150359047Y-87069342D01*
X150359047Y-87069342D02*
X150406666Y-86878866D01*
X150406666Y-86878866D02*
X150406666Y-86640771D01*
X150406666Y-86640771D02*
X150359047Y-86450295D01*
X150359047Y-86450295D02*
X150311428Y-86355057D01*
X150311428Y-86355057D02*
X150263809Y-86307438D01*
X150263809Y-86307438D02*
X150168571Y-86259819D01*
X149501904Y-86593152D02*
X149263809Y-87259819D01*
X149263809Y-87259819D02*
X149025714Y-86593152D01*
X148025713Y-86593152D02*
X147644761Y-86593152D01*
X147882856Y-86259819D02*
X147882856Y-87116961D01*
X147882856Y-87116961D02*
X147835237Y-87212200D01*
X147835237Y-87212200D02*
X147739999Y-87259819D01*
X147739999Y-87259819D02*
X147644761Y-87259819D01*
X147168570Y-87259819D02*
X147263808Y-87212200D01*
X147263808Y-87212200D02*
X147311427Y-87164580D01*
X147311427Y-87164580D02*
X147359046Y-87069342D01*
X147359046Y-87069342D02*
X147359046Y-86783628D01*
X147359046Y-86783628D02*
X147311427Y-86688390D01*
X147311427Y-86688390D02*
X147263808Y-86640771D01*
X147263808Y-86640771D02*
X147168570Y-86593152D01*
X147168570Y-86593152D02*
X147025713Y-86593152D01*
X147025713Y-86593152D02*
X146930475Y-86640771D01*
X146930475Y-86640771D02*
X146882856Y-86688390D01*
X146882856Y-86688390D02*
X146835237Y-86783628D01*
X146835237Y-86783628D02*
X146835237Y-87069342D01*
X146835237Y-87069342D02*
X146882856Y-87164580D01*
X146882856Y-87164580D02*
X146930475Y-87212200D01*
X146930475Y-87212200D02*
X147025713Y-87259819D01*
X147025713Y-87259819D02*
X147168570Y-87259819D01*
X145168570Y-86259819D02*
X145644760Y-86259819D01*
X145644760Y-86259819D02*
X145692379Y-86736009D01*
X145692379Y-86736009D02*
X145644760Y-86688390D01*
X145644760Y-86688390D02*
X145549522Y-86640771D01*
X145549522Y-86640771D02*
X145311427Y-86640771D01*
X145311427Y-86640771D02*
X145216189Y-86688390D01*
X145216189Y-86688390D02*
X145168570Y-86736009D01*
X145168570Y-86736009D02*
X145120951Y-86831247D01*
X145120951Y-86831247D02*
X145120951Y-87069342D01*
X145120951Y-87069342D02*
X145168570Y-87164580D01*
X145168570Y-87164580D02*
X145216189Y-87212200D01*
X145216189Y-87212200D02*
X145311427Y-87259819D01*
X145311427Y-87259819D02*
X145549522Y-87259819D01*
X145549522Y-87259819D02*
X145644760Y-87212200D01*
X145644760Y-87212200D02*
X145692379Y-87164580D01*
X144692379Y-87164580D02*
X144644760Y-87212200D01*
X144644760Y-87212200D02*
X144692379Y-87259819D01*
X144692379Y-87259819D02*
X144739998Y-87212200D01*
X144739998Y-87212200D02*
X144692379Y-87164580D01*
X144692379Y-87164580D02*
X144692379Y-87259819D01*
X143739999Y-86259819D02*
X144216189Y-86259819D01*
X144216189Y-86259819D02*
X144263808Y-86736009D01*
X144263808Y-86736009D02*
X144216189Y-86688390D01*
X144216189Y-86688390D02*
X144120951Y-86640771D01*
X144120951Y-86640771D02*
X143882856Y-86640771D01*
X143882856Y-86640771D02*
X143787618Y-86688390D01*
X143787618Y-86688390D02*
X143739999Y-86736009D01*
X143739999Y-86736009D02*
X143692380Y-86831247D01*
X143692380Y-86831247D02*
X143692380Y-87069342D01*
X143692380Y-87069342D02*
X143739999Y-87164580D01*
X143739999Y-87164580D02*
X143787618Y-87212200D01*
X143787618Y-87212200D02*
X143882856Y-87259819D01*
X143882856Y-87259819D02*
X144120951Y-87259819D01*
X144120951Y-87259819D02*
X144216189Y-87212200D01*
X144216189Y-87212200D02*
X144263808Y-87164580D01*
X143359046Y-86593152D02*
X143120951Y-87259819D01*
X143120951Y-87259819D02*
X142882856Y-86593152D01*
%TO.C,U2*%
D11*
X140380000Y-91295000D02*
X140380000Y-92070000D01*
X140380000Y-92070000D02*
X141380000Y-92070000D01*
X157330000Y-70870000D02*
X158380000Y-70870000D01*
X158380000Y-70870000D02*
X158380000Y-71620000D01*
X158380000Y-91320000D02*
X158380000Y-92070000D01*
X158380000Y-92070000D02*
X157380000Y-92070000D01*
%TD*%
M02*
