%TF.GenerationSoftware,KiCad,Pcbnew,10.0.1*%
%TF.CreationDate,2026-06-07T17:53:51+02:00*%
%TF.ProjectId,esp32c5-airunit-nano,65737033-3263-4352-9d61-6972756e6974,rev?*%
%TF.SameCoordinates,Original*%
%TF.FileFunction,Plated,1,2,PTH,Drill*%
%TF.FilePolarity,Positive*%
%FSLAX46Y46*%
G04 Gerber Fmt 4.6, Leading zero omitted, Abs format (unit mm)*
G04 Created by KiCad (PCBNEW 10.0.1) date 2026-06-07 17:53:51*
%MOMM*%
%LPD*%
G01*
G04 APERTURE LIST*
%TA.AperFunction,ViaDrill*%
%ADD10C,0.300000*%
%TD*%
G04 APERTURE END LIST*
D10*
X141630000Y-86530000D03*
X141630000Y-87369998D03*
X141750000Y-72320000D03*
X143090000Y-78640000D03*
X143170000Y-76220000D03*
X143360000Y-89330000D03*
X143589443Y-71749167D03*
X144040000Y-75220000D03*
X144520000Y-80675002D03*
X145435002Y-79130000D03*
X145687500Y-88650000D03*
X145687500Y-90205426D03*
X146125000Y-78405133D03*
X146960000Y-75220000D03*
X146960000Y-75940000D03*
X147020000Y-78530000D03*
X147140000Y-90205426D03*
X147180000Y-73780000D03*
X148366688Y-77198000D03*
X149187500Y-90205425D03*
X149480000Y-84170000D03*
X149665000Y-89764411D03*
X150140000Y-90220000D03*
X150650000Y-72990000D03*
X151110000Y-77498000D03*
X151137147Y-90236147D03*
X151351992Y-78888008D03*
X151633998Y-89817049D03*
X152139250Y-90225979D03*
X152635774Y-89806494D03*
X153136014Y-90221540D03*
X153637374Y-89807847D03*
X154140000Y-90220000D03*
X154240000Y-71890000D03*
X154485000Y-82700000D03*
X155410000Y-89320000D03*
X155480000Y-73540000D03*
X155480000Y-81670000D03*
X155660000Y-75730000D03*
X155666066Y-78246617D03*
X155732155Y-87370001D03*
X156000000Y-71720000D03*
X156270000Y-86920000D03*
M02*
