%TF.GenerationSoftware,KiCad,Pcbnew,10.0.1*%
%TF.CreationDate,2026-06-05T20:23:38+02:00*%
%TF.ProjectId,esp32c5-airunit-nano,65737033-3263-4352-9d61-6972756e6974,rev?*%
%TF.SameCoordinates,Original*%
%TF.FileFunction,Copper,L1,Top*%
%TF.FilePolarity,Positive*%
%FSLAX46Y46*%
G04 Gerber Fmt 4.6, Leading zero omitted, Abs format (unit mm)*
G04 Created by KiCad (PCBNEW 10.0.1) date 2026-06-05 20:23:38*
%MOMM*%
%LPD*%
G01*
G04 APERTURE LIST*
G04 Aperture macros list*
%AMRoundRect*
0 Rectangle with rounded corners*
0 $1 Rounding radius*
0 $2 $3 $4 $5 $6 $7 $8 $9 X,Y pos of 4 corners*
0 Add a 4 corners polygon primitive as box body*
4,1,4,$2,$3,$4,$5,$6,$7,$8,$9,$2,$3,0*
0 Add four circle primitives for the rounded corners*
1,1,$1+$1,$2,$3*
1,1,$1+$1,$4,$5*
1,1,$1+$1,$6,$7*
1,1,$1+$1,$8,$9*
0 Add four rect primitives between the rounded corners*
20,1,$1+$1,$2,$3,$4,$5,0*
20,1,$1+$1,$4,$5,$6,$7,0*
20,1,$1+$1,$6,$7,$8,$9,0*
20,1,$1+$1,$8,$9,$2,$3,0*%
G04 Aperture macros list end*
%TA.AperFunction,SMDPad,CuDef*%
%ADD10RoundRect,0.225000X0.250000X-0.225000X0.250000X0.225000X-0.250000X0.225000X-0.250000X-0.225000X0*%
%TD*%
%TA.AperFunction,SMDPad,CuDef*%
%ADD11RoundRect,0.200000X-0.200000X-0.275000X0.200000X-0.275000X0.200000X0.275000X-0.200000X0.275000X0*%
%TD*%
%TA.AperFunction,SMDPad,CuDef*%
%ADD12RoundRect,0.225000X-0.225000X-0.250000X0.225000X-0.250000X0.225000X0.250000X-0.225000X0.250000X0*%
%TD*%
%TA.AperFunction,SMDPad,CuDef*%
%ADD13RoundRect,0.225000X-0.250000X0.225000X-0.250000X-0.225000X0.250000X-0.225000X0.250000X0.225000X0*%
%TD*%
%TA.AperFunction,SMDPad,CuDef*%
%ADD14RoundRect,0.500000X1.000000X-0.500000X1.000000X0.500000X-1.000000X0.500000X-1.000000X-0.500000X0*%
%TD*%
%TA.AperFunction,SMDPad,CuDef*%
%ADD15RoundRect,0.225000X0.225000X0.250000X-0.225000X0.250000X-0.225000X-0.250000X0.225000X-0.250000X0*%
%TD*%
%TA.AperFunction,SMDPad,CuDef*%
%ADD16RoundRect,0.262500X-0.837500X0.262500X-0.837500X-0.262500X0.837500X-0.262500X0.837500X0.262500X0*%
%TD*%
%TA.AperFunction,SMDPad,CuDef*%
%ADD17R,0.300000X1.100000*%
%TD*%
%TA.AperFunction,SMDPad,CuDef*%
%ADD18R,2.300000X3.100000*%
%TD*%
%TA.AperFunction,SMDPad,CuDef*%
%ADD19RoundRect,0.200000X-0.250000X0.200000X-0.250000X-0.200000X0.250000X-0.200000X0.250000X0.200000X0*%
%TD*%
%TA.AperFunction,SMDPad,CuDef*%
%ADD20RoundRect,0.200000X-0.275000X0.200000X-0.275000X-0.200000X0.275000X-0.200000X0.275000X0.200000X0*%
%TD*%
%TA.AperFunction,SMDPad,CuDef*%
%ADD21RoundRect,0.250000X0.450000X0.275000X-0.450000X0.275000X-0.450000X-0.275000X0.450000X-0.275000X0*%
%TD*%
%TA.AperFunction,SMDPad,CuDef*%
%ADD22RoundRect,0.150000X-0.512500X-0.150000X0.512500X-0.150000X0.512500X0.150000X-0.512500X0.150000X0*%
%TD*%
%TA.AperFunction,SMDPad,CuDef*%
%ADD23RoundRect,0.218750X-0.218750X-0.256250X0.218750X-0.256250X0.218750X0.256250X-0.218750X0.256250X0*%
%TD*%
%TA.AperFunction,SMDPad,CuDef*%
%ADD24R,0.700000X1.000000*%
%TD*%
%TA.AperFunction,SMDPad,CuDef*%
%ADD25R,1.150000X1.200000*%
%TD*%
%TA.AperFunction,SMDPad,CuDef*%
%ADD26R,1.400000X0.900000*%
%TD*%
%TA.AperFunction,SMDPad,CuDef*%
%ADD27R,1.000000X0.700000*%
%TD*%
%TA.AperFunction,SMDPad,CuDef*%
%ADD28R,1.450000X1.200000*%
%TD*%
%TA.AperFunction,ViaPad*%
%ADD29C,0.500000*%
%TD*%
%TA.AperFunction,Conductor*%
%ADD30C,0.300000*%
%TD*%
%TA.AperFunction,Conductor*%
%ADD31C,0.150000*%
%TD*%
G04 APERTURE END LIST*
D10*
%TO.P,C7,1*%
%TO.N,+3V0*%
X144830000Y-75992500D03*
%TO.P,C7,2*%
%TO.N,GND*%
X144830000Y-74442500D03*
%TD*%
D11*
%TO.P,R3,1*%
%TO.N,+3V0*%
X156535000Y-72610000D03*
%TO.P,R3,2*%
%TO.N,Net-(D1-A)*%
X158185000Y-72610000D03*
%TD*%
%TO.P,R6,1*%
%TO.N,sd_cd*%
X140505000Y-81680000D03*
%TO.P,R6,2*%
%TO.N,+3V0*%
X142155000Y-81680000D03*
%TD*%
D12*
%TO.P,C8,1*%
%TO.N,+3V0*%
X156670000Y-81670000D03*
%TO.P,C8,2*%
%TO.N,GND*%
X158220000Y-81670000D03*
%TD*%
D13*
%TO.P,C1,1*%
%TO.N,VCC*%
X146640000Y-71265000D03*
%TO.P,C1,2*%
%TO.N,GND*%
X146640000Y-72815000D03*
%TD*%
D14*
%TO.P,J5,1,Pin_1_1*%
%TO.N,uart0_rx*%
X141600000Y-79700000D03*
%TD*%
%TO.P,J2,1,Pin_1_1*%
%TO.N,VCC*%
X141600000Y-74700000D03*
%TD*%
%TO.P,J4,1,Pin_1_1*%
%TO.N,GND*%
X157176187Y-74690000D03*
%TD*%
D15*
%TO.P,C4,1*%
%TO.N,Net-(J1-Pin_15)*%
X142735000Y-91500000D03*
%TO.P,C4,2*%
%TO.N,GND*%
X141185000Y-91500000D03*
%TD*%
D13*
%TO.P,C2,1*%
%TO.N,VCC*%
X148100000Y-71265000D03*
%TO.P,C2,2*%
%TO.N,GND*%
X148100000Y-72815000D03*
%TD*%
D16*
%TO.P,L1,1,1_1*%
%TO.N,Net-(U1-SW)*%
X154240000Y-71120000D03*
%TO.P,L1,2,2_2*%
%TO.N,+3V0*%
X154240000Y-72960000D03*
%TD*%
D17*
%TO.P,J1,1,Pin_1_1*%
%TO.N,unconnected-(J1-Pin_1-Pad1)*%
X155137500Y-91020000D03*
%TO.P,J1,2,Pin_2_2*%
%TO.N,unconnected-(J1-Pin_2-Pad2)*%
X154637500Y-91020000D03*
%TO.P,J1,3,Pin_3_3*%
%TO.N,d2*%
X154137500Y-91020000D03*
%TO.P,J1,4,Pin_4_4*%
%TO.N,d1*%
X153637500Y-91020000D03*
%TO.P,J1,5,Pin_5_5*%
%TO.N,d3*%
X153137500Y-91020000D03*
%TO.P,J1,6,Pin_6_6*%
%TO.N,d0*%
X152637500Y-91020000D03*
%TO.P,J1,7,Pin_7_7*%
%TO.N,d4*%
X152137500Y-91020000D03*
%TO.P,J1,8,Pin_8_8*%
%TO.N,pclk*%
X151637500Y-91020000D03*
%TO.P,J1,9,Pin_9_9*%
%TO.N,d5*%
X151137500Y-91020000D03*
%TO.P,J1,10,Pin_10_10*%
%TO.N,GND*%
X150637500Y-91020000D03*
%TO.P,J1,11,Pin_11_11*%
%TO.N,d6*%
X150137500Y-91020000D03*
%TO.P,J1,12,Pin_12_12*%
%TO.N,xclk*%
X149637500Y-91020000D03*
%TO.P,J1,13,Pin_13_13*%
%TO.N,d7*%
X149137500Y-91020000D03*
%TO.P,J1,14,Pin_14_14*%
%TO.N,+3V0*%
X148637500Y-91020000D03*
%TO.P,J1,15,Pin_15_15*%
%TO.N,Net-(J1-Pin_15)*%
X148137500Y-91020000D03*
%TO.P,J1,16,Pin_16_16*%
%TO.N,unconnected-(J1-Pin_16-Pad16)*%
X147637500Y-91020000D03*
%TO.P,J1,17,Pin_17_17*%
%TO.N,unconnected-(J1-Pin_17-Pad17)*%
X147137500Y-91020000D03*
%TO.P,J1,18,Pin_18_18*%
%TO.N,unconnected-(J1-Pin_18-Pad18)*%
X146637500Y-91020000D03*
%TO.P,J1,19,Pin_19_19*%
%TO.N,unconnected-(J1-Pin_19-Pad19)*%
X146137500Y-91020000D03*
%TO.P,J1,20,Pin_20_20*%
%TO.N,scl*%
X145637500Y-91020000D03*
%TO.P,J1,21,Pin_21_21*%
%TO.N,+3V0*%
X145137500Y-91020000D03*
%TO.P,J1,22,Pin_22_22*%
%TO.N,sda*%
X144637500Y-91020000D03*
%TO.P,J1,23,Pin_23_23*%
%TO.N,GND*%
X144137500Y-91020000D03*
%TO.P,J1,24,Pin_24_24*%
%TO.N,unconnected-(J1-Pin_24-Pad24)*%
X143637500Y-91020000D03*
D18*
%TO.P,J1,MP,MountPin_MP*%
%TO.N,GND*%
X156807500Y-89320000D03*
X141967500Y-89320000D03*
%TD*%
D13*
%TO.P,C3,1*%
%TO.N,+3V0*%
X152470000Y-74447500D03*
%TO.P,C3,2*%
%TO.N,GND*%
X152470000Y-75997500D03*
%TD*%
D19*
%TO.P,Y1,1,Tri-State_1*%
%TO.N,+3V0*%
X148115000Y-74492500D03*
%TO.P,Y1,2,GND_2*%
%TO.N,GND*%
X146265000Y-74492500D03*
%TO.P,Y1,3,OUT_3*%
%TO.N,xclk*%
X146265000Y-75942500D03*
%TO.P,Y1,4,VDD_4*%
%TO.N,+3V0*%
X148115000Y-75942500D03*
%TD*%
D20*
%TO.P,R2,1*%
%TO.N,Net-(U1-VOUT)*%
X149550000Y-74395000D03*
%TO.P,R2,2*%
%TO.N,GND*%
X149550000Y-76045000D03*
%TD*%
D13*
%TO.P,C6,1*%
%TO.N,+3V0*%
X153930000Y-74442500D03*
%TO.P,C6,2*%
%TO.N,GND*%
X153930000Y-75992500D03*
%TD*%
D14*
%TO.P,J7,1,Pin_1_1*%
%TO.N,uart1_tx*%
X157176187Y-77190000D03*
%TD*%
D21*
%TO.P,SW1,1,1_1*%
%TO.N,GND*%
X144400000Y-72565000D03*
X140800000Y-72565000D03*
%TO.P,SW1,2,2_2*%
%TO.N,record*%
X144400000Y-71125000D03*
X140800000Y-71125000D03*
%TD*%
D14*
%TO.P,J6,1,Pin_1_1*%
%TO.N,uart0_tx*%
X141600000Y-77200000D03*
%TD*%
D20*
%TO.P,R1,1*%
%TO.N,Net-(U1-VOUT)*%
X151010000Y-74392500D03*
%TO.P,R1,2*%
%TO.N,+3V0*%
X151010000Y-76042500D03*
%TD*%
D22*
%TO.P,U1,1,EN_1*%
%TO.N,VCC*%
X149742500Y-71087500D03*
%TO.P,U1,2,GND_2*%
%TO.N,GND*%
X149742500Y-72037500D03*
%TO.P,U1,3,SW_3*%
%TO.N,Net-(U1-SW)*%
X149742500Y-72987500D03*
%TO.P,U1,4,VIN_4*%
%TO.N,VCC*%
X152017500Y-72987500D03*
%TO.P,U1,5,VOUT_5*%
%TO.N,Net-(U1-VOUT)*%
X152017500Y-71087500D03*
%TD*%
D23*
%TO.P,D1,1,K_1*%
%TO.N,led*%
X156572500Y-71150000D03*
%TO.P,D1,2,A_2*%
%TO.N,Net-(D1-A)*%
X158147500Y-71150000D03*
%TD*%
D14*
%TO.P,J9,1,Pin_1_1*%
%TO.N,uart1_rx*%
X157176187Y-79690000D03*
%TD*%
D12*
%TO.P,C5,1*%
%TO.N,+3V0*%
X156035000Y-91500000D03*
%TO.P,C5,2*%
%TO.N,GND*%
X157585000Y-91500000D03*
%TD*%
D24*
%TO.P,J8,1,DAT2_1*%
%TO.N,unconnected-(J8-DAT2-Pad1)*%
X145935000Y-81165000D03*
%TO.P,J8,2,DAT3/CD_2*%
%TO.N,sd_cd*%
X147035000Y-81165000D03*
%TO.P,J8,3,CMD_3*%
%TO.N,sd_cmd*%
X148135000Y-81165000D03*
%TO.P,J8,4,VDD_4*%
%TO.N,+3V0*%
X149235000Y-81165000D03*
%TO.P,J8,5,CLK_5*%
%TO.N,sd_clk*%
X150335000Y-81165000D03*
%TO.P,J8,6,VSS_6*%
%TO.N,GND*%
X151435000Y-81165000D03*
%TO.P,J8,7,DAT0_7*%
%TO.N,sd_data*%
X152535000Y-81165000D03*
%TO.P,J8,8,DAT1_8*%
%TO.N,unconnected-(J8-DAT1-Pad8)*%
X153635000Y-81165000D03*
D25*
%TO.P,J8,9,GND@1_9*%
%TO.N,GND*%
X154710000Y-80115000D03*
%TO.P,J8,10,GND@2_10*%
X154710000Y-77525000D03*
D26*
%TO.P,J8,11,DET_11*%
X144285000Y-77375000D03*
D27*
%TO.P,J8,12,POL_12*%
X144085000Y-78525000D03*
D28*
%TO.P,J8,13,GND@3_13*%
X144310000Y-79675000D03*
%TD*%
D29*
%TO.N,+3V0*%
X149187500Y-88560000D03*
X156540000Y-73290000D03*
X151277443Y-82064999D03*
%TO.N,GND*%
X143490000Y-72130000D03*
X150637145Y-89730718D03*
X155700000Y-75760000D03*
X144112500Y-89730000D03*
%TO.N,sd_cd*%
X145822957Y-82064999D03*
%TO.N,uart0_rx*%
X141780002Y-78600000D03*
%TO.N,Net-(U1-SW)*%
X150650000Y-72990000D03*
X154240000Y-71890000D03*
%TO.N,d2*%
X154140000Y-90220000D03*
%TO.N,d1*%
X153640000Y-89710000D03*
%TO.N,d3*%
X153140000Y-90220000D03*
%TO.N,d0*%
X152640000Y-89720000D03*
%TO.N,d4*%
X152140000Y-90220000D03*
%TO.N,pclk*%
X151640000Y-89730000D03*
%TO.N,d5*%
X151140000Y-90220000D03*
%TO.N,d6*%
X150137500Y-90220121D03*
%TO.N,xclk*%
X149662500Y-89730000D03*
X146265236Y-76592497D03*
%TO.N,d7*%
X149187500Y-90205425D03*
%TO.N,scl*%
X145687500Y-90205425D03*
%TO.N,sda*%
X144587500Y-90205425D03*
%TO.N,uart1_tx*%
X157010000Y-78290000D03*
%TO.N,record*%
X141830000Y-71520000D03*
%TO.N,uart0_tx*%
X142880000Y-78300000D03*
%TO.N,led*%
X157120000Y-71740000D03*
%TO.N,uart1_rx*%
X155840000Y-78590000D03*
%TO.N,sd_cmd*%
X145796523Y-82714464D03*
%TO.N,sd_clk*%
X151440000Y-80264998D03*
%TO.N,sd_data*%
X152535000Y-80270000D03*
%TD*%
%TO.N,+3V0*%
D30*
X148115000Y-74492500D02*
X148115000Y-75942500D01*
X145459682Y-89655425D02*
X145137500Y-89977607D01*
D31*
X154080000Y-81890000D02*
X154300000Y-81670000D01*
D30*
X148837500Y-75220000D02*
X148115000Y-75942500D01*
X145915318Y-89655425D02*
X145459682Y-89655425D01*
X151010000Y-76042500D02*
X150187500Y-75220000D01*
D31*
X145360000Y-81320000D02*
X145360000Y-80570000D01*
X154300000Y-81670000D02*
X156670000Y-81670000D01*
D30*
X152470000Y-74447500D02*
X152470000Y-74582500D01*
X147392500Y-75220000D02*
X145602500Y-75220000D01*
D31*
X142155000Y-81680000D02*
X145000000Y-81680000D01*
X148637500Y-91020000D02*
X148637500Y-91657500D01*
X148637500Y-91657500D02*
X148775000Y-91795000D01*
D30*
X156535000Y-72610000D02*
X154590000Y-72610000D01*
X148115000Y-75942500D02*
X147392500Y-75220000D01*
X148637500Y-89977607D02*
X148637500Y-91020000D01*
D31*
X145490000Y-80440000D02*
X148660000Y-80440000D01*
D30*
X148636966Y-89977073D02*
X146236966Y-89977073D01*
D31*
X151277443Y-82064999D02*
X151277443Y-81902557D01*
D30*
X152470000Y-74582500D02*
X151010000Y-76042500D01*
X149187500Y-88560000D02*
X149187500Y-89427607D01*
D31*
X148775000Y-91795000D02*
X155740000Y-91795000D01*
D30*
X156540000Y-72615000D02*
X156535000Y-72610000D01*
X152475000Y-74442500D02*
X152470000Y-74447500D01*
X154240000Y-72960000D02*
X153930000Y-73270000D01*
X145137500Y-89977607D02*
X145137500Y-91020000D01*
D31*
X155740000Y-91795000D02*
X156035000Y-91500000D01*
D30*
X148115000Y-75942500D02*
X149235000Y-77062500D01*
X153930000Y-73270000D02*
X153930000Y-74442500D01*
X156540000Y-73290000D02*
X156540000Y-72615000D01*
X146236966Y-89977073D02*
X145915318Y-89655425D01*
X154590000Y-72610000D02*
X154240000Y-72960000D01*
D31*
X151290000Y-81890000D02*
X154080000Y-81890000D01*
D30*
X149235000Y-77062500D02*
X149235000Y-81165000D01*
X153930000Y-74442500D02*
X152475000Y-74442500D01*
X150187500Y-75220000D02*
X148837500Y-75220000D01*
D31*
X148660000Y-80440000D02*
X149235000Y-81015000D01*
D30*
X149235000Y-81165000D02*
X149235000Y-81355000D01*
D31*
X145000000Y-81680000D02*
X145360000Y-81320000D01*
D30*
X149187500Y-89427607D02*
X148637500Y-89977607D01*
X145602500Y-75220000D02*
X144830000Y-75992500D01*
X148637500Y-89977607D02*
X148636966Y-89977073D01*
X149944999Y-82064999D02*
X151277443Y-82064999D01*
D31*
X151277443Y-81902557D02*
X151290000Y-81890000D01*
D30*
X149235000Y-81355000D02*
X149944999Y-82064999D01*
D31*
X145360000Y-80570000D02*
X145490000Y-80440000D01*
%TO.N,GND*%
D30*
X144025000Y-72190000D02*
X143550000Y-72190000D01*
X156770000Y-74690000D02*
X157176187Y-74690000D01*
X144400000Y-72565000D02*
X144025000Y-72190000D01*
X143550000Y-72190000D02*
X143490000Y-72130000D01*
D31*
X150637500Y-89731073D02*
X150637145Y-89730718D01*
D30*
X155700000Y-75760000D02*
X156770000Y-74690000D01*
D31*
X144112500Y-90995000D02*
X144112500Y-89730000D01*
X150637500Y-91020000D02*
X150637500Y-89731073D01*
X144137500Y-91020000D02*
X144112500Y-90995000D01*
%TO.N,Net-(D1-A)*%
X158147500Y-71150000D02*
X158147500Y-72572500D01*
X158147500Y-72572500D02*
X158185000Y-72610000D01*
%TO.N,sd_cd*%
X147035000Y-81235000D02*
X147035000Y-81165000D01*
X146205001Y-82064999D02*
X147035000Y-81235000D01*
X142536582Y-82380000D02*
X141140000Y-82380000D01*
X141140000Y-82380000D02*
X140505000Y-81745000D01*
X145822957Y-82064999D02*
X142851583Y-82064999D01*
X140505000Y-81745000D02*
X140505000Y-81680000D01*
X145822957Y-82064999D02*
X146205001Y-82064999D01*
X142851583Y-82064999D02*
X142536582Y-82380000D01*
%TO.N,VCC*%
D30*
X149742500Y-71087500D02*
X148277500Y-71087500D01*
X145610000Y-73190000D02*
X145610000Y-72295000D01*
X148100000Y-71265000D02*
X146640000Y-71265000D01*
X150117500Y-71087500D02*
X149742500Y-71087500D01*
X145240000Y-73560000D02*
X145610000Y-73190000D01*
X141600000Y-74700000D02*
X142050000Y-74700000D01*
X145610000Y-72295000D02*
X146640000Y-71265000D01*
X148277500Y-71087500D02*
X148100000Y-71265000D01*
X143190000Y-73560000D02*
X145240000Y-73560000D01*
X142050000Y-74700000D02*
X143190000Y-73560000D01*
X152017500Y-72987500D02*
X150117500Y-71087500D01*
%TO.N,uart0_rx*%
D31*
X141780002Y-79519998D02*
X141600000Y-79700000D01*
X141780002Y-78600000D02*
X141780002Y-79519998D01*
%TO.N,Net-(J1-Pin_15)*%
X143030000Y-91795000D02*
X147995000Y-91795000D01*
X142735000Y-91500000D02*
X143030000Y-91795000D01*
X148137500Y-91652500D02*
X148137500Y-91020000D01*
X147995000Y-91795000D02*
X148137500Y-91652500D01*
%TO.N,Net-(U1-SW)*%
D30*
X154240000Y-71890000D02*
X154240000Y-71120000D01*
X149742500Y-72987500D02*
X150647500Y-72987500D01*
X150647500Y-72987500D02*
X150650000Y-72990000D01*
%TO.N,d2*%
D31*
X154140000Y-91017500D02*
X154137500Y-91020000D01*
X154140000Y-90220000D02*
X154140000Y-91017500D01*
%TO.N,d1*%
X153640000Y-91017500D02*
X153637500Y-91020000D01*
X153640000Y-89710000D02*
X153640000Y-91017500D01*
%TO.N,d3*%
X153140000Y-90220000D02*
X153140000Y-91017500D01*
X153140000Y-91017500D02*
X153137500Y-91020000D01*
%TO.N,d0*%
X152640000Y-91017500D02*
X152637500Y-91020000D01*
X152640000Y-89720000D02*
X152640000Y-91017500D01*
%TO.N,d4*%
X152140000Y-90220000D02*
X152140000Y-91017500D01*
X152140000Y-91017500D02*
X152137500Y-91020000D01*
%TO.N,pclk*%
X151640000Y-91017500D02*
X151637500Y-91020000D01*
X151640000Y-89730000D02*
X151640000Y-91017500D01*
%TO.N,d5*%
X151140000Y-90220000D02*
X151140000Y-91017500D01*
X151140000Y-91017500D02*
X151137500Y-91020000D01*
%TO.N,d6*%
X150145000Y-90227621D02*
X150145000Y-90339324D01*
X150145000Y-90339324D02*
X150140000Y-90344324D01*
X150137500Y-90220121D02*
X150145000Y-90227621D01*
X150140000Y-90344324D02*
X150140000Y-91017500D01*
X150140000Y-91017500D02*
X150137500Y-91020000D01*
%TO.N,xclk*%
X149662500Y-89730000D02*
X149662500Y-90995000D01*
X146265000Y-75942500D02*
X146265000Y-76592261D01*
X149662500Y-90995000D02*
X149637500Y-91020000D01*
X146265000Y-76592261D02*
X146265236Y-76592497D01*
%TO.N,d7*%
X149200000Y-90217925D02*
X149200000Y-90957500D01*
X149200000Y-90957500D02*
X149137500Y-91020000D01*
X149187500Y-90205425D02*
X149200000Y-90217925D01*
%TO.N,scl*%
X145687500Y-90230000D02*
X145637500Y-90280000D01*
X145637500Y-90280000D02*
X145637500Y-91020000D01*
X145687500Y-90205425D02*
X145687500Y-90230000D01*
%TO.N,sda*%
X144637500Y-90270000D02*
X144637500Y-91020000D01*
X144587500Y-90205425D02*
X144587500Y-90220000D01*
X144587500Y-90220000D02*
X144637500Y-90270000D01*
%TO.N,Net-(U1-VOUT)*%
X149552500Y-74392500D02*
X149550000Y-74395000D01*
X151117500Y-74392500D02*
X151010000Y-74392500D01*
X152561986Y-73640000D02*
X151870000Y-73640000D01*
X152905000Y-71605000D02*
X152905000Y-73296986D01*
X152017500Y-71087500D02*
X152387500Y-71087500D01*
X152905000Y-73296986D02*
X152561986Y-73640000D01*
X151870000Y-73640000D02*
X151117500Y-74392500D01*
X152387500Y-71087500D02*
X152905000Y-71605000D01*
X151010000Y-74392500D02*
X149552500Y-74392500D01*
%TO.N,uart1_tx*%
X156820000Y-77190000D02*
X157176187Y-77190000D01*
X156500000Y-77510000D02*
X156820000Y-77190000D01*
X157010000Y-78290000D02*
X156500000Y-77780000D01*
X156500000Y-77780000D02*
X156500000Y-77510000D01*
%TO.N,record*%
X144400000Y-71125000D02*
X144005000Y-71520000D01*
X144005000Y-71520000D02*
X141830000Y-71520000D01*
X141195000Y-71520000D02*
X140800000Y-71125000D01*
X141830000Y-71520000D02*
X141195000Y-71520000D01*
%TO.N,uart0_tx*%
X142420000Y-78020000D02*
X141600000Y-77200000D01*
X142600000Y-78020000D02*
X142420000Y-78020000D01*
X142880000Y-78300000D02*
X142600000Y-78020000D01*
%TO.N,led*%
X156572500Y-71150000D02*
X156572500Y-71192500D01*
X156572500Y-71192500D02*
X157120000Y-71740000D01*
%TO.N,uart1_rx*%
X156183353Y-78933353D02*
X156183353Y-79623353D01*
X156250000Y-79690000D02*
X157176187Y-79690000D01*
X155840000Y-78590000D02*
X156183353Y-78933353D01*
X156183353Y-79623353D02*
X156250000Y-79690000D01*
%TO.N,sd_cmd*%
X146804264Y-81890000D02*
X147610000Y-81890000D01*
X147610000Y-81890000D02*
X148135000Y-81365000D01*
X145796523Y-82714464D02*
X145979800Y-82714464D01*
X145979800Y-82714464D02*
X146804264Y-81890000D01*
X148135000Y-81365000D02*
X148135000Y-81165000D01*
%TO.N,sd_clk*%
X151095002Y-80264998D02*
X150335000Y-81025000D01*
X151440000Y-80264998D02*
X151095002Y-80264998D01*
X150335000Y-81025000D02*
X150335000Y-81165000D01*
%TO.N,sd_data*%
X152535000Y-80270000D02*
X152535000Y-81165000D01*
%TD*%
%TA.AperFunction,Conductor*%
%TO.N,GND*%
G36*
X157646826Y-71646525D02*
G01*
X157711220Y-71710919D01*
X157821933Y-71765043D01*
X157858669Y-71770395D01*
X157878739Y-71782354D01*
X157900326Y-71791296D01*
X157902482Y-71796502D01*
X157907323Y-71799387D01*
X157922000Y-71843621D01*
X157922000Y-71929464D01*
X157900326Y-71981790D01*
X157880501Y-71995945D01*
X157778516Y-72045802D01*
X157695801Y-72128517D01*
X157644427Y-72233605D01*
X157644427Y-72233606D01*
X157634500Y-72301735D01*
X157634500Y-72918264D01*
X157644427Y-72986393D01*
X157644427Y-72986394D01*
X157695801Y-73091482D01*
X157695802Y-73091483D01*
X157778517Y-73174198D01*
X157883607Y-73225573D01*
X157951740Y-73235500D01*
X157951746Y-73235500D01*
X158418254Y-73235500D01*
X158418260Y-73235500D01*
X158486393Y-73225573D01*
X158591483Y-73174198D01*
X158648174Y-73117507D01*
X158700500Y-73095833D01*
X158752826Y-73117507D01*
X158774500Y-73169833D01*
X158774500Y-76189715D01*
X158752826Y-76242041D01*
X158700500Y-76263715D01*
X158648174Y-76242041D01*
X158578052Y-76171919D01*
X158436586Y-76088256D01*
X158278758Y-76042402D01*
X158254172Y-76040467D01*
X158241881Y-76039500D01*
X156110493Y-76039500D01*
X156101274Y-76040225D01*
X156073615Y-76042402D01*
X155915787Y-76088256D01*
X155774321Y-76171919D01*
X155658106Y-76288134D01*
X155574443Y-76429600D01*
X155528589Y-76587428D01*
X155525687Y-76624306D01*
X155525687Y-77755693D01*
X155528589Y-77792571D01*
X155574443Y-77950399D01*
X155658106Y-78091865D01*
X155679109Y-78112868D01*
X155700783Y-78165194D01*
X155679109Y-78217520D01*
X155663784Y-78229279D01*
X155594087Y-78269519D01*
X155519520Y-78344086D01*
X155466795Y-78435408D01*
X155466791Y-78435417D01*
X155439500Y-78537270D01*
X155439500Y-78642729D01*
X155466791Y-78744582D01*
X155466795Y-78744591D01*
X155519520Y-78835913D01*
X155552224Y-78868617D01*
X155573898Y-78920943D01*
X155570960Y-78941588D01*
X155528589Y-79087427D01*
X155525687Y-79124306D01*
X155525687Y-80255693D01*
X155528589Y-80292571D01*
X155574443Y-80450399D01*
X155617517Y-80523233D01*
X155658106Y-80591865D01*
X155774322Y-80708081D01*
X155915789Y-80791744D01*
X156073618Y-80837598D01*
X156110493Y-80840500D01*
X156110494Y-80840500D01*
X158241880Y-80840500D01*
X158241881Y-80840500D01*
X158278756Y-80837598D01*
X158436585Y-80791744D01*
X158578052Y-80708081D01*
X158648174Y-80637959D01*
X158700500Y-80616285D01*
X158752826Y-80637959D01*
X158774500Y-80690285D01*
X158774500Y-91156361D01*
X158774144Y-91163615D01*
X158758891Y-91318476D01*
X158756061Y-91332703D01*
X158711950Y-91478118D01*
X158706398Y-91491520D01*
X158634770Y-91625526D01*
X158626711Y-91637588D01*
X158530310Y-91755052D01*
X158520052Y-91765310D01*
X158402588Y-91861711D01*
X158390526Y-91869770D01*
X158256520Y-91941398D01*
X158243118Y-91946950D01*
X158097703Y-91991061D01*
X158083476Y-91993891D01*
X157973330Y-92004739D01*
X157928613Y-92009144D01*
X157921362Y-92009500D01*
X156669653Y-92009500D01*
X156617327Y-91987826D01*
X156595653Y-91935500D01*
X156603171Y-91903002D01*
X156624866Y-91858625D01*
X156635500Y-91785636D01*
X156635500Y-91214364D01*
X156624866Y-91141375D01*
X156569826Y-91028789D01*
X156481211Y-90940174D01*
X156481210Y-90940173D01*
X156368626Y-90885134D01*
X156295640Y-90874500D01*
X156295636Y-90874500D01*
X155774364Y-90874500D01*
X155774359Y-90874500D01*
X155701374Y-90885134D01*
X155701373Y-90885134D01*
X155588789Y-90940173D01*
X155564326Y-90964637D01*
X155512000Y-90986311D01*
X155459674Y-90964637D01*
X155438000Y-90912311D01*
X155438000Y-90455180D01*
X155437236Y-90451338D01*
X155429267Y-90411278D01*
X155396004Y-90361496D01*
X155346222Y-90328233D01*
X155302320Y-90319500D01*
X154972680Y-90319500D01*
X154963948Y-90321236D01*
X154928779Y-90328232D01*
X154928775Y-90328234D01*
X154928607Y-90328347D01*
X154928408Y-90328386D01*
X154922046Y-90331022D01*
X154921521Y-90329755D01*
X154873057Y-90339392D01*
X154846393Y-90328347D01*
X154846224Y-90328234D01*
X154846220Y-90328232D01*
X154813220Y-90321668D01*
X154802320Y-90319500D01*
X154802319Y-90319500D01*
X154614500Y-90319500D01*
X154562174Y-90297826D01*
X154540500Y-90245500D01*
X154540500Y-90167271D01*
X154540499Y-90167270D01*
X154513208Y-90065417D01*
X154513207Y-90065413D01*
X154460480Y-89974087D01*
X154385913Y-89899520D01*
X154304531Y-89852534D01*
X154294591Y-89846795D01*
X154294582Y-89846791D01*
X154192729Y-89819500D01*
X154192727Y-89819500D01*
X154114500Y-89819500D01*
X154062174Y-89797826D01*
X154040500Y-89745500D01*
X154040500Y-89657271D01*
X154040499Y-89657270D01*
X154018564Y-89575408D01*
X154013207Y-89555413D01*
X153960480Y-89464087D01*
X153885913Y-89389520D01*
X153811908Y-89346793D01*
X153794591Y-89336795D01*
X153794582Y-89336791D01*
X153692729Y-89309500D01*
X153692727Y-89309500D01*
X153587273Y-89309500D01*
X153587271Y-89309500D01*
X153485417Y-89336791D01*
X153485408Y-89336795D01*
X153394086Y-89389520D01*
X153319520Y-89464086D01*
X153266795Y-89555408D01*
X153266791Y-89555417D01*
X153239500Y-89657270D01*
X153239500Y-89745500D01*
X153217826Y-89797826D01*
X153165500Y-89819500D01*
X153114500Y-89819500D01*
X153062174Y-89797826D01*
X153040500Y-89745500D01*
X153040500Y-89667271D01*
X153040499Y-89667270D01*
X153037820Y-89657273D01*
X153013207Y-89565413D01*
X152960480Y-89474087D01*
X152885913Y-89399520D01*
X152794591Y-89346795D01*
X152794582Y-89346791D01*
X152692729Y-89319500D01*
X152692727Y-89319500D01*
X152587273Y-89319500D01*
X152587271Y-89319500D01*
X152485417Y-89346791D01*
X152485408Y-89346795D01*
X152394086Y-89399520D01*
X152319520Y-89474086D01*
X152266795Y-89565408D01*
X152266791Y-89565417D01*
X152239500Y-89667270D01*
X152239500Y-89745500D01*
X152217826Y-89797826D01*
X152165500Y-89819500D01*
X152114500Y-89819500D01*
X152062174Y-89797826D01*
X152040500Y-89745500D01*
X152040500Y-89677271D01*
X152040499Y-89677270D01*
X152037820Y-89667273D01*
X152013207Y-89575413D01*
X151960480Y-89484087D01*
X151885913Y-89409520D01*
X151794591Y-89356795D01*
X151794582Y-89356791D01*
X151692729Y-89329500D01*
X151692727Y-89329500D01*
X151587273Y-89329500D01*
X151587271Y-89329500D01*
X151485417Y-89356791D01*
X151485408Y-89356795D01*
X151394086Y-89409520D01*
X151319520Y-89484086D01*
X151266795Y-89575408D01*
X151266791Y-89575417D01*
X151239500Y-89677270D01*
X151239500Y-89745500D01*
X151217826Y-89797826D01*
X151165500Y-89819500D01*
X151087271Y-89819500D01*
X150985417Y-89846791D01*
X150985408Y-89846795D01*
X150894086Y-89899520D01*
X150819520Y-89974086D01*
X150766795Y-90065408D01*
X150766791Y-90065417D01*
X150739500Y-90167270D01*
X150739500Y-90272729D01*
X150766791Y-90374582D01*
X150766795Y-90374591D01*
X150819518Y-90465910D01*
X150821709Y-90468765D01*
X150837000Y-90513813D01*
X150837000Y-91495500D01*
X150815326Y-91547826D01*
X150763000Y-91569500D01*
X150512000Y-91569500D01*
X150459674Y-91547826D01*
X150438000Y-91495500D01*
X150438000Y-90516666D01*
X150456811Y-90471251D01*
X150455027Y-90469883D01*
X150457978Y-90466036D01*
X150457980Y-90466034D01*
X150510707Y-90374708D01*
X150537999Y-90272850D01*
X150538000Y-90272850D01*
X150538000Y-90167392D01*
X150537999Y-90167391D01*
X150537967Y-90167273D01*
X150510707Y-90065534D01*
X150457980Y-89974208D01*
X150383413Y-89899641D01*
X150357959Y-89884945D01*
X150292091Y-89846916D01*
X150292082Y-89846912D01*
X150190229Y-89819621D01*
X150190227Y-89819621D01*
X150137000Y-89819621D01*
X150084674Y-89797947D01*
X150063000Y-89745621D01*
X150063000Y-89677271D01*
X150062999Y-89677270D01*
X150060320Y-89667273D01*
X150035707Y-89575413D01*
X149982980Y-89484087D01*
X149908413Y-89409520D01*
X149817091Y-89356795D01*
X149817082Y-89356791D01*
X149715229Y-89329500D01*
X149715227Y-89329500D01*
X149609773Y-89329500D01*
X149581152Y-89337168D01*
X149525000Y-89329776D01*
X149490521Y-89284843D01*
X149488000Y-89265690D01*
X149488000Y-88856545D01*
X149506811Y-88811130D01*
X149505027Y-88809762D01*
X149507978Y-88805915D01*
X149507980Y-88805913D01*
X149560707Y-88714587D01*
X149587999Y-88612729D01*
X149588000Y-88612729D01*
X149588000Y-88507271D01*
X149587999Y-88507270D01*
X149560708Y-88405417D01*
X149560707Y-88405413D01*
X149507980Y-88314087D01*
X149433413Y-88239520D01*
X149342091Y-88186795D01*
X149342082Y-88186791D01*
X149240229Y-88159500D01*
X149240227Y-88159500D01*
X149134773Y-88159500D01*
X149134771Y-88159500D01*
X149032917Y-88186791D01*
X149032908Y-88186795D01*
X148941586Y-88239520D01*
X148867020Y-88314086D01*
X148814295Y-88405408D01*
X148814291Y-88405417D01*
X148787000Y-88507270D01*
X148787000Y-88612729D01*
X148814291Y-88714582D01*
X148814295Y-88714591D01*
X148867021Y-88805915D01*
X148869973Y-88809762D01*
X148868188Y-88811130D01*
X148887000Y-88856545D01*
X148887000Y-89272484D01*
X148865326Y-89324810D01*
X148535237Y-89654899D01*
X148482911Y-89676573D01*
X146392089Y-89676573D01*
X146339763Y-89654899D01*
X146099829Y-89414965D01*
X146073077Y-89399520D01*
X146031308Y-89375404D01*
X146031303Y-89375402D01*
X145954882Y-89354925D01*
X145954880Y-89354925D01*
X145420120Y-89354925D01*
X145420118Y-89354925D01*
X145343696Y-89375402D01*
X145343691Y-89375404D01*
X145301923Y-89399520D01*
X145275170Y-89414965D01*
X144897039Y-89793096D01*
X144878360Y-89825449D01*
X144833427Y-89859927D01*
X144777275Y-89852534D01*
X144742087Y-89832218D01*
X144742084Y-89832217D01*
X144742082Y-89832216D01*
X144640229Y-89804925D01*
X144640227Y-89804925D01*
X144534773Y-89804925D01*
X144534771Y-89804925D01*
X144432917Y-89832216D01*
X144432908Y-89832220D01*
X144341586Y-89884945D01*
X144267020Y-89959511D01*
X144214295Y-90050833D01*
X144214291Y-90050842D01*
X144187000Y-90152695D01*
X144187000Y-90258154D01*
X144214291Y-90360007D01*
X144214295Y-90360016D01*
X144267020Y-90451338D01*
X144315326Y-90499644D01*
X144337000Y-90551970D01*
X144337000Y-91495500D01*
X144315326Y-91547826D01*
X144263000Y-91569500D01*
X144012000Y-91569500D01*
X143959674Y-91547826D01*
X143938000Y-91495500D01*
X143938000Y-90455180D01*
X143937236Y-90451338D01*
X143929267Y-90411278D01*
X143896004Y-90361496D01*
X143846222Y-90328233D01*
X143802320Y-90319500D01*
X143472680Y-90319500D01*
X143450729Y-90323866D01*
X143428777Y-90328233D01*
X143378996Y-90361495D01*
X143378995Y-90361496D01*
X143345733Y-90411277D01*
X143337000Y-90455180D01*
X143337000Y-90917311D01*
X143315326Y-90969637D01*
X143263000Y-90991311D01*
X143210674Y-90969637D01*
X143181210Y-90940173D01*
X143068626Y-90885134D01*
X142995640Y-90874500D01*
X142995636Y-90874500D01*
X142474364Y-90874500D01*
X142474359Y-90874500D01*
X142401374Y-90885134D01*
X142401373Y-90885134D01*
X142288789Y-90940173D01*
X142200173Y-91028789D01*
X142145134Y-91141373D01*
X142145134Y-91141374D01*
X142134500Y-91214359D01*
X142134500Y-91785640D01*
X142139859Y-91822421D01*
X142145134Y-91858625D01*
X142166828Y-91903000D01*
X142170338Y-91959527D01*
X142132848Y-92001981D01*
X142100347Y-92009500D01*
X140853638Y-92009500D01*
X140846386Y-92009144D01*
X140773659Y-92001981D01*
X140691523Y-91993891D01*
X140677296Y-91991061D01*
X140531881Y-91946950D01*
X140518479Y-91941398D01*
X140384473Y-91869770D01*
X140372411Y-91861711D01*
X140254947Y-91765310D01*
X140244689Y-91755052D01*
X140148288Y-91637588D01*
X140140229Y-91625526D01*
X140068601Y-91491520D01*
X140063049Y-91478118D01*
X140057222Y-91458909D01*
X140018937Y-91332698D01*
X140016109Y-91318480D01*
X140000856Y-91163614D01*
X140000500Y-91156361D01*
X140000500Y-82314826D01*
X140022174Y-82262500D01*
X140074500Y-82240826D01*
X140106999Y-82248344D01*
X140203607Y-82295573D01*
X140271740Y-82305500D01*
X140271746Y-82305500D01*
X140715943Y-82305500D01*
X140768269Y-82327174D01*
X140944609Y-82503514D01*
X140944612Y-82503518D01*
X140948830Y-82507736D01*
X141012264Y-82571170D01*
X141046595Y-82585390D01*
X141095146Y-82605501D01*
X141095147Y-82605501D01*
X141193467Y-82605501D01*
X141193475Y-82605500D01*
X142483107Y-82605500D01*
X142483115Y-82605501D01*
X142491727Y-82605501D01*
X142581436Y-82605501D01*
X142581437Y-82605501D01*
X142640042Y-82581225D01*
X142664318Y-82571170D01*
X142727752Y-82507736D01*
X142727752Y-82507735D01*
X142738157Y-82497330D01*
X142738158Y-82497327D01*
X142923314Y-82312173D01*
X142975640Y-82290499D01*
X145451412Y-82290499D01*
X145503738Y-82312173D01*
X145515753Y-82324188D01*
X145537427Y-82376514D01*
X145515754Y-82428839D01*
X145476043Y-82468550D01*
X145423318Y-82559872D01*
X145423314Y-82559881D01*
X145396023Y-82661734D01*
X145396023Y-82767193D01*
X145423314Y-82869046D01*
X145423315Y-82869049D01*
X145423316Y-82869051D01*
X145476043Y-82960377D01*
X145550610Y-83034944D01*
X145641936Y-83087671D01*
X145743793Y-83114963D01*
X145743794Y-83114964D01*
X145743796Y-83114964D01*
X145849252Y-83114964D01*
X145849252Y-83114963D01*
X145951110Y-83087671D01*
X146042436Y-83034944D01*
X146117003Y-82960377D01*
X146169730Y-82869051D01*
X146173972Y-82853218D01*
X146193123Y-82820044D01*
X146875995Y-82137174D01*
X146928321Y-82115500D01*
X147556525Y-82115500D01*
X147556533Y-82115501D01*
X147565145Y-82115501D01*
X147654854Y-82115501D01*
X147654855Y-82115501D01*
X147713460Y-82091225D01*
X147737736Y-82081170D01*
X147801170Y-82017736D01*
X147801170Y-82017735D01*
X147811575Y-82007330D01*
X147811576Y-82007327D01*
X147981731Y-81837174D01*
X148034057Y-81815500D01*
X148499819Y-81815500D01*
X148499820Y-81815500D01*
X148543722Y-81806767D01*
X148593504Y-81773504D01*
X148623471Y-81728655D01*
X148670562Y-81697188D01*
X148726111Y-81708237D01*
X148746529Y-81728655D01*
X148776493Y-81773501D01*
X148776496Y-81773504D01*
X148826278Y-81806767D01*
X148870180Y-81815500D01*
X149239877Y-81815500D01*
X149292203Y-81837174D01*
X149704539Y-82249510D01*
X149760488Y-82305459D01*
X149829010Y-82345020D01*
X149829011Y-82345020D01*
X149829013Y-82345021D01*
X149867223Y-82355259D01*
X149905434Y-82365498D01*
X149905435Y-82365499D01*
X149905437Y-82365499D01*
X149984561Y-82365499D01*
X150980898Y-82365499D01*
X151026312Y-82384310D01*
X151027681Y-82382526D01*
X151031527Y-82385477D01*
X151031529Y-82385478D01*
X151031530Y-82385479D01*
X151122856Y-82438206D01*
X151224713Y-82465498D01*
X151224714Y-82465499D01*
X151224716Y-82465499D01*
X151330172Y-82465499D01*
X151330172Y-82465498D01*
X151432030Y-82438206D01*
X151523356Y-82385479D01*
X151597923Y-82310912D01*
X151650650Y-82219586D01*
X151655435Y-82201725D01*
X151663844Y-82170347D01*
X151698322Y-82125414D01*
X151735322Y-82115500D01*
X154026525Y-82115500D01*
X154026533Y-82115501D01*
X154035145Y-82115501D01*
X154124854Y-82115501D01*
X154124855Y-82115501D01*
X154183460Y-82091225D01*
X154207736Y-82081170D01*
X154271170Y-82017736D01*
X154271170Y-82017735D01*
X154281578Y-82007328D01*
X154281580Y-82007324D01*
X154371732Y-81917174D01*
X154424057Y-81895500D01*
X155996739Y-81895500D01*
X156049065Y-81917174D01*
X156069965Y-81958829D01*
X156078547Y-82017734D01*
X156080134Y-82028625D01*
X156080134Y-82028626D01*
X156135173Y-82141210D01*
X156135174Y-82141211D01*
X156223789Y-82229826D01*
X156336375Y-82284866D01*
X156409364Y-82295500D01*
X156409370Y-82295500D01*
X156930630Y-82295500D01*
X156930636Y-82295500D01*
X157003625Y-82284866D01*
X157116211Y-82229826D01*
X157204826Y-82141211D01*
X157259866Y-82028625D01*
X157270500Y-81955636D01*
X157270500Y-81384364D01*
X157259866Y-81311375D01*
X157204826Y-81198789D01*
X157116211Y-81110174D01*
X157116210Y-81110173D01*
X157003626Y-81055134D01*
X156930640Y-81044500D01*
X156930636Y-81044500D01*
X156409364Y-81044500D01*
X156409359Y-81044500D01*
X156336374Y-81055134D01*
X156336373Y-81055134D01*
X156223789Y-81110173D01*
X156135173Y-81198789D01*
X156080134Y-81311373D01*
X156080134Y-81311374D01*
X156080134Y-81311375D01*
X156069965Y-81381170D01*
X156040974Y-81429823D01*
X155996739Y-81444500D01*
X154344857Y-81444500D01*
X154344855Y-81444499D01*
X154255145Y-81444499D01*
X154227350Y-81456012D01*
X154216057Y-81457017D01*
X154199028Y-81451675D01*
X154181180Y-81451675D01*
X154173022Y-81443517D01*
X154162017Y-81440065D01*
X154153753Y-81424246D01*
X154141132Y-81411625D01*
X154137426Y-81392996D01*
X154135791Y-81389865D01*
X154136411Y-81387888D01*
X154135500Y-81383308D01*
X154135500Y-80650180D01*
X154132045Y-80632811D01*
X154126767Y-80606278D01*
X154093504Y-80556496D01*
X154043722Y-80523233D01*
X153999820Y-80514500D01*
X153270180Y-80514500D01*
X153258296Y-80516864D01*
X153226277Y-80523233D01*
X153176496Y-80556495D01*
X153176495Y-80556496D01*
X153146529Y-80601345D01*
X153099437Y-80632811D01*
X153043888Y-80621762D01*
X153023471Y-80601345D01*
X152993504Y-80556496D01*
X152993503Y-80556495D01*
X152953363Y-80529675D01*
X152943722Y-80523233D01*
X152943721Y-80523232D01*
X152937662Y-80519184D01*
X152939212Y-80516864D01*
X152906847Y-80484496D01*
X152906850Y-80427859D01*
X152906852Y-80427855D01*
X152908198Y-80424601D01*
X152908207Y-80424587D01*
X152935499Y-80322729D01*
X152935500Y-80322729D01*
X152935500Y-80217271D01*
X152935499Y-80217270D01*
X152908208Y-80115417D01*
X152908207Y-80115413D01*
X152855480Y-80024087D01*
X152780913Y-79949520D01*
X152772249Y-79944518D01*
X152689591Y-79896795D01*
X152689582Y-79896791D01*
X152587729Y-79869500D01*
X152587727Y-79869500D01*
X152482273Y-79869500D01*
X152482271Y-79869500D01*
X152380417Y-79896791D01*
X152380408Y-79896795D01*
X152289086Y-79949520D01*
X152214520Y-80024086D01*
X152161795Y-80115408D01*
X152161791Y-80115417D01*
X152134500Y-80217270D01*
X152134500Y-80322729D01*
X152161792Y-80424586D01*
X152163150Y-80427863D01*
X152163150Y-80484500D01*
X152130789Y-80516865D01*
X152132338Y-80519184D01*
X152076496Y-80556495D01*
X152076495Y-80556496D01*
X152043233Y-80606277D01*
X152034500Y-80650180D01*
X152034500Y-81590500D01*
X152012826Y-81642826D01*
X151960500Y-81664500D01*
X151334716Y-81664500D01*
X151334700Y-81664499D01*
X151330170Y-81664499D01*
X151224716Y-81664499D01*
X151224714Y-81664499D01*
X151122860Y-81691790D01*
X151122851Y-81691794D01*
X151031527Y-81744520D01*
X151027681Y-81747472D01*
X151026312Y-81745687D01*
X150980898Y-81764499D01*
X150908806Y-81764499D01*
X150856480Y-81742825D01*
X150834806Y-81690499D01*
X150835163Y-81683242D01*
X150835500Y-81679821D01*
X150835500Y-80874057D01*
X150857174Y-80821731D01*
X151091431Y-80587474D01*
X151143757Y-80565800D01*
X151188766Y-80584443D01*
X151190238Y-80582525D01*
X151194084Y-80585476D01*
X151194086Y-80585477D01*
X151194087Y-80585478D01*
X151285413Y-80638205D01*
X151387270Y-80665497D01*
X151387271Y-80665498D01*
X151387273Y-80665498D01*
X151492729Y-80665498D01*
X151492729Y-80665497D01*
X151594587Y-80638205D01*
X151685913Y-80585478D01*
X151760480Y-80510911D01*
X151813207Y-80419585D01*
X151840499Y-80317727D01*
X151840500Y-80317727D01*
X151840500Y-80212269D01*
X151840499Y-80212268D01*
X151813208Y-80110415D01*
X151813207Y-80110411D01*
X151760480Y-80019085D01*
X151685913Y-79944518D01*
X151594591Y-79891793D01*
X151594582Y-79891789D01*
X151492729Y-79864498D01*
X151492727Y-79864498D01*
X151387273Y-79864498D01*
X151387271Y-79864498D01*
X151285417Y-79891789D01*
X151285408Y-79891793D01*
X151194086Y-79944518D01*
X151120781Y-80017824D01*
X151068455Y-80039498D01*
X151050147Y-80039498D01*
X150967268Y-80073826D01*
X150967266Y-80073828D01*
X150903832Y-80137262D01*
X150903831Y-80137263D01*
X150718366Y-80322729D01*
X150548269Y-80492826D01*
X150495943Y-80514500D01*
X149970180Y-80514500D01*
X149958296Y-80516864D01*
X149926277Y-80523233D01*
X149876496Y-80556495D01*
X149876495Y-80556496D01*
X149846529Y-80601345D01*
X149799437Y-80632811D01*
X149743888Y-80621762D01*
X149723471Y-80601345D01*
X149693504Y-80556496D01*
X149693503Y-80556495D01*
X149643722Y-80523233D01*
X149611704Y-80516864D01*
X149599820Y-80514500D01*
X149599819Y-80514500D01*
X149596255Y-80513791D01*
X149596658Y-80511763D01*
X149552274Y-80488012D01*
X149535500Y-80441095D01*
X149535500Y-77022936D01*
X149535499Y-77022935D01*
X149515022Y-76946514D01*
X149515020Y-76946509D01*
X149475459Y-76877988D01*
X148737174Y-76139703D01*
X148715500Y-76087377D01*
X148715500Y-75797623D01*
X148737174Y-75745297D01*
X148940297Y-75542174D01*
X148992623Y-75520500D01*
X150032377Y-75520500D01*
X150084703Y-75542174D01*
X150362826Y-75820297D01*
X150384500Y-75872623D01*
X150384500Y-76275764D01*
X150394427Y-76343893D01*
X150394427Y-76343894D01*
X150445801Y-76448982D01*
X150445802Y-76448983D01*
X150528517Y-76531698D01*
X150633607Y-76583073D01*
X150701740Y-76593000D01*
X150701746Y-76593000D01*
X151318254Y-76593000D01*
X151318260Y-76593000D01*
X151386393Y-76583073D01*
X151491483Y-76531698D01*
X151574198Y-76448983D01*
X151625573Y-76343893D01*
X151635500Y-76275760D01*
X151635500Y-75872623D01*
X151657174Y-75820297D01*
X152407797Y-75069674D01*
X152460123Y-75048000D01*
X152755630Y-75048000D01*
X152755636Y-75048000D01*
X152828625Y-75037366D01*
X152941211Y-74982326D01*
X153029826Y-74893711D01*
X153083216Y-74784499D01*
X153092586Y-74776225D01*
X153097371Y-74764674D01*
X153112994Y-74758202D01*
X153125669Y-74747010D01*
X153149697Y-74743000D01*
X153252747Y-74743000D01*
X153305073Y-74764674D01*
X153319227Y-74784498D01*
X153370174Y-74888711D01*
X153458789Y-74977326D01*
X153571375Y-75032366D01*
X153644364Y-75043000D01*
X153644370Y-75043000D01*
X154215630Y-75043000D01*
X154215636Y-75043000D01*
X154288625Y-75032366D01*
X154401211Y-74977326D01*
X154489826Y-74888711D01*
X154544866Y-74776125D01*
X154555500Y-74703136D01*
X154555500Y-74181864D01*
X154544866Y-74108875D01*
X154489826Y-73996289D01*
X154401211Y-73907674D01*
X154343640Y-73879529D01*
X154288622Y-73852632D01*
X154283137Y-73850938D01*
X154284149Y-73847660D01*
X154273700Y-73841407D01*
X154252174Y-73832491D01*
X154249990Y-73827219D01*
X154245094Y-73824289D01*
X154230500Y-73780165D01*
X154230500Y-73709499D01*
X154252174Y-73657173D01*
X154304500Y-73635499D01*
X155110003Y-73635499D01*
X155123225Y-73633404D01*
X155206715Y-73620182D01*
X155323281Y-73560789D01*
X155415789Y-73468281D01*
X155475182Y-73351715D01*
X155490500Y-73255003D01*
X155490499Y-72984499D01*
X155512173Y-72932174D01*
X155564499Y-72910500D01*
X155919370Y-72910500D01*
X155971696Y-72932174D01*
X155992597Y-72973830D01*
X155994427Y-72986394D01*
X156045801Y-73091482D01*
X156120297Y-73165978D01*
X156141971Y-73218304D01*
X156140109Y-73232460D01*
X156140133Y-73232464D01*
X156139500Y-73237272D01*
X156139500Y-73342729D01*
X156166791Y-73444582D01*
X156166795Y-73444591D01*
X156194820Y-73493132D01*
X156219520Y-73535913D01*
X156294087Y-73610480D01*
X156385413Y-73663207D01*
X156487270Y-73690499D01*
X156487271Y-73690500D01*
X156487273Y-73690500D01*
X156592729Y-73690500D01*
X156592729Y-73690499D01*
X156694587Y-73663207D01*
X156785913Y-73610480D01*
X156860480Y-73535913D01*
X156913207Y-73444587D01*
X156940499Y-73342729D01*
X156940500Y-73342729D01*
X156940500Y-73237273D01*
X156940500Y-73237272D01*
X156938437Y-73229574D01*
X156945826Y-73173422D01*
X156957584Y-73158096D01*
X157024198Y-73091483D01*
X157075573Y-72986393D01*
X157085500Y-72918260D01*
X157085500Y-72301740D01*
X157075573Y-72233607D01*
X157075572Y-72233605D01*
X157074744Y-72227920D01*
X157077238Y-72227556D01*
X157081680Y-72179953D01*
X157125276Y-72143798D01*
X157147121Y-72140500D01*
X157172729Y-72140500D01*
X157172729Y-72140499D01*
X157274587Y-72113207D01*
X157365913Y-72060480D01*
X157440480Y-71985913D01*
X157493207Y-71894587D01*
X157520499Y-71792729D01*
X157520500Y-71792729D01*
X157520500Y-71698851D01*
X157542174Y-71646525D01*
X157594500Y-71624851D01*
X157646826Y-71646525D01*
G37*
%TD.AperFunction*%
%TA.AperFunction,Conductor*%
G36*
X148977203Y-71409674D02*
G01*
X148977794Y-71410265D01*
X149057235Y-71489706D01*
X149160009Y-71535085D01*
X149185135Y-71538000D01*
X150112376Y-71537999D01*
X150164702Y-71559673D01*
X151222147Y-72617118D01*
X151243821Y-72669444D01*
X151237516Y-72699333D01*
X151207414Y-72767510D01*
X151204500Y-72792635D01*
X151204500Y-73182363D01*
X151207414Y-73207486D01*
X151207415Y-73207492D01*
X151239421Y-73279979D01*
X151252794Y-73310265D01*
X151332235Y-73389706D01*
X151435009Y-73435085D01*
X151460135Y-73438000D01*
X151574442Y-73437999D01*
X151626767Y-73459673D01*
X151648442Y-73511998D01*
X151626768Y-73564324D01*
X151626768Y-73564325D01*
X151370768Y-73820326D01*
X151318442Y-73842000D01*
X150701735Y-73842000D01*
X150633606Y-73851927D01*
X150633605Y-73851927D01*
X150528517Y-73903301D01*
X150445801Y-73986017D01*
X150394427Y-74091105D01*
X150394427Y-74091107D01*
X150393059Y-74100501D01*
X150392597Y-74103670D01*
X150380635Y-74123742D01*
X150371696Y-74145326D01*
X150366490Y-74147482D01*
X150363605Y-74152324D01*
X150319370Y-74167000D01*
X150240266Y-74167000D01*
X150187940Y-74145326D01*
X150167039Y-74103671D01*
X150166130Y-74097431D01*
X150165573Y-74093607D01*
X150114198Y-73988517D01*
X150031483Y-73905802D01*
X150031482Y-73905801D01*
X149926394Y-73854427D01*
X149858264Y-73844500D01*
X149858260Y-73844500D01*
X149241740Y-73844500D01*
X149241735Y-73844500D01*
X149173606Y-73854427D01*
X149173605Y-73854427D01*
X149068517Y-73905801D01*
X148985801Y-73988517D01*
X148934427Y-74093605D01*
X148934427Y-74093606D01*
X148924500Y-74161735D01*
X148924500Y-74628264D01*
X148934427Y-74696393D01*
X148934427Y-74696394D01*
X148985801Y-74801481D01*
X148986531Y-74802504D01*
X148986737Y-74803396D01*
X148988495Y-74806992D01*
X148987663Y-74807398D01*
X148999293Y-74857685D01*
X148969299Y-74905728D01*
X148926303Y-74919500D01*
X148797938Y-74919500D01*
X148778024Y-74924835D01*
X148721872Y-74917443D01*
X148687393Y-74872510D01*
X148692390Y-74820857D01*
X148705573Y-74793893D01*
X148715500Y-74725760D01*
X148715500Y-74259240D01*
X148705573Y-74191107D01*
X148654198Y-74086017D01*
X148571483Y-74003302D01*
X148571482Y-74003301D01*
X148466394Y-73951927D01*
X148398264Y-73942000D01*
X148398260Y-73942000D01*
X147831740Y-73942000D01*
X147831735Y-73942000D01*
X147763606Y-73951927D01*
X147763605Y-73951927D01*
X147658517Y-74003301D01*
X147575801Y-74086017D01*
X147524427Y-74191105D01*
X147524427Y-74191106D01*
X147514500Y-74259235D01*
X147514500Y-74725764D01*
X147517596Y-74747010D01*
X147524427Y-74793893D01*
X147530831Y-74806992D01*
X147537609Y-74820858D01*
X147541117Y-74877386D01*
X147503626Y-74919839D01*
X147451974Y-74924835D01*
X147432064Y-74919500D01*
X147432062Y-74919500D01*
X145562938Y-74919500D01*
X145562936Y-74919500D01*
X145486514Y-74939977D01*
X145486509Y-74939979D01*
X145421826Y-74977325D01*
X145421822Y-74977327D01*
X145417992Y-74979537D01*
X145417987Y-74979541D01*
X145027203Y-75370326D01*
X144974877Y-75392000D01*
X144544359Y-75392000D01*
X144471374Y-75402634D01*
X144471373Y-75402634D01*
X144358789Y-75457673D01*
X144270173Y-75546289D01*
X144215134Y-75658873D01*
X144215134Y-75658874D01*
X144204500Y-75731859D01*
X144204500Y-76253140D01*
X144215134Y-76326125D01*
X144215134Y-76326126D01*
X144270173Y-76438710D01*
X144270174Y-76438711D01*
X144358789Y-76527326D01*
X144471375Y-76582366D01*
X144544364Y-76593000D01*
X144544370Y-76593000D01*
X145115630Y-76593000D01*
X145115636Y-76593000D01*
X145188625Y-76582366D01*
X145301211Y-76527326D01*
X145389826Y-76438711D01*
X145444866Y-76326125D01*
X145455500Y-76253136D01*
X145455500Y-75822623D01*
X145477174Y-75770297D01*
X145538174Y-75709297D01*
X145590500Y-75687623D01*
X145642826Y-75709297D01*
X145664500Y-75761623D01*
X145664500Y-76175764D01*
X145674427Y-76243893D01*
X145674427Y-76243894D01*
X145725801Y-76348982D01*
X145725802Y-76348983D01*
X145808517Y-76431698D01*
X145829076Y-76441748D01*
X145866566Y-76484199D01*
X145868056Y-76527378D01*
X145864736Y-76539771D01*
X145864736Y-76645226D01*
X145892027Y-76747079D01*
X145892028Y-76747082D01*
X145892029Y-76747084D01*
X145944756Y-76838410D01*
X146019323Y-76912977D01*
X146110649Y-76965704D01*
X146212506Y-76992996D01*
X146212507Y-76992997D01*
X146212509Y-76992997D01*
X146317965Y-76992997D01*
X146317965Y-76992996D01*
X146419823Y-76965704D01*
X146511149Y-76912977D01*
X146585716Y-76838410D01*
X146638443Y-76747084D01*
X146665735Y-76645226D01*
X146665736Y-76645226D01*
X146665736Y-76539770D01*
X146662415Y-76527378D01*
X146662362Y-76527178D01*
X146669753Y-76471027D01*
X146701341Y-76441544D01*
X146721483Y-76431698D01*
X146804198Y-76348983D01*
X146855573Y-76243893D01*
X146865500Y-76175760D01*
X146865500Y-75709240D01*
X146855573Y-75641107D01*
X146848675Y-75626998D01*
X146845168Y-75570471D01*
X146882659Y-75528018D01*
X146915158Y-75520500D01*
X147237377Y-75520500D01*
X147289703Y-75542174D01*
X147492826Y-75745297D01*
X147514500Y-75797623D01*
X147514500Y-76175764D01*
X147524427Y-76243893D01*
X147524427Y-76243894D01*
X147575801Y-76348982D01*
X147575802Y-76348983D01*
X147658517Y-76431698D01*
X147763607Y-76483073D01*
X147831740Y-76493000D01*
X148209877Y-76493000D01*
X148262203Y-76514674D01*
X148912826Y-77165297D01*
X148934500Y-77217623D01*
X148934500Y-80216942D01*
X148912826Y-80269268D01*
X148860500Y-80290942D01*
X148808174Y-80269268D01*
X148787738Y-80248832D01*
X148787736Y-80248830D01*
X148787732Y-80248828D01*
X148763458Y-80238773D01*
X148763458Y-80238772D01*
X148704855Y-80214499D01*
X148615145Y-80214499D01*
X148606533Y-80214499D01*
X148606525Y-80214500D01*
X145543475Y-80214500D01*
X145543467Y-80214499D01*
X145534855Y-80214499D01*
X145445146Y-80214499D01*
X145396594Y-80234608D01*
X145396595Y-80234609D01*
X145362267Y-80248828D01*
X145362265Y-80248829D01*
X145168831Y-80442263D01*
X145168830Y-80442265D01*
X145134499Y-80525144D01*
X145134499Y-80623466D01*
X145134500Y-80623475D01*
X145134500Y-81195943D01*
X145112826Y-81248269D01*
X144928269Y-81432826D01*
X144875943Y-81454500D01*
X142779500Y-81454500D01*
X142727174Y-81432826D01*
X142705500Y-81380500D01*
X142705500Y-81371746D01*
X142705500Y-81371740D01*
X142695573Y-81303607D01*
X142644198Y-81198517D01*
X142561483Y-81115802D01*
X142561482Y-81115801D01*
X142456394Y-81064427D01*
X142388264Y-81054500D01*
X142388260Y-81054500D01*
X141921740Y-81054500D01*
X141921735Y-81054500D01*
X141853606Y-81064427D01*
X141853605Y-81064427D01*
X141748517Y-81115801D01*
X141665801Y-81198517D01*
X141614427Y-81303605D01*
X141614427Y-81303606D01*
X141604500Y-81371735D01*
X141604500Y-81988264D01*
X141614427Y-82056393D01*
X141615126Y-82058654D01*
X141614981Y-82060198D01*
X141615256Y-82062080D01*
X141614800Y-82062146D01*
X141609865Y-82115046D01*
X141566270Y-82151202D01*
X141544424Y-82154500D01*
X141264057Y-82154500D01*
X141211731Y-82132826D01*
X141077174Y-81998269D01*
X141055500Y-81945943D01*
X141055500Y-81371746D01*
X141055500Y-81371740D01*
X141045573Y-81303607D01*
X140994198Y-81198517D01*
X140911483Y-81115802D01*
X140911482Y-81115801D01*
X140806394Y-81064427D01*
X140738264Y-81054500D01*
X140738260Y-81054500D01*
X140271740Y-81054500D01*
X140271735Y-81054500D01*
X140203606Y-81064427D01*
X140203604Y-81064427D01*
X140107000Y-81111654D01*
X140050472Y-81115163D01*
X140008019Y-81077673D01*
X140000500Y-81045173D01*
X140000500Y-80699098D01*
X140022174Y-80646772D01*
X140074500Y-80625098D01*
X140126826Y-80646772D01*
X140198135Y-80718081D01*
X140339602Y-80801744D01*
X140497431Y-80847598D01*
X140534306Y-80850500D01*
X140534307Y-80850500D01*
X142665693Y-80850500D01*
X142665694Y-80850500D01*
X142702569Y-80847598D01*
X142860398Y-80801744D01*
X143001865Y-80718081D01*
X143118081Y-80601865D01*
X143201744Y-80460398D01*
X143247598Y-80302569D01*
X143250500Y-80265694D01*
X143250500Y-79134306D01*
X143247598Y-79097431D01*
X143201744Y-78939602D01*
X143118081Y-78798135D01*
X143076511Y-78756565D01*
X143054837Y-78704239D01*
X143076511Y-78651913D01*
X143091838Y-78640153D01*
X143125913Y-78620480D01*
X143200480Y-78545913D01*
X143253207Y-78454587D01*
X143280499Y-78352729D01*
X143280500Y-78352729D01*
X143280500Y-78247271D01*
X143280499Y-78247270D01*
X143275678Y-78229279D01*
X143253207Y-78145413D01*
X143200480Y-78054087D01*
X143200478Y-78054085D01*
X143200477Y-78054083D01*
X143200341Y-78053905D01*
X143200311Y-78053795D01*
X143198055Y-78049887D01*
X143199102Y-78049282D01*
X143185688Y-77999196D01*
X143195360Y-77971192D01*
X143201744Y-77960398D01*
X143247598Y-77802569D01*
X143250500Y-77765694D01*
X143250500Y-76634306D01*
X143247598Y-76597431D01*
X143201744Y-76439602D01*
X143201216Y-76438710D01*
X143148152Y-76348982D01*
X143118081Y-76298135D01*
X143001865Y-76181919D01*
X142984956Y-76171919D01*
X142860399Y-76098256D01*
X142702571Y-76052402D01*
X142677985Y-76050467D01*
X142665694Y-76049500D01*
X140534306Y-76049500D01*
X140525087Y-76050225D01*
X140497428Y-76052402D01*
X140339600Y-76098256D01*
X140198134Y-76181919D01*
X140126826Y-76253228D01*
X140074500Y-76274902D01*
X140022174Y-76253228D01*
X140000500Y-76200902D01*
X140000500Y-75699098D01*
X140022174Y-75646772D01*
X140074500Y-75625098D01*
X140126826Y-75646772D01*
X140198135Y-75718081D01*
X140221441Y-75731864D01*
X140332633Y-75797623D01*
X140339602Y-75801744D01*
X140497431Y-75847598D01*
X140534306Y-75850500D01*
X140534307Y-75850500D01*
X142665693Y-75850500D01*
X142665694Y-75850500D01*
X142702569Y-75847598D01*
X142860398Y-75801744D01*
X143001865Y-75718081D01*
X143118081Y-75601865D01*
X143201744Y-75460398D01*
X143247598Y-75302569D01*
X143250500Y-75265694D01*
X143250500Y-74134306D01*
X143247598Y-74097431D01*
X143221523Y-74007682D01*
X143222704Y-73996981D01*
X143218585Y-73987036D01*
X143225698Y-73969864D01*
X143227738Y-73951388D01*
X143240260Y-73934711D01*
X143292798Y-73882174D01*
X143299184Y-73879529D01*
X143345123Y-73860500D01*
X145279564Y-73860500D01*
X145279564Y-73860499D01*
X145355989Y-73840021D01*
X145424511Y-73800460D01*
X145480460Y-73744511D01*
X145850460Y-73374511D01*
X145887958Y-73309562D01*
X145890021Y-73305989D01*
X145910499Y-73229564D01*
X145910500Y-73229564D01*
X145910500Y-72792635D01*
X148929500Y-72792635D01*
X148929500Y-73182363D01*
X148932414Y-73207486D01*
X148932415Y-73207492D01*
X148964421Y-73279979D01*
X148977794Y-73310265D01*
X149057235Y-73389706D01*
X149160009Y-73435085D01*
X149185135Y-73438000D01*
X150299864Y-73437999D01*
X150324991Y-73435085D01*
X150427765Y-73389706D01*
X150432747Y-73384723D01*
X150485071Y-73363047D01*
X150504228Y-73365569D01*
X150597270Y-73390499D01*
X150597271Y-73390500D01*
X150597273Y-73390500D01*
X150702729Y-73390500D01*
X150702729Y-73390499D01*
X150804587Y-73363207D01*
X150895913Y-73310480D01*
X150970480Y-73235913D01*
X151023207Y-73144587D01*
X151050499Y-73042729D01*
X151050500Y-73042729D01*
X151050500Y-72937271D01*
X151050499Y-72937270D01*
X151045406Y-72918264D01*
X151023207Y-72835413D01*
X150970480Y-72744087D01*
X150895913Y-72669520D01*
X150805150Y-72617118D01*
X150804591Y-72616795D01*
X150804582Y-72616791D01*
X150702729Y-72589500D01*
X150702727Y-72589500D01*
X150597273Y-72589500D01*
X150597271Y-72589500D01*
X150508172Y-72613374D01*
X150452019Y-72605982D01*
X150436693Y-72594222D01*
X150427765Y-72585294D01*
X150404499Y-72575021D01*
X150324991Y-72539915D01*
X150324990Y-72539914D01*
X150324988Y-72539914D01*
X150303659Y-72537440D01*
X150299865Y-72537000D01*
X150299864Y-72537000D01*
X149185136Y-72537000D01*
X149160013Y-72539914D01*
X149160007Y-72539915D01*
X149057234Y-72585294D01*
X148977794Y-72664734D01*
X148932414Y-72767511D01*
X148929500Y-72792635D01*
X145910500Y-72792635D01*
X145910500Y-72450123D01*
X145932174Y-72397797D01*
X146442797Y-71887174D01*
X146495123Y-71865500D01*
X146925630Y-71865500D01*
X146925636Y-71865500D01*
X146998625Y-71854866D01*
X147111211Y-71799826D01*
X147199826Y-71711211D01*
X147250772Y-71606998D01*
X147260143Y-71598723D01*
X147264927Y-71587174D01*
X147280548Y-71580703D01*
X147293225Y-71569509D01*
X147317253Y-71565500D01*
X147422747Y-71565500D01*
X147475073Y-71587174D01*
X147489227Y-71606998D01*
X147540174Y-71711211D01*
X147628789Y-71799826D01*
X147741375Y-71854866D01*
X147814364Y-71865500D01*
X147814370Y-71865500D01*
X148385630Y-71865500D01*
X148385636Y-71865500D01*
X148458625Y-71854866D01*
X148571211Y-71799826D01*
X148659826Y-71711211D01*
X148714866Y-71598625D01*
X148725500Y-71525636D01*
X148725500Y-71462000D01*
X148747174Y-71409674D01*
X148799500Y-71388000D01*
X148924877Y-71388000D01*
X148977203Y-71409674D01*
G37*
%TD.AperFunction*%
%TA.AperFunction,Conductor*%
G36*
X153064104Y-70507174D02*
G01*
X153085778Y-70559500D01*
X153066454Y-70606150D01*
X153067634Y-70607007D01*
X153064212Y-70611716D01*
X153004817Y-70728285D01*
X152989500Y-70824995D01*
X152989500Y-71191943D01*
X152967826Y-71244269D01*
X152915500Y-71265943D01*
X152863174Y-71244269D01*
X152852173Y-71233268D01*
X152830499Y-71180942D01*
X152830499Y-70892636D01*
X152827585Y-70867513D01*
X152827585Y-70867511D01*
X152827585Y-70867509D01*
X152782206Y-70764735D01*
X152702765Y-70685294D01*
X152599991Y-70639915D01*
X152599990Y-70639914D01*
X152599988Y-70639914D01*
X152578659Y-70637440D01*
X152574865Y-70637000D01*
X152574864Y-70637000D01*
X151460136Y-70637000D01*
X151435013Y-70639914D01*
X151435007Y-70639915D01*
X151332234Y-70685294D01*
X151252794Y-70764734D01*
X151207414Y-70867511D01*
X151204500Y-70892635D01*
X151204500Y-71282363D01*
X151207414Y-71307486D01*
X151207415Y-71307492D01*
X151219561Y-71335000D01*
X151252794Y-71410265D01*
X151332235Y-71489706D01*
X151435009Y-71535085D01*
X151460135Y-71538000D01*
X152488442Y-71537999D01*
X152540768Y-71559673D01*
X152657826Y-71676731D01*
X152679500Y-71729057D01*
X152679500Y-72466057D01*
X152657826Y-72518383D01*
X152605500Y-72540057D01*
X152596975Y-72539564D01*
X152574866Y-72537000D01*
X152574865Y-72537000D01*
X152022623Y-72537000D01*
X151970297Y-72515326D01*
X150577173Y-71122202D01*
X150555499Y-71069876D01*
X150555499Y-70892636D01*
X150552585Y-70867513D01*
X150552585Y-70867511D01*
X150552585Y-70867509D01*
X150507206Y-70764735D01*
X150427765Y-70685294D01*
X150324991Y-70639915D01*
X150324990Y-70639914D01*
X150324988Y-70639914D01*
X150303659Y-70637440D01*
X150299865Y-70637000D01*
X150299864Y-70637000D01*
X149185136Y-70637000D01*
X149160013Y-70639914D01*
X149160007Y-70639915D01*
X149057234Y-70685294D01*
X148977203Y-70765326D01*
X148924877Y-70787000D01*
X148658689Y-70787000D01*
X148606363Y-70765326D01*
X148571210Y-70730173D01*
X148458626Y-70675134D01*
X148385640Y-70664500D01*
X148385636Y-70664500D01*
X147814364Y-70664500D01*
X147814359Y-70664500D01*
X147741374Y-70675134D01*
X147741373Y-70675134D01*
X147628789Y-70730173D01*
X147540174Y-70818788D01*
X147489228Y-70923001D01*
X147479856Y-70931276D01*
X147475073Y-70942826D01*
X147459451Y-70949296D01*
X147446775Y-70960491D01*
X147422747Y-70964500D01*
X147317253Y-70964500D01*
X147264927Y-70942826D01*
X147250772Y-70923001D01*
X147199826Y-70818789D01*
X147111211Y-70730174D01*
X147111210Y-70730173D01*
X146998626Y-70675134D01*
X146925640Y-70664500D01*
X146925636Y-70664500D01*
X146354364Y-70664500D01*
X146354359Y-70664500D01*
X146281374Y-70675134D01*
X146281373Y-70675134D01*
X146168789Y-70730173D01*
X146080173Y-70818789D01*
X146025134Y-70931373D01*
X146025134Y-70931374D01*
X146014500Y-71004359D01*
X146014500Y-71434877D01*
X145992826Y-71487203D01*
X145369540Y-72110488D01*
X145329979Y-72179009D01*
X145329977Y-72179014D01*
X145309500Y-72255435D01*
X145309500Y-73034877D01*
X145287826Y-73087203D01*
X145137203Y-73237826D01*
X145084877Y-73259500D01*
X143150436Y-73259500D01*
X143074014Y-73279977D01*
X143074009Y-73279979D01*
X143005488Y-73319540D01*
X142787800Y-73537227D01*
X142735474Y-73558901D01*
X142714832Y-73555964D01*
X142702570Y-73552402D01*
X142702572Y-73552402D01*
X142674912Y-73550225D01*
X142665694Y-73549500D01*
X140534306Y-73549500D01*
X140525087Y-73550225D01*
X140497428Y-73552402D01*
X140339600Y-73598256D01*
X140198134Y-73681919D01*
X140126826Y-73753228D01*
X140074500Y-73774902D01*
X140022174Y-73753228D01*
X140000500Y-73700902D01*
X140000500Y-72679105D01*
X142099500Y-72679105D01*
X142099500Y-72810894D01*
X142133606Y-72938181D01*
X142133607Y-72938184D01*
X142133608Y-72938186D01*
X142199500Y-73052314D01*
X142292686Y-73145500D01*
X142406814Y-73211392D01*
X142534105Y-73245499D01*
X142534106Y-73245500D01*
X142534108Y-73245500D01*
X142665894Y-73245500D01*
X142665894Y-73245499D01*
X142793186Y-73211392D01*
X142907314Y-73145500D01*
X143000500Y-73052314D01*
X143066392Y-72938186D01*
X143100499Y-72810894D01*
X143100500Y-72810894D01*
X143100500Y-72679106D01*
X143100499Y-72679105D01*
X143097910Y-72669444D01*
X143066392Y-72551814D01*
X143000500Y-72437686D01*
X142907314Y-72344500D01*
X142868674Y-72322191D01*
X142793190Y-72278610D01*
X142793181Y-72278606D01*
X142665894Y-72244500D01*
X142665892Y-72244500D01*
X142534108Y-72244500D01*
X142534106Y-72244500D01*
X142406818Y-72278606D01*
X142406809Y-72278610D01*
X142292685Y-72344500D01*
X142199500Y-72437685D01*
X142133610Y-72551809D01*
X142133606Y-72551818D01*
X142099500Y-72679105D01*
X140000500Y-72679105D01*
X140000500Y-71792168D01*
X140022174Y-71739842D01*
X140074500Y-71718168D01*
X140108096Y-71726234D01*
X140111655Y-71728047D01*
X140111658Y-71728050D01*
X140224696Y-71785646D01*
X140318481Y-71800500D01*
X141281518Y-71800499D01*
X141281519Y-71800499D01*
X141339628Y-71791296D01*
X141375304Y-71785646D01*
X141429386Y-71758089D01*
X141485844Y-71753645D01*
X141515305Y-71771698D01*
X141584087Y-71840480D01*
X141675413Y-71893207D01*
X141777270Y-71920499D01*
X141777271Y-71920500D01*
X141777273Y-71920500D01*
X141882729Y-71920500D01*
X141882729Y-71920499D01*
X141984587Y-71893207D01*
X142075913Y-71840480D01*
X142149219Y-71767174D01*
X142201545Y-71745500D01*
X143728140Y-71745500D01*
X143761734Y-71753565D01*
X143824696Y-71785646D01*
X143918481Y-71800500D01*
X144881518Y-71800499D01*
X144881519Y-71800499D01*
X144975304Y-71785646D01*
X144975306Y-71785645D01*
X144986028Y-71780182D01*
X145088342Y-71728050D01*
X145178050Y-71638342D01*
X145235646Y-71525304D01*
X145250500Y-71431519D01*
X145250499Y-70818482D01*
X145245503Y-70786938D01*
X145235646Y-70724695D01*
X145235645Y-70724693D01*
X145204974Y-70664500D01*
X145178050Y-70611658D01*
X145178049Y-70611657D01*
X145174626Y-70606945D01*
X145175833Y-70606068D01*
X145156544Y-70559500D01*
X145178218Y-70507174D01*
X145230544Y-70485500D01*
X153011778Y-70485500D01*
X153064104Y-70507174D01*
G37*
%TD.AperFunction*%
%TD*%
M02*
