%TF.GenerationSoftware,KiCad,Pcbnew,10.0.1*%
%TF.CreationDate,2026-06-07T18:36:02+02:00*%
%TF.ProjectId,esp32c5-airunit-nano,65737033-3263-4352-9d61-6972756e6974,v1.1*%
%TF.SameCoordinates,Original*%
%TF.FileFunction,Legend,Top*%
%TF.FilePolarity,Positive*%
%FSLAX46Y46*%
G04 Gerber Fmt 4.6, Leading zero omitted, Abs format (unit mm)*
G04 Created by KiCad (PCBNEW 10.0.1) date 2026-06-07 18:36:02*
%MOMM*%
%LPD*%
G01*
G04 APERTURE LIST*
%ADD10C,0.200000*%
%ADD11C,0.120000*%
G04 APERTURE END LIST*
D10*
X141814911Y-85008457D02*
X141748244Y-85065600D01*
X141748244Y-85065600D02*
X141548244Y-85122742D01*
X141548244Y-85122742D02*
X141414911Y-85122742D01*
X141414911Y-85122742D02*
X141214911Y-85065600D01*
X141214911Y-85065600D02*
X141081578Y-84951314D01*
X141081578Y-84951314D02*
X141014911Y-84837028D01*
X141014911Y-84837028D02*
X140948244Y-84608457D01*
X140948244Y-84608457D02*
X140948244Y-84437028D01*
X140948244Y-84437028D02*
X141014911Y-84208457D01*
X141014911Y-84208457D02*
X141081578Y-84094171D01*
X141081578Y-84094171D02*
X141214911Y-83979885D01*
X141214911Y-83979885D02*
X141414911Y-83922742D01*
X141414911Y-83922742D02*
X141548244Y-83922742D01*
X141548244Y-83922742D02*
X141748244Y-83979885D01*
X141748244Y-83979885D02*
X141814911Y-84037028D01*
X143081578Y-83922742D02*
X142414911Y-83922742D01*
X142414911Y-83922742D02*
X142348244Y-84494171D01*
X142348244Y-84494171D02*
X142414911Y-84437028D01*
X142414911Y-84437028D02*
X142548244Y-84379885D01*
X142548244Y-84379885D02*
X142881578Y-84379885D01*
X142881578Y-84379885D02*
X143014911Y-84437028D01*
X143014911Y-84437028D02*
X143081578Y-84494171D01*
X143081578Y-84494171D02*
X143148244Y-84608457D01*
X143148244Y-84608457D02*
X143148244Y-84894171D01*
X143148244Y-84894171D02*
X143081578Y-85008457D01*
X143081578Y-85008457D02*
X143014911Y-85065600D01*
X143014911Y-85065600D02*
X142881578Y-85122742D01*
X142881578Y-85122742D02*
X142548244Y-85122742D01*
X142548244Y-85122742D02*
X142414911Y-85065600D01*
X142414911Y-85065600D02*
X142348244Y-85008457D01*
X143748244Y-84665600D02*
X144814911Y-84665600D01*
X145414910Y-84779885D02*
X146081577Y-84779885D01*
X145281577Y-85122742D02*
X145748244Y-83922742D01*
X145748244Y-83922742D02*
X146214910Y-85122742D01*
X146681577Y-85122742D02*
X146681577Y-84322742D01*
X146681577Y-83922742D02*
X146614910Y-83979885D01*
X146614910Y-83979885D02*
X146681577Y-84037028D01*
X146681577Y-84037028D02*
X146748244Y-83979885D01*
X146748244Y-83979885D02*
X146681577Y-83922742D01*
X146681577Y-83922742D02*
X146681577Y-84037028D01*
X147348244Y-85122742D02*
X147348244Y-84322742D01*
X147348244Y-84551314D02*
X147414911Y-84437028D01*
X147414911Y-84437028D02*
X147481577Y-84379885D01*
X147481577Y-84379885D02*
X147614911Y-84322742D01*
X147614911Y-84322742D02*
X147748244Y-84322742D01*
X150610001Y-84064742D02*
X150876667Y-84064742D01*
X150876667Y-84064742D02*
X151010001Y-84121885D01*
X151010001Y-84121885D02*
X151143334Y-84236171D01*
X151143334Y-84236171D02*
X151210001Y-84464742D01*
X151210001Y-84464742D02*
X151210001Y-84864742D01*
X151210001Y-84864742D02*
X151143334Y-85093314D01*
X151143334Y-85093314D02*
X151010001Y-85207600D01*
X151010001Y-85207600D02*
X150876667Y-85264742D01*
X150876667Y-85264742D02*
X150610001Y-85264742D01*
X150610001Y-85264742D02*
X150476667Y-85207600D01*
X150476667Y-85207600D02*
X150343334Y-85093314D01*
X150343334Y-85093314D02*
X150276667Y-84864742D01*
X150276667Y-84864742D02*
X150276667Y-84464742D01*
X150276667Y-84464742D02*
X150343334Y-84236171D01*
X150343334Y-84236171D02*
X150476667Y-84121885D01*
X150476667Y-84121885D02*
X150610001Y-84064742D01*
X151610001Y-84064742D02*
X152076668Y-85264742D01*
X152076668Y-85264742D02*
X152543334Y-84064742D01*
X153676668Y-84064742D02*
X153010001Y-84064742D01*
X153010001Y-84064742D02*
X152943334Y-84636171D01*
X152943334Y-84636171D02*
X153010001Y-84579028D01*
X153010001Y-84579028D02*
X153143334Y-84521885D01*
X153143334Y-84521885D02*
X153476668Y-84521885D01*
X153476668Y-84521885D02*
X153610001Y-84579028D01*
X153610001Y-84579028D02*
X153676668Y-84636171D01*
X153676668Y-84636171D02*
X153743334Y-84750457D01*
X153743334Y-84750457D02*
X153743334Y-85036171D01*
X153743334Y-85036171D02*
X153676668Y-85150457D01*
X153676668Y-85150457D02*
X153610001Y-85207600D01*
X153610001Y-85207600D02*
X153476668Y-85264742D01*
X153476668Y-85264742D02*
X153143334Y-85264742D01*
X153143334Y-85264742D02*
X153010001Y-85207600D01*
X153010001Y-85207600D02*
X152943334Y-85150457D01*
X154943334Y-84064742D02*
X154676667Y-84064742D01*
X154676667Y-84064742D02*
X154543334Y-84121885D01*
X154543334Y-84121885D02*
X154476667Y-84179028D01*
X154476667Y-84179028D02*
X154343334Y-84350457D01*
X154343334Y-84350457D02*
X154276667Y-84579028D01*
X154276667Y-84579028D02*
X154276667Y-85036171D01*
X154276667Y-85036171D02*
X154343334Y-85150457D01*
X154343334Y-85150457D02*
X154410001Y-85207600D01*
X154410001Y-85207600D02*
X154543334Y-85264742D01*
X154543334Y-85264742D02*
X154810001Y-85264742D01*
X154810001Y-85264742D02*
X154943334Y-85207600D01*
X154943334Y-85207600D02*
X155010001Y-85150457D01*
X155010001Y-85150457D02*
X155076667Y-85036171D01*
X155076667Y-85036171D02*
X155076667Y-84750457D01*
X155076667Y-84750457D02*
X155010001Y-84636171D01*
X155010001Y-84636171D02*
X154943334Y-84579028D01*
X154943334Y-84579028D02*
X154810001Y-84521885D01*
X154810001Y-84521885D02*
X154543334Y-84521885D01*
X154543334Y-84521885D02*
X154410001Y-84579028D01*
X154410001Y-84579028D02*
X154343334Y-84636171D01*
X154343334Y-84636171D02*
X154276667Y-84750457D01*
X156276667Y-84464742D02*
X156276667Y-85264742D01*
X155943334Y-84007600D02*
X155610000Y-84864742D01*
X155610000Y-84864742D02*
X156476667Y-84864742D01*
X157276667Y-84064742D02*
X157410000Y-84064742D01*
X157410000Y-84064742D02*
X157543333Y-84121885D01*
X157543333Y-84121885D02*
X157610000Y-84179028D01*
X157610000Y-84179028D02*
X157676667Y-84293314D01*
X157676667Y-84293314D02*
X157743333Y-84521885D01*
X157743333Y-84521885D02*
X157743333Y-84807600D01*
X157743333Y-84807600D02*
X157676667Y-85036171D01*
X157676667Y-85036171D02*
X157610000Y-85150457D01*
X157610000Y-85150457D02*
X157543333Y-85207600D01*
X157543333Y-85207600D02*
X157410000Y-85264742D01*
X157410000Y-85264742D02*
X157276667Y-85264742D01*
X157276667Y-85264742D02*
X157143333Y-85207600D01*
X157143333Y-85207600D02*
X157076667Y-85150457D01*
X157076667Y-85150457D02*
X157010000Y-85036171D01*
X157010000Y-85036171D02*
X156943333Y-84807600D01*
X156943333Y-84807600D02*
X156943333Y-84521885D01*
X156943333Y-84521885D02*
X157010000Y-84293314D01*
X157010000Y-84293314D02*
X157076667Y-84179028D01*
X157076667Y-84179028D02*
X157143333Y-84121885D01*
X157143333Y-84121885D02*
X157276667Y-84064742D01*
%TO.C,C7*%
D11*
X144320000Y-75358080D02*
X144320000Y-75076920D01*
X145340000Y-75358080D02*
X145340000Y-75076920D01*
%TO.C,R3*%
X157122742Y-72087500D02*
X157597258Y-72087500D01*
X157122742Y-73132500D02*
X157597258Y-73132500D01*
%TO.C,R6*%
X141092742Y-81157500D02*
X141567258Y-81157500D01*
X141092742Y-82202500D02*
X141567258Y-82202500D01*
%TO.C,C8*%
X157304420Y-81160000D02*
X157585580Y-81160000D01*
X157304420Y-82180000D02*
X157585580Y-82180000D01*
%TO.C,C1*%
X146130000Y-71899420D02*
X146130000Y-72180580D01*
X147150000Y-71899420D02*
X147150000Y-72180580D01*
%TO.C,C4*%
X142100580Y-90990000D02*
X141819420Y-90990000D01*
X142100580Y-92010000D02*
X141819420Y-92010000D01*
%TO.C,C2*%
X147590000Y-71899420D02*
X147590000Y-72180580D01*
X148610000Y-71899420D02*
X148610000Y-72180580D01*
%TO.C,L1*%
X152980000Y-73400000D02*
X152980000Y-70680000D01*
X155500000Y-70680000D02*
X155500000Y-73400000D01*
%TO.C,J1*%
X140562500Y-87630000D02*
X140562500Y-87030000D01*
X140672500Y-87630000D02*
X140562500Y-87630000D01*
X154937500Y-90220000D02*
X155337500Y-90220000D01*
X155137500Y-89820000D02*
X154937500Y-90220000D01*
X155337500Y-90220000D02*
X155137500Y-89820000D01*
X158102500Y-87630000D02*
X158212500Y-87630000D01*
X158212500Y-87630000D02*
X158212500Y-87030000D01*
%TO.C,C3*%
X151960000Y-75081920D02*
X151960000Y-75363080D01*
X152980000Y-75081920D02*
X152980000Y-75363080D01*
%TO.C,Y1*%
X145830000Y-75047500D02*
X145830000Y-75387500D01*
X146870000Y-74107500D02*
X147510000Y-74107500D01*
X146870000Y-76327500D02*
X147510000Y-76327500D01*
X148550000Y-75057500D02*
X148550000Y-75387500D01*
X148750000Y-74837500D02*
X148750000Y-74147500D01*
X148750000Y-74837500D02*
G75*
G02*
X148550000Y-75057501I-320002J90001D01*
G01*
%TO.C,R2*%
X149027500Y-74982742D02*
X149027500Y-75457258D01*
X150072500Y-74982742D02*
X150072500Y-75457258D01*
%TO.C,C6*%
X153420000Y-75076920D02*
X153420000Y-75358080D01*
X154440000Y-75076920D02*
X154440000Y-75358080D01*
%TO.C,SW1*%
X144350000Y-73395000D02*
X140850000Y-73395000D01*
X144350000Y-73395000D02*
X144350000Y-73355000D01*
X145150000Y-73355000D02*
X144350000Y-73355000D01*
%TO.C,R1*%
X150487500Y-74980242D02*
X150487500Y-75454758D01*
X151532500Y-74980242D02*
X151532500Y-75454758D01*
%TO.C,U1*%
X149970000Y-70477500D02*
X151790000Y-70477500D01*
X149970000Y-70527500D02*
X149970000Y-70477500D01*
X149970000Y-73597500D02*
X149970000Y-73547500D01*
X151790000Y-70477500D02*
X151790000Y-70527500D01*
X151790000Y-71647500D02*
X151790000Y-72427500D01*
X151790000Y-73547500D02*
X151790000Y-73597500D01*
X151790000Y-73597500D02*
X149970000Y-73597500D01*
X149430000Y-70527500D02*
X149190000Y-70197500D01*
X149670000Y-70197500D01*
X149430000Y-70527500D01*
G36*
X149430000Y-70527500D02*
G01*
X149190000Y-70197500D01*
X149670000Y-70197500D01*
X149430000Y-70527500D01*
G37*
%TO.C,D1*%
X155875000Y-70415000D02*
X155875000Y-71885000D01*
X155875000Y-71885000D02*
X158160000Y-71885000D01*
X158160000Y-70415000D02*
X155875000Y-70415000D01*
%TO.C,C5*%
X156669420Y-90990000D02*
X156950580Y-90990000D01*
X156669420Y-92010000D02*
X156950580Y-92010000D01*
%TO.C,J8*%
D10*
X143785000Y-82475000D02*
X143785000Y-80625000D01*
X153885000Y-77025000D02*
X145235000Y-77025000D01*
X155185000Y-81025000D02*
X155185000Y-82475000D01*
X155185000Y-82475000D02*
X143785000Y-82475000D01*
%TD*%
M02*
