%TF.GenerationSoftware,KiCad,Pcbnew,10.0.1*%
%TF.CreationDate,2026-06-07T18:36:02+02:00*%
%TF.ProjectId,esp32c5-airunit-nano,65737033-3263-4352-9d61-6972756e6974,v1.1*%
%TF.SameCoordinates,Original*%
%TF.FileFunction,Soldermask,Top*%
%TF.FilePolarity,Negative*%
%FSLAX46Y46*%
G04 Gerber Fmt 4.6, Leading zero omitted, Abs format (unit mm)*
G04 Created by KiCad (PCBNEW 10.0.1) date 2026-06-07 18:36:02*
%MOMM*%
%LPD*%
G01*
G04 APERTURE LIST*
G04 Aperture macros list*
%AMRoundRect*
0 Rectangle with rounded corners*
0 $1 Rounding radius*
0 $2 $3 $4 $5 $6 $7 $8 $9 X,Y pos of 4 corners*
0 Add a 4 corners polygon primitive as box body*
4,1,4,$2,$3,$4,$5,$6,$7,$8,$9,$2,$3,0*
0 Add four circle primitives for the rounded corners*
1,1,$1+$1,$2,$3*
1,1,$1+$1,$4,$5*
1,1,$1+$1,$6,$7*
1,1,$1+$1,$8,$9*
0 Add four rect primitives between the rounded corners*
20,1,$1+$1,$2,$3,$4,$5,0*
20,1,$1+$1,$4,$5,$6,$7,0*
20,1,$1+$1,$6,$7,$8,$9,0*
20,1,$1+$1,$8,$9,$2,$3,0*%
G04 Aperture macros list end*
%ADD10RoundRect,0.225000X0.250000X-0.225000X0.250000X0.225000X-0.250000X0.225000X-0.250000X-0.225000X0*%
%ADD11RoundRect,0.200000X-0.200000X-0.275000X0.200000X-0.275000X0.200000X0.275000X-0.200000X0.275000X0*%
%ADD12RoundRect,0.225000X-0.225000X-0.250000X0.225000X-0.250000X0.225000X0.250000X-0.225000X0.250000X0*%
%ADD13RoundRect,0.225000X-0.250000X0.225000X-0.250000X-0.225000X0.250000X-0.225000X0.250000X0.225000X0*%
%ADD14RoundRect,0.500000X1.000000X-0.500000X1.000000X0.500000X-1.000000X0.500000X-1.000000X-0.500000X0*%
%ADD15RoundRect,0.225000X0.225000X0.250000X-0.225000X0.250000X-0.225000X-0.250000X0.225000X-0.250000X0*%
%ADD16RoundRect,0.262500X-0.837500X0.262500X-0.837500X-0.262500X0.837500X-0.262500X0.837500X0.262500X0*%
%ADD17R,0.300000X1.100000*%
%ADD18R,2.300000X3.100000*%
%ADD19RoundRect,0.200000X-0.250000X0.200000X-0.250000X-0.200000X0.250000X-0.200000X0.250000X0.200000X0*%
%ADD20RoundRect,0.200000X-0.275000X0.200000X-0.275000X-0.200000X0.275000X-0.200000X0.275000X0.200000X0*%
%ADD21C,0.700000*%
%ADD22RoundRect,0.250000X0.450000X0.275000X-0.450000X0.275000X-0.450000X-0.275000X0.450000X-0.275000X0*%
%ADD23RoundRect,0.150000X-0.512500X-0.150000X0.512500X-0.150000X0.512500X0.150000X-0.512500X0.150000X0*%
%ADD24RoundRect,0.218750X-0.218750X-0.256250X0.218750X-0.256250X0.218750X0.256250X-0.218750X0.256250X0*%
%ADD25R,0.700000X1.000000*%
%ADD26R,1.150000X1.200000*%
%ADD27R,1.400000X0.900000*%
%ADD28R,1.000000X0.700000*%
%ADD29R,1.450000X1.200000*%
G04 APERTURE END LIST*
D10*
%TO.C,C7*%
X144830000Y-75992500D03*
X144830000Y-74442500D03*
%TD*%
D11*
%TO.C,R3*%
X156535000Y-72610000D03*
X158185000Y-72610000D03*
%TD*%
%TO.C,R6*%
X140505000Y-81680000D03*
X142155000Y-81680000D03*
%TD*%
D12*
%TO.C,C8*%
X156670000Y-81670000D03*
X158220000Y-81670000D03*
%TD*%
D13*
%TO.C,C1*%
X146640000Y-71265000D03*
X146640000Y-72815000D03*
%TD*%
D14*
%TO.C,J5*%
X141600000Y-79700000D03*
%TD*%
%TO.C,J2*%
X141600000Y-74700000D03*
%TD*%
%TO.C,J4*%
X157176187Y-74690000D03*
%TD*%
D15*
%TO.C,C4*%
X142735000Y-91500000D03*
X141185000Y-91500000D03*
%TD*%
D13*
%TO.C,C2*%
X148100000Y-71265000D03*
X148100000Y-72815000D03*
%TD*%
D16*
%TO.C,L1*%
X154240000Y-71120000D03*
X154240000Y-72960000D03*
%TD*%
D17*
%TO.C,J1*%
X155137500Y-91020000D03*
X154637500Y-91020000D03*
X154137500Y-91020000D03*
X153637500Y-91020000D03*
X153137500Y-91020000D03*
X152637500Y-91020000D03*
X152137500Y-91020000D03*
X151637500Y-91020000D03*
X151137500Y-91020000D03*
X150637500Y-91020000D03*
X150137500Y-91020000D03*
X149637500Y-91020000D03*
X149137500Y-91020000D03*
X148637500Y-91020000D03*
X148137500Y-91020000D03*
X147637500Y-91020000D03*
X147137500Y-91020000D03*
X146637500Y-91020000D03*
X146137500Y-91020000D03*
X145637500Y-91020000D03*
X145137500Y-91020000D03*
X144637500Y-91020000D03*
X144137500Y-91020000D03*
X143637500Y-91020000D03*
D18*
X156807500Y-89320000D03*
X141967500Y-89320000D03*
%TD*%
D13*
%TO.C,C3*%
X152470000Y-74447500D03*
X152470000Y-75997500D03*
%TD*%
D19*
%TO.C,Y1*%
X148115000Y-74492500D03*
X146265000Y-74492500D03*
X146265000Y-75942500D03*
X148115000Y-75942500D03*
%TD*%
D20*
%TO.C,R2*%
X149550000Y-74395000D03*
X149550000Y-76045000D03*
%TD*%
D13*
%TO.C,C6*%
X153930000Y-74442500D03*
X153930000Y-75992500D03*
%TD*%
D14*
%TO.C,J7*%
X157176187Y-77190000D03*
%TD*%
D21*
%TO.C,SW1*%
X142600000Y-72745000D03*
X142600000Y-70945000D03*
D22*
X144400000Y-72565000D03*
X140800000Y-72565000D03*
X144400000Y-71125000D03*
X140800000Y-71125000D03*
%TD*%
D14*
%TO.C,J6*%
X141600000Y-77200000D03*
%TD*%
D20*
%TO.C,R1*%
X151010000Y-74392500D03*
X151010000Y-76042500D03*
%TD*%
D23*
%TO.C,U1*%
X149742500Y-71087500D03*
X149742500Y-72037500D03*
X149742500Y-72987500D03*
X152017500Y-72987500D03*
X152017500Y-71087500D03*
%TD*%
D24*
%TO.C,D1*%
X156572500Y-71150000D03*
X158147500Y-71150000D03*
%TD*%
D14*
%TO.C,J9*%
X157176187Y-79690000D03*
%TD*%
D12*
%TO.C,C5*%
X156035000Y-91500000D03*
X157585000Y-91500000D03*
%TD*%
D25*
%TO.C,J8*%
X145935000Y-81165000D03*
X147035000Y-81165000D03*
X148135000Y-81165000D03*
X149235000Y-81165000D03*
X150335000Y-81165000D03*
X151435000Y-81165000D03*
X152535000Y-81165000D03*
X153635000Y-81165000D03*
D26*
X154710000Y-80115000D03*
X154710000Y-77525000D03*
D27*
X144285000Y-77375000D03*
D28*
X144085000Y-78525000D03*
D29*
X144310000Y-79675000D03*
%TD*%
M02*
