%TF.GenerationSoftware,KiCad,Pcbnew,10.0.1*%
%TF.CreationDate,2026-06-07T18:36:02+02:00*%
%TF.ProjectId,esp32c5-airunit-nano,65737033-3263-4352-9d61-6972756e6974,v1.1*%
%TF.SameCoordinates,Original*%
%TF.FileFunction,Copper,L2,Bot*%
%TF.FilePolarity,Positive*%
%FSLAX46Y46*%
G04 Gerber Fmt 4.6, Leading zero omitted, Abs format (unit mm)*
G04 Created by KiCad (PCBNEW 10.0.1) date 2026-06-07 18:36:02*
%MOMM*%
%LPD*%
G01*
G04 APERTURE LIST*
%TA.AperFunction,SMDPad,CuDef*%
%ADD10R,1.500000X0.900000*%
%TD*%
%TA.AperFunction,SMDPad,CuDef*%
%ADD11R,1.300000X1.300000*%
%TD*%
%TA.AperFunction,SMDPad,CuDef*%
%ADD12R,0.900000X1.500000*%
%TD*%
%TA.AperFunction,ViaPad*%
%ADD13C,0.500000*%
%TD*%
%TA.AperFunction,Conductor*%
%ADD14C,0.300000*%
%TD*%
%TA.AperFunction,Conductor*%
%ADD15C,0.150000*%
%TD*%
G04 APERTURE END LIST*
D10*
%TO.P,U2,1,GND_1*%
%TO.N,GND*%
X158130000Y-72560000D03*
%TO.P,U2,2,3V3_2*%
%TO.N,+3V0*%
X158130000Y-73830000D03*
%TO.P,U2,3,EN/CHIP_PU_3*%
X158130000Y-75100000D03*
%TO.P,U2,4,GPIO2_4*%
%TO.N,d7*%
X158130000Y-76370000D03*
%TO.P,U2,5,GPIO3_5*%
%TO.N,d6*%
X158130000Y-77640000D03*
%TO.P,U2,6,GPIO0_6*%
%TO.N,d5*%
X158130000Y-78910000D03*
%TO.P,U2,7,GPIO1_7*%
%TO.N,pclk*%
X158130000Y-80180000D03*
%TO.P,U2,8,GPIO6_8*%
%TO.N,d4*%
X158130000Y-81450000D03*
%TO.P,U2,9,GPIO7_9*%
%TO.N,d0*%
X158130000Y-82720000D03*
%TO.P,U2,10,GPIO8_10*%
%TO.N,d3*%
X158130000Y-83990000D03*
%TO.P,U2,11,GPIO9_11*%
%TO.N,d1*%
X158130000Y-85260000D03*
%TO.P,U2,12,GPIO10_12*%
%TO.N,d2*%
X158130000Y-86530000D03*
%TO.P,U2,13,GPIO13/USB_D-_13*%
%TO.N,uart1_rx*%
X158130000Y-87800000D03*
%TO.P,U2,14,GPIO14/USB_D+_14*%
%TO.N,uart1_tx*%
X158130000Y-89070000D03*
%TO.P,U2,15,GPIO28_15*%
%TO.N,record*%
X140630000Y-89070000D03*
%TO.P,U2,16,GPIO5_16*%
%TO.N,sda*%
X140630000Y-87800000D03*
%TO.P,U2,17,GPIO4_17*%
%TO.N,scl*%
X140630000Y-86530000D03*
%TO.P,U2,18,GPIO27_18*%
%TO.N,led*%
X140630000Y-85260000D03*
%TO.P,U2,19,GPIO15_19*%
%TO.N,unconnected-(U2-GPIO15-Pad19)*%
X140630000Y-83990000D03*
%TO.P,U2,20,NC_20*%
%TO.N,unconnected-(U2-NC-Pad20)*%
X140630000Y-82720000D03*
%TO.P,U2,21,GPIO23_21*%
%TO.N,sd_cd*%
X140630000Y-81450000D03*
%TO.P,U2,22,NC_22*%
%TO.N,unconnected-(U2-NC-Pad22)*%
X140630000Y-80180000D03*
%TO.P,U2,23,GPIO24_23*%
%TO.N,sd_cmd*%
X140630000Y-78910000D03*
%TO.P,U2,24,U0RXD/GPIO12_24*%
%TO.N,uart0_rx*%
X140630000Y-77640000D03*
%TO.P,U2,25,U0TXD/GPIO11_25*%
%TO.N,uart0_tx*%
X140630000Y-76370000D03*
%TO.P,U2,26,GPIO25_26*%
%TO.N,sd_clk*%
X140630000Y-75100000D03*
%TO.P,U2,27,GPIO26_27*%
%TO.N,sd_data*%
X140630000Y-73830000D03*
%TO.P,U2,28,GND_28*%
%TO.N,GND*%
X140630000Y-72560000D03*
D11*
%TO.P,U2,29,GND_29*%
X150250200Y-82848000D03*
X150250200Y-81148000D03*
X150250200Y-79448000D03*
X148550200Y-82848000D03*
X148550200Y-81148000D03*
X148550200Y-79448000D03*
X146850200Y-82848000D03*
X146850200Y-81148000D03*
X146850200Y-79448000D03*
D12*
%TO.P,U2,30,GND_30*%
X145380000Y-71120000D03*
%TO.P,U2,31,ANT2_31*%
%TO.N,unconnected-(U2-ANT2-Pad31)*%
X146650000Y-71120000D03*
%TO.P,U2,32,GND_32*%
%TO.N,GND*%
X147920000Y-71120000D03*
%TD*%
D13*
%TO.N,+3V0*%
X155480000Y-73540000D03*
X155480000Y-81670000D03*
%TO.N,GND*%
X143360000Y-89330000D03*
X155410000Y-89320000D03*
X149480000Y-84170000D03*
X147020000Y-78530000D03*
X141750000Y-72320000D03*
X147140000Y-90205426D03*
X155660000Y-75730000D03*
X147180000Y-73780000D03*
%TO.N,sd_cd*%
X144520000Y-80675002D03*
%TO.N,uart0_rx*%
X143090000Y-78640000D03*
%TO.N,Net-(U1-SW)*%
X150650000Y-72990000D03*
X154240000Y-71890000D03*
%TO.N,d2*%
X154140000Y-90220000D03*
%TO.N,d1*%
X153637374Y-89807847D03*
%TO.N,d3*%
X153136014Y-90221540D03*
%TO.N,d0*%
X152635774Y-89806494D03*
%TO.N,d4*%
X152139250Y-90225979D03*
%TO.N,pclk*%
X151633998Y-89817049D03*
%TO.N,d5*%
X151137147Y-90236147D03*
%TO.N,d6*%
X150140000Y-90220000D03*
%TO.N,xclk*%
X149665000Y-89764411D03*
X146960000Y-75940000D03*
%TO.N,d7*%
X149187500Y-90205425D03*
%TO.N,scl*%
X145687500Y-88650000D03*
X145687500Y-90205426D03*
X141630000Y-86530000D03*
%TO.N,sda*%
X141630000Y-87369998D03*
%TO.N,uart1_tx*%
X155666066Y-78246617D03*
X154485000Y-82700000D03*
X155732155Y-87370001D03*
%TO.N,record*%
X143589443Y-71749167D03*
%TO.N,uart0_tx*%
X143170000Y-76220000D03*
%TO.N,led*%
X156000000Y-71720000D03*
X148366688Y-77198000D03*
X145435002Y-79130000D03*
%TO.N,uart1_rx*%
X156270000Y-86920000D03*
%TO.N,sd_cmd*%
X146125000Y-78405133D03*
%TO.N,sd_clk*%
X144040000Y-75220000D03*
X146960000Y-75220000D03*
X151110000Y-77498000D03*
%TO.N,sd_data*%
X151351992Y-78888008D03*
%TD*%
%TO.N,+3V0*%
D14*
X156480000Y-76360000D02*
X157740000Y-75100000D01*
X155480000Y-79801142D02*
X156480000Y-78801142D01*
X158130000Y-73830000D02*
X158130000Y-75100000D01*
X155770000Y-73830000D02*
X158130000Y-73830000D01*
X157740000Y-75100000D02*
X158130000Y-75100000D01*
X156480000Y-78801142D02*
X156480000Y-76360000D01*
X155480000Y-73540000D02*
X155770000Y-73830000D01*
X155480000Y-81670000D02*
X155480000Y-79801142D01*
%TO.N,sd_cd*%
D15*
X143745002Y-81450000D02*
X140630000Y-81450000D01*
X144520000Y-80675002D02*
X143745002Y-81450000D01*
%TO.N,uart0_rx*%
X140630000Y-77640000D02*
X141000000Y-77640000D01*
X141000000Y-77640000D02*
X142000000Y-78640000D01*
X142000000Y-78640000D02*
X143090000Y-78640000D01*
%TO.N,Net-(U1-SW)*%
D14*
X153140000Y-72990000D02*
X154240000Y-71890000D01*
X150650000Y-72990000D02*
X153140000Y-72990000D01*
%TO.N,d2*%
D15*
X156860000Y-85600000D02*
X157790000Y-86530000D01*
X157790000Y-86530000D02*
X158130000Y-86530000D01*
X156192792Y-85600000D02*
X156860000Y-85600000D01*
X154140000Y-87652792D02*
X156192792Y-85600000D01*
X154140000Y-90220000D02*
X154140000Y-87652792D01*
%TO.N,d1*%
X153637374Y-89807847D02*
X153637374Y-87731154D01*
X156478528Y-84890000D02*
X157760000Y-84890000D01*
X157760000Y-84890000D02*
X158130000Y-85260000D01*
X153637374Y-87731154D02*
X156478528Y-84890000D01*
%TO.N,d3*%
X156954264Y-83990000D02*
X158130000Y-83990000D01*
X153136014Y-90221540D02*
X153136014Y-87808250D01*
X153136014Y-87808250D02*
X156954264Y-83990000D01*
%TO.N,d0*%
X157800000Y-82720000D02*
X158130000Y-82720000D01*
X152635774Y-89806494D02*
X152635774Y-87884226D01*
X152635774Y-87884226D02*
X157800000Y-82720000D01*
%TO.N,d4*%
X152139250Y-87956486D02*
X157155000Y-82940736D01*
X152139250Y-90225979D02*
X152139250Y-87956486D01*
X157155000Y-82940736D02*
X157155000Y-82045000D01*
X157155000Y-82045000D02*
X157750000Y-81450000D01*
X157750000Y-81450000D02*
X158130000Y-81450000D01*
%TO.N,pclk*%
X156855000Y-82816472D02*
X156855000Y-81075000D01*
X156855000Y-81075000D02*
X157750000Y-80180000D01*
X157750000Y-80180000D02*
X158130000Y-80180000D01*
X151633998Y-88037474D02*
X156855000Y-82816472D01*
X151633998Y-89817049D02*
X151633998Y-88037474D01*
%TO.N,d5*%
X151137147Y-90236147D02*
X151137147Y-88110061D01*
X156555000Y-80105000D02*
X157750000Y-78910000D01*
X157750000Y-78910000D02*
X158130000Y-78910000D01*
X151137147Y-88110061D02*
X156555000Y-82692208D01*
X156555000Y-82692208D02*
X156555000Y-80105000D01*
%TO.N,d6*%
X157155000Y-78235000D02*
X157750000Y-77640000D01*
X157155000Y-79080736D02*
X157155000Y-78235000D01*
X150140000Y-90220000D02*
X150140000Y-88682944D01*
X156255000Y-79980736D02*
X157155000Y-79080736D01*
X150140000Y-88682944D02*
X156255000Y-82567944D01*
X157750000Y-77640000D02*
X158130000Y-77640000D01*
X156255000Y-82567944D02*
X156255000Y-79980736D01*
%TO.N,xclk*%
X146960000Y-76892640D02*
X146960000Y-75940000D01*
X151533000Y-77973000D02*
X148040360Y-77973000D01*
X149384252Y-90680425D02*
X148990748Y-90680425D01*
X152270000Y-82920000D02*
X152270000Y-78710000D01*
X148990748Y-90680425D02*
X148712500Y-90402177D01*
X149665000Y-89764411D02*
X149665000Y-90399677D01*
X148040360Y-77973000D02*
X146960000Y-76892640D01*
X148712500Y-90402177D02*
X148712500Y-86477500D01*
X148712500Y-86477500D02*
X152270000Y-82920000D01*
X152270000Y-78710000D02*
X151533000Y-77973000D01*
X149665000Y-90399677D02*
X149384252Y-90680425D01*
%TO.N,d7*%
X156855000Y-77345000D02*
X157830000Y-76370000D01*
X155955000Y-82443680D02*
X155955000Y-79856472D01*
X155955000Y-79856472D02*
X156855000Y-78956472D01*
X149187500Y-90205425D02*
X149187500Y-89211180D01*
X156855000Y-78956472D02*
X156855000Y-77345000D01*
X149187500Y-89211180D02*
X155955000Y-82443680D01*
X157830000Y-76370000D02*
X158130000Y-76370000D01*
%TO.N,scl*%
X145687500Y-88650000D02*
X145687500Y-90205426D01*
X140630000Y-86530000D02*
X141630000Y-86530000D01*
%TO.N,sda*%
X141030000Y-87800000D02*
X140630000Y-87800000D01*
X141460002Y-87369998D02*
X141030000Y-87800000D01*
X141630000Y-87369998D02*
X141460002Y-87369998D01*
%TO.N,uart1_tx*%
X157790000Y-89070000D02*
X158130000Y-89070000D01*
X156090001Y-87370001D02*
X157790000Y-89070000D01*
X155732155Y-87370001D02*
X156090001Y-87370001D01*
X154485000Y-79427683D02*
X154485000Y-82700000D01*
X155666066Y-78246617D02*
X154485000Y-79427683D01*
%TO.N,record*%
X151970000Y-78834264D02*
X151970000Y-82795736D01*
X145520000Y-75876904D02*
X147916096Y-78273000D01*
X151970000Y-82795736D02*
X148595736Y-86170000D01*
X148595736Y-86170000D02*
X145370000Y-86170000D01*
X145370000Y-86170000D02*
X142470000Y-89070000D01*
X151408736Y-78273000D02*
X151970000Y-78834264D01*
X147916096Y-78273000D02*
X151408736Y-78273000D01*
X142470000Y-89070000D02*
X140630000Y-89070000D01*
X143589443Y-71749167D02*
X145520000Y-73679724D01*
X145520000Y-73679724D02*
X145520000Y-75876904D01*
%TO.N,uart0_tx*%
X140780000Y-76220000D02*
X143170000Y-76220000D01*
X140630000Y-76370000D02*
X140780000Y-76220000D01*
%TO.N,led*%
D14*
X144147820Y-81825000D02*
X142585000Y-81825000D01*
X142585000Y-81825000D02*
X141680000Y-82730000D01*
X148366688Y-77198000D02*
X150214688Y-75350000D01*
X152370000Y-75350000D02*
X156000000Y-71720000D01*
X141680000Y-82730000D02*
X141680000Y-84740000D01*
X145435002Y-80537818D02*
X144147820Y-81825000D01*
X141680000Y-84740000D02*
X141160000Y-85260000D01*
X145435002Y-79130000D02*
X145435002Y-80537818D01*
X141160000Y-85260000D02*
X140630000Y-85260000D01*
X150214688Y-75350000D02*
X152370000Y-75350000D01*
%TO.N,uart1_rx*%
D15*
X156270000Y-87090000D02*
X156980000Y-87800000D01*
X156270000Y-86920000D02*
X156270000Y-87090000D01*
X156980000Y-87800000D02*
X158130000Y-87800000D01*
%TO.N,sd_cmd*%
X144705000Y-77805000D02*
X143395000Y-79115000D01*
X143395000Y-79115000D02*
X140835000Y-79115000D01*
X146125000Y-78405133D02*
X145524867Y-77805000D01*
X145524867Y-77805000D02*
X144705000Y-77805000D01*
X140835000Y-79115000D02*
X140630000Y-78910000D01*
%TO.N,sd_clk*%
X151100000Y-77673000D02*
X148164624Y-77673000D01*
X151110000Y-77663000D02*
X151100000Y-77673000D01*
X147435000Y-75695000D02*
X146960000Y-75220000D01*
X140750000Y-75220000D02*
X140630000Y-75100000D01*
X151110000Y-77498000D02*
X151110000Y-77663000D01*
X148164624Y-77673000D02*
X147435000Y-76943376D01*
X147435000Y-76943376D02*
X147435000Y-75695000D01*
X144040000Y-75220000D02*
X140750000Y-75220000D01*
%TO.N,sd_data*%
X151036984Y-78573000D02*
X151351992Y-78888008D01*
X140630000Y-73830000D02*
X144280000Y-73830000D01*
X144280000Y-73830000D02*
X145220000Y-74770000D01*
X145220000Y-74770000D02*
X145220000Y-76001168D01*
X147791832Y-78573000D02*
X151036984Y-78573000D01*
X145220000Y-76001168D02*
X147791832Y-78573000D01*
%TD*%
%TA.AperFunction,Conductor*%
%TO.N,GND*%
G36*
X156788269Y-85847174D02*
G01*
X157207826Y-86266731D01*
X157229500Y-86319057D01*
X157229500Y-86994819D01*
X157238233Y-87038722D01*
X157271495Y-87088503D01*
X157271497Y-87088505D01*
X157293896Y-87103472D01*
X157325361Y-87150564D01*
X157314311Y-87206113D01*
X157293896Y-87226528D01*
X157271497Y-87241494D01*
X157271495Y-87241496D01*
X157238233Y-87291277D01*
X157229500Y-87335180D01*
X157229500Y-87500500D01*
X157207826Y-87552826D01*
X157155500Y-87574500D01*
X157104057Y-87574500D01*
X157051731Y-87552826D01*
X156657751Y-87158846D01*
X156636077Y-87106520D01*
X156641710Y-87078202D01*
X156643204Y-87074593D01*
X156643204Y-87074591D01*
X156643207Y-87074587D01*
X156670500Y-86972727D01*
X156670500Y-86867273D01*
X156670500Y-86867271D01*
X156670499Y-86867270D01*
X156643208Y-86765417D01*
X156643207Y-86765413D01*
X156590480Y-86674087D01*
X156515913Y-86599520D01*
X156486827Y-86582727D01*
X156424591Y-86546795D01*
X156424582Y-86546791D01*
X156322729Y-86519500D01*
X156322727Y-86519500D01*
X156217273Y-86519500D01*
X156217271Y-86519500D01*
X156115417Y-86546791D01*
X156115408Y-86546795D01*
X156024086Y-86599520D01*
X155949520Y-86674086D01*
X155896795Y-86765408D01*
X155896791Y-86765417D01*
X155869500Y-86867270D01*
X155869500Y-86896260D01*
X155847826Y-86948586D01*
X155795500Y-86970260D01*
X155785846Y-86969628D01*
X155784882Y-86969501D01*
X155679428Y-86969501D01*
X155679426Y-86969501D01*
X155577572Y-86996792D01*
X155577563Y-86996796D01*
X155486241Y-87049521D01*
X155411675Y-87124087D01*
X155358950Y-87215409D01*
X155358946Y-87215418D01*
X155331655Y-87317271D01*
X155331655Y-87422730D01*
X155358946Y-87524583D01*
X155358947Y-87524585D01*
X155358948Y-87524588D01*
X155411675Y-87615914D01*
X155486242Y-87690481D01*
X155577568Y-87743208D01*
X155679425Y-87770500D01*
X155679426Y-87770501D01*
X155679428Y-87770501D01*
X155784884Y-87770501D01*
X155784884Y-87770500D01*
X155886742Y-87743208D01*
X155978068Y-87690481D01*
X155982496Y-87686053D01*
X156034822Y-87664379D01*
X156087148Y-87686053D01*
X157207826Y-88806731D01*
X157229500Y-88859057D01*
X157229500Y-89534820D01*
X157238233Y-89578722D01*
X157271496Y-89628504D01*
X157321278Y-89661767D01*
X157365180Y-89670500D01*
X158700500Y-89670500D01*
X158752826Y-89692174D01*
X158774500Y-89744500D01*
X158774500Y-91156361D01*
X158774144Y-91163615D01*
X158758891Y-91318476D01*
X158756061Y-91332703D01*
X158711950Y-91478118D01*
X158706398Y-91491520D01*
X158634770Y-91625526D01*
X158626711Y-91637588D01*
X158530310Y-91755052D01*
X158520052Y-91765310D01*
X158402588Y-91861711D01*
X158390526Y-91869770D01*
X158256520Y-91941398D01*
X158243118Y-91946950D01*
X158097703Y-91991061D01*
X158083476Y-91993891D01*
X157973330Y-92004739D01*
X157928613Y-92009144D01*
X157921362Y-92009500D01*
X140853638Y-92009500D01*
X140846386Y-92009144D01*
X140790988Y-92003687D01*
X140691523Y-91993891D01*
X140677296Y-91991061D01*
X140531881Y-91946950D01*
X140518479Y-91941398D01*
X140384473Y-91869770D01*
X140372411Y-91861711D01*
X140254947Y-91765310D01*
X140244689Y-91755052D01*
X140148288Y-91637588D01*
X140140229Y-91625526D01*
X140068601Y-91491520D01*
X140063049Y-91478118D01*
X140057222Y-91458909D01*
X140018937Y-91332698D01*
X140016109Y-91318480D01*
X140000856Y-91163614D01*
X140000500Y-91156361D01*
X140000500Y-89744500D01*
X140022174Y-89692174D01*
X140074500Y-89670500D01*
X141394819Y-89670500D01*
X141394820Y-89670500D01*
X141438722Y-89661767D01*
X141488504Y-89628504D01*
X141521767Y-89578722D01*
X141530500Y-89534820D01*
X141530500Y-89369500D01*
X141552174Y-89317174D01*
X141604500Y-89295500D01*
X142416525Y-89295500D01*
X142416533Y-89295501D01*
X142425145Y-89295501D01*
X142514854Y-89295501D01*
X142514855Y-89295501D01*
X142573460Y-89271225D01*
X142597736Y-89261170D01*
X142661170Y-89197736D01*
X142661170Y-89197735D01*
X142671575Y-89187330D01*
X142671576Y-89187327D01*
X143261634Y-88597270D01*
X145287000Y-88597270D01*
X145287000Y-88702729D01*
X145314291Y-88804582D01*
X145314295Y-88804591D01*
X145367020Y-88895913D01*
X145440326Y-88969219D01*
X145462000Y-89021545D01*
X145462000Y-89833881D01*
X145440326Y-89886207D01*
X145367020Y-89959512D01*
X145314295Y-90050834D01*
X145314291Y-90050843D01*
X145287000Y-90152696D01*
X145287000Y-90258155D01*
X145314291Y-90360008D01*
X145314295Y-90360017D01*
X145332027Y-90390729D01*
X145367020Y-90451339D01*
X145441587Y-90525906D01*
X145532913Y-90578633D01*
X145634770Y-90605925D01*
X145634771Y-90605926D01*
X145634773Y-90605926D01*
X145740229Y-90605926D01*
X145740229Y-90605925D01*
X145842087Y-90578633D01*
X145933413Y-90525906D01*
X146007980Y-90451339D01*
X146060707Y-90360013D01*
X146087999Y-90258155D01*
X146088000Y-90258155D01*
X146088000Y-90152697D01*
X146087999Y-90152696D01*
X146068938Y-90081560D01*
X146060707Y-90050839D01*
X146007980Y-89959513D01*
X145934674Y-89886207D01*
X145913000Y-89833881D01*
X145913000Y-89021545D01*
X145934674Y-88969219D01*
X145940771Y-88963122D01*
X146007980Y-88895913D01*
X146060707Y-88804587D01*
X146087999Y-88702729D01*
X146088000Y-88702729D01*
X146088000Y-88597271D01*
X146087999Y-88597270D01*
X146060708Y-88495417D01*
X146060707Y-88495413D01*
X146007980Y-88404087D01*
X145933413Y-88329520D01*
X145897390Y-88308722D01*
X145842091Y-88276795D01*
X145842082Y-88276791D01*
X145740229Y-88249500D01*
X145740227Y-88249500D01*
X145634773Y-88249500D01*
X145634771Y-88249500D01*
X145532917Y-88276791D01*
X145532908Y-88276795D01*
X145441586Y-88329520D01*
X145367020Y-88404086D01*
X145314295Y-88495408D01*
X145314291Y-88495417D01*
X145287000Y-88597270D01*
X143261634Y-88597270D01*
X145441732Y-86417174D01*
X145494058Y-86395500D01*
X148412999Y-86395500D01*
X148434672Y-86404477D01*
X148465324Y-86417173D01*
X148465325Y-86417174D01*
X148486999Y-86469499D01*
X148486999Y-86522355D01*
X148486999Y-86522356D01*
X148487000Y-86530971D01*
X148487000Y-90351350D01*
X148486999Y-90351364D01*
X148486999Y-90447031D01*
X148504489Y-90489255D01*
X148521329Y-90529912D01*
X148595171Y-90603754D01*
X148595173Y-90603755D01*
X148799577Y-90808159D01*
X148799578Y-90808161D01*
X148863012Y-90871595D01*
X148887287Y-90881650D01*
X148945893Y-90905926D01*
X148945894Y-90905926D01*
X149044215Y-90905926D01*
X149044223Y-90905925D01*
X149330777Y-90905925D01*
X149330785Y-90905926D01*
X149339397Y-90905926D01*
X149429106Y-90905926D01*
X149429107Y-90905926D01*
X149487712Y-90881650D01*
X149511988Y-90871595D01*
X149575422Y-90808161D01*
X149575422Y-90808160D01*
X149585827Y-90797755D01*
X149585829Y-90797752D01*
X149792734Y-90590847D01*
X149792736Y-90590847D01*
X149821615Y-90561967D01*
X149847006Y-90551450D01*
X149873938Y-90540295D01*
X149873941Y-90540295D01*
X149873946Y-90540297D01*
X149910937Y-90550208D01*
X149985413Y-90593207D01*
X150087270Y-90620499D01*
X150087271Y-90620500D01*
X150087273Y-90620500D01*
X150192729Y-90620500D01*
X150192729Y-90620499D01*
X150294587Y-90593207D01*
X150385913Y-90540480D01*
X150460480Y-90465913D01*
X150513207Y-90374587D01*
X150540499Y-90272729D01*
X150540500Y-90272729D01*
X150540500Y-90167271D01*
X150540499Y-90167270D01*
X150517533Y-90081560D01*
X150513207Y-90065413D01*
X150460480Y-89974087D01*
X150387174Y-89900781D01*
X150365500Y-89848455D01*
X150365500Y-88807001D01*
X150387174Y-88754675D01*
X150785321Y-88356528D01*
X150837647Y-88334854D01*
X150889973Y-88356528D01*
X150911647Y-88408854D01*
X150911647Y-89864602D01*
X150889973Y-89916928D01*
X150816667Y-89990233D01*
X150763942Y-90081555D01*
X150763938Y-90081564D01*
X150736647Y-90183417D01*
X150736647Y-90288876D01*
X150763938Y-90390729D01*
X150763942Y-90390738D01*
X150816667Y-90482060D01*
X150891234Y-90556627D01*
X150982560Y-90609354D01*
X151084417Y-90636646D01*
X151084418Y-90636647D01*
X151084420Y-90636647D01*
X151189876Y-90636647D01*
X151189876Y-90636646D01*
X151291734Y-90609354D01*
X151383060Y-90556627D01*
X151457627Y-90482060D01*
X151510354Y-90390734D01*
X151537647Y-90288874D01*
X151537647Y-90288868D01*
X151538280Y-90284067D01*
X151540618Y-90284374D01*
X151559321Y-90239223D01*
X151611647Y-90217549D01*
X151665802Y-90217549D01*
X151718128Y-90239223D01*
X151735546Y-90274542D01*
X151737494Y-90274021D01*
X151766041Y-90380561D01*
X151766045Y-90380570D01*
X151804417Y-90447032D01*
X151818770Y-90471892D01*
X151893337Y-90546459D01*
X151984663Y-90599186D01*
X152086520Y-90626478D01*
X152086521Y-90626479D01*
X152086523Y-90626479D01*
X152191979Y-90626479D01*
X152191979Y-90626478D01*
X152293837Y-90599186D01*
X152385163Y-90546459D01*
X152459730Y-90471892D01*
X152512457Y-90380566D01*
X152539750Y-90278706D01*
X152539750Y-90278700D01*
X152540383Y-90273899D01*
X152542569Y-90274186D01*
X152561424Y-90228668D01*
X152613750Y-90206994D01*
X152661761Y-90206994D01*
X152714087Y-90228668D01*
X152735128Y-90271336D01*
X152735514Y-90274270D01*
X152762805Y-90376122D01*
X152762809Y-90376131D01*
X152803743Y-90447031D01*
X152815534Y-90467453D01*
X152890101Y-90542020D01*
X152981427Y-90594747D01*
X153083284Y-90622039D01*
X153083285Y-90622040D01*
X153083287Y-90622040D01*
X153188743Y-90622040D01*
X153188743Y-90622039D01*
X153290601Y-90594747D01*
X153381927Y-90542020D01*
X153456494Y-90467453D01*
X153509221Y-90376127D01*
X153536514Y-90274267D01*
X153536514Y-90274262D01*
X153536722Y-90272688D01*
X153537124Y-90271990D01*
X153537770Y-90269582D01*
X153538415Y-90269754D01*
X153548640Y-90252045D01*
X153557763Y-90230021D01*
X153562485Y-90228064D01*
X153565041Y-90223639D01*
X153610089Y-90208347D01*
X153666128Y-90208347D01*
X153718454Y-90230021D01*
X153737323Y-90268288D01*
X153738244Y-90268042D01*
X153739483Y-90272669D01*
X153739495Y-90272692D01*
X153739499Y-90272728D01*
X153766791Y-90374582D01*
X153766795Y-90374591D01*
X153776115Y-90390734D01*
X153819520Y-90465913D01*
X153894087Y-90540480D01*
X153985413Y-90593207D01*
X154087270Y-90620499D01*
X154087271Y-90620500D01*
X154087273Y-90620500D01*
X154192729Y-90620500D01*
X154192729Y-90620499D01*
X154294587Y-90593207D01*
X154385913Y-90540480D01*
X154460480Y-90465913D01*
X154513207Y-90374587D01*
X154540499Y-90272729D01*
X154540500Y-90272729D01*
X154540500Y-90167271D01*
X154540499Y-90167270D01*
X154517533Y-90081560D01*
X154513207Y-90065413D01*
X154460480Y-89974087D01*
X154387174Y-89900781D01*
X154365500Y-89848455D01*
X154365500Y-87776849D01*
X154387174Y-87724523D01*
X156264524Y-85847174D01*
X156316850Y-85825500D01*
X156735943Y-85825500D01*
X156788269Y-85847174D01*
G37*
%TD.AperFunction*%
%TA.AperFunction,Conductor*%
G36*
X142225360Y-70507174D02*
G01*
X142247034Y-70559500D01*
X142225360Y-70611826D01*
X142199500Y-70637685D01*
X142133610Y-70751809D01*
X142133606Y-70751818D01*
X142099500Y-70879105D01*
X142099500Y-71010894D01*
X142133606Y-71138181D01*
X142133610Y-71138190D01*
X142189125Y-71234344D01*
X142199500Y-71252314D01*
X142292686Y-71345500D01*
X142406814Y-71411392D01*
X142534105Y-71445499D01*
X142534106Y-71445500D01*
X142534108Y-71445500D01*
X142665894Y-71445500D01*
X142665894Y-71445499D01*
X142793186Y-71411392D01*
X142907314Y-71345500D01*
X143000500Y-71252314D01*
X143066392Y-71138186D01*
X143100499Y-71010894D01*
X143100500Y-71010894D01*
X143100500Y-70879106D01*
X143100499Y-70879105D01*
X143066393Y-70751818D01*
X143066392Y-70751814D01*
X143000500Y-70637686D01*
X142974640Y-70611826D01*
X142952966Y-70559500D01*
X142974640Y-70507174D01*
X143026966Y-70485500D01*
X145975500Y-70485500D01*
X146027826Y-70507174D01*
X146049500Y-70559500D01*
X146049500Y-71884820D01*
X146058233Y-71928722D01*
X146091496Y-71978504D01*
X146141278Y-72011767D01*
X146185180Y-72020500D01*
X146185181Y-72020500D01*
X147114819Y-72020500D01*
X147114820Y-72020500D01*
X147158722Y-72011767D01*
X147208504Y-71978504D01*
X147241767Y-71928722D01*
X147250500Y-71884820D01*
X147250500Y-70559500D01*
X147272174Y-70507174D01*
X147324500Y-70485500D01*
X157890905Y-70485500D01*
X157921617Y-70485500D01*
X157928869Y-70485855D01*
X158083735Y-70501109D01*
X158097953Y-70503937D01*
X158231673Y-70544500D01*
X158243373Y-70548049D01*
X158256775Y-70553601D01*
X158390781Y-70625229D01*
X158402843Y-70633288D01*
X158520307Y-70729689D01*
X158530565Y-70739947D01*
X158626966Y-70857411D01*
X158635025Y-70869473D01*
X158706653Y-71003479D01*
X158712205Y-71016881D01*
X158756316Y-71162296D01*
X158759146Y-71176523D01*
X158773228Y-71319500D01*
X158774144Y-71328794D01*
X158774500Y-71336048D01*
X158774500Y-73155500D01*
X158752826Y-73207826D01*
X158700500Y-73229500D01*
X157365180Y-73229500D01*
X157343229Y-73233866D01*
X157321277Y-73238233D01*
X157271496Y-73271495D01*
X157271495Y-73271496D01*
X157238233Y-73321277D01*
X157229500Y-73365180D01*
X157229500Y-73455500D01*
X157207826Y-73507826D01*
X157155500Y-73529500D01*
X155948597Y-73529500D01*
X155896271Y-73507826D01*
X155877119Y-73474653D01*
X155853208Y-73385417D01*
X155853207Y-73385413D01*
X155800480Y-73294087D01*
X155725913Y-73219520D01*
X155647955Y-73174511D01*
X155634591Y-73166795D01*
X155634582Y-73166791D01*
X155532729Y-73139500D01*
X155532727Y-73139500D01*
X155427273Y-73139500D01*
X155427271Y-73139500D01*
X155325417Y-73166791D01*
X155325408Y-73166795D01*
X155234086Y-73219520D01*
X155159520Y-73294086D01*
X155106795Y-73385408D01*
X155106791Y-73385417D01*
X155079500Y-73487270D01*
X155079500Y-73592729D01*
X155106791Y-73694582D01*
X155106795Y-73694591D01*
X155139626Y-73751455D01*
X155159520Y-73785913D01*
X155234087Y-73860480D01*
X155325413Y-73913207D01*
X155427273Y-73940500D01*
X155427278Y-73940500D01*
X155432080Y-73941133D01*
X155431786Y-73943362D01*
X155477203Y-73962174D01*
X155529540Y-74014511D01*
X155585489Y-74070460D01*
X155654011Y-74110021D01*
X155654012Y-74110021D01*
X155654014Y-74110022D01*
X155692224Y-74120260D01*
X155730435Y-74130499D01*
X155730436Y-74130500D01*
X155730438Y-74130500D01*
X155809562Y-74130500D01*
X157155500Y-74130500D01*
X157207826Y-74152174D01*
X157229500Y-74204500D01*
X157229500Y-74294819D01*
X157238233Y-74338722D01*
X157271495Y-74388503D01*
X157271497Y-74388505D01*
X157293896Y-74403472D01*
X157325361Y-74450564D01*
X157314311Y-74506113D01*
X157293896Y-74526528D01*
X157271497Y-74541494D01*
X157271495Y-74541496D01*
X157238233Y-74591277D01*
X157229500Y-74635180D01*
X157229500Y-75154877D01*
X157207826Y-75207203D01*
X156239540Y-76175488D01*
X156199979Y-76244009D01*
X156199977Y-76244014D01*
X156179500Y-76320435D01*
X156179500Y-78058738D01*
X156157826Y-78111064D01*
X156105500Y-78132738D01*
X156053174Y-78111064D01*
X156041414Y-78095738D01*
X156004571Y-78031924D01*
X155986546Y-78000704D01*
X155911979Y-77926137D01*
X155842361Y-77885943D01*
X155820657Y-77873412D01*
X155820648Y-77873408D01*
X155718795Y-77846117D01*
X155718793Y-77846117D01*
X155613339Y-77846117D01*
X155613337Y-77846117D01*
X155511483Y-77873408D01*
X155511474Y-77873412D01*
X155420152Y-77926137D01*
X155345586Y-78000703D01*
X155292861Y-78092025D01*
X155292857Y-78092034D01*
X155265566Y-78193887D01*
X155265566Y-78297559D01*
X155243892Y-78349885D01*
X154293830Y-79299946D01*
X154283774Y-79324219D01*
X154283774Y-79324222D01*
X154260203Y-79381130D01*
X154259499Y-79382829D01*
X154259499Y-79481149D01*
X154259500Y-79481158D01*
X154259500Y-82328455D01*
X154237826Y-82380781D01*
X154164520Y-82454086D01*
X154111795Y-82545408D01*
X154111791Y-82545417D01*
X154084500Y-82647270D01*
X154084500Y-82752729D01*
X154111791Y-82854582D01*
X154111792Y-82854585D01*
X154111793Y-82854587D01*
X154164520Y-82945913D01*
X154239087Y-83020480D01*
X154330413Y-83073207D01*
X154432270Y-83100499D01*
X154432271Y-83100500D01*
X154432273Y-83100500D01*
X154537729Y-83100500D01*
X154537729Y-83100499D01*
X154639587Y-83073207D01*
X154730913Y-83020480D01*
X154805480Y-82945913D01*
X154858207Y-82854587D01*
X154885499Y-82752729D01*
X154885500Y-82752729D01*
X154885500Y-82647271D01*
X154885499Y-82647270D01*
X154858208Y-82545417D01*
X154858207Y-82545413D01*
X154805480Y-82454087D01*
X154732174Y-82380781D01*
X154710500Y-82328455D01*
X154710500Y-79551739D01*
X154732173Y-79499414D01*
X155562796Y-78668790D01*
X155615122Y-78647117D01*
X155718795Y-78647117D01*
X155718795Y-78647116D01*
X155820653Y-78619824D01*
X155911979Y-78567097D01*
X155986546Y-78492530D01*
X156039273Y-78401204D01*
X156039273Y-78401202D01*
X156041414Y-78397495D01*
X156086347Y-78363017D01*
X156142500Y-78370409D01*
X156176978Y-78415342D01*
X156179500Y-78434495D01*
X156179500Y-78646019D01*
X156157826Y-78698345D01*
X155239540Y-79616630D01*
X155199979Y-79685151D01*
X155199977Y-79685156D01*
X155179500Y-79761577D01*
X155179500Y-81373455D01*
X155160688Y-81418869D01*
X155162473Y-81420238D01*
X155159521Y-81424084D01*
X155106795Y-81515408D01*
X155106791Y-81515417D01*
X155079500Y-81617270D01*
X155079500Y-81722729D01*
X155106791Y-81824582D01*
X155106792Y-81824585D01*
X155106793Y-81824587D01*
X155159520Y-81915913D01*
X155234087Y-81990480D01*
X155325413Y-82043207D01*
X155427270Y-82070499D01*
X155427271Y-82070500D01*
X155427273Y-82070500D01*
X155532729Y-82070500D01*
X155532729Y-82070499D01*
X155634587Y-82043207D01*
X155634588Y-82043206D01*
X155636347Y-82042735D01*
X155692500Y-82050127D01*
X155726978Y-82095060D01*
X155729500Y-82114213D01*
X155729500Y-82319622D01*
X155707826Y-82371948D01*
X149064326Y-89015448D01*
X149012000Y-89037122D01*
X148959674Y-89015448D01*
X148938000Y-88963122D01*
X148938000Y-86601556D01*
X148959673Y-86549231D01*
X152387327Y-83121576D01*
X152387330Y-83121575D01*
X152397735Y-83111170D01*
X152397736Y-83111170D01*
X152461170Y-83047736D01*
X152480736Y-83000500D01*
X152495501Y-82964854D01*
X152495501Y-82875145D01*
X152495501Y-82869187D01*
X152495500Y-82869173D01*
X152495500Y-78665145D01*
X152495499Y-78665143D01*
X152485505Y-78641016D01*
X152461170Y-78582264D01*
X152397736Y-78518830D01*
X152397735Y-78518829D01*
X151734578Y-77855672D01*
X151660735Y-77781829D01*
X151631556Y-77769743D01*
X151631554Y-77769742D01*
X151626710Y-77767736D01*
X151577855Y-77747499D01*
X151544870Y-77747499D01*
X151535821Y-77745177D01*
X151520075Y-77733358D01*
X151501888Y-77725825D01*
X151498210Y-77716946D01*
X151490524Y-77711177D01*
X151487747Y-77691686D01*
X151480214Y-77673499D01*
X151482587Y-77655467D01*
X151482536Y-77655106D01*
X151482656Y-77654946D01*
X151482735Y-77654346D01*
X151483205Y-77652589D01*
X151483207Y-77652587D01*
X151510500Y-77550727D01*
X151510500Y-77445273D01*
X151510500Y-77445271D01*
X151510499Y-77445270D01*
X151510135Y-77443913D01*
X151483207Y-77343413D01*
X151430480Y-77252087D01*
X151355913Y-77177520D01*
X151318049Y-77155659D01*
X151264591Y-77124795D01*
X151264582Y-77124791D01*
X151162729Y-77097500D01*
X151162727Y-77097500D01*
X151057273Y-77097500D01*
X151057271Y-77097500D01*
X150955417Y-77124791D01*
X150955408Y-77124795D01*
X150864086Y-77177520D01*
X150789520Y-77252086D01*
X150736795Y-77343408D01*
X150736791Y-77343417D01*
X150723599Y-77392653D01*
X150689121Y-77437586D01*
X150652121Y-77447500D01*
X148810901Y-77447500D01*
X148802181Y-77443888D01*
X148792845Y-77445263D01*
X148776914Y-77433422D01*
X148758575Y-77425826D01*
X148754963Y-77417106D01*
X148747389Y-77411477D01*
X148744728Y-77392397D01*
X148736901Y-77373500D01*
X148739138Y-77355444D01*
X148739827Y-77352704D01*
X148739895Y-77352587D01*
X148767188Y-77250727D01*
X148767188Y-77243958D01*
X148769425Y-77235067D01*
X148781265Y-77219136D01*
X148788862Y-77200797D01*
X150317485Y-75672174D01*
X150369811Y-75650500D01*
X152409564Y-75650500D01*
X152409564Y-75650499D01*
X152485989Y-75630021D01*
X152554511Y-75590460D01*
X152610460Y-75534511D01*
X156002797Y-72142174D01*
X156048213Y-72123362D01*
X156047920Y-72121133D01*
X156052721Y-72120500D01*
X156052727Y-72120500D01*
X156154587Y-72093207D01*
X156245913Y-72040480D01*
X156320480Y-71965913D01*
X156373207Y-71874587D01*
X156400499Y-71772729D01*
X156400500Y-71772729D01*
X156400500Y-71667271D01*
X156400499Y-71667270D01*
X156373208Y-71565417D01*
X156373207Y-71565413D01*
X156320480Y-71474087D01*
X156245913Y-71399520D01*
X156154591Y-71346795D01*
X156154582Y-71346791D01*
X156052729Y-71319500D01*
X156052727Y-71319500D01*
X155947273Y-71319500D01*
X155947271Y-71319500D01*
X155845417Y-71346791D01*
X155845408Y-71346795D01*
X155754086Y-71399520D01*
X155679520Y-71474086D01*
X155626795Y-71565408D01*
X155626791Y-71565417D01*
X155599500Y-71667270D01*
X155598867Y-71672080D01*
X155596637Y-71671786D01*
X155577826Y-71717203D01*
X152267203Y-75027826D01*
X152214877Y-75049500D01*
X150254250Y-75049500D01*
X150175126Y-75049500D01*
X150098700Y-75069978D01*
X150098699Y-75069978D01*
X150098697Y-75069979D01*
X150098695Y-75069980D01*
X150030180Y-75109537D01*
X148363891Y-76775826D01*
X148318474Y-76794637D01*
X148318768Y-76796867D01*
X148313958Y-76797500D01*
X148212105Y-76824791D01*
X148212096Y-76824795D01*
X148120774Y-76877520D01*
X148046208Y-76952086D01*
X147991056Y-77047613D01*
X147988588Y-77046188D01*
X147954888Y-77079834D01*
X147898251Y-77079788D01*
X147874299Y-77063770D01*
X147682174Y-76871645D01*
X147660500Y-76819319D01*
X147660500Y-75650145D01*
X147660499Y-75650143D01*
X147626171Y-75567266D01*
X147626169Y-75567263D01*
X147382174Y-75323268D01*
X147360500Y-75270942D01*
X147360500Y-75167271D01*
X147360499Y-75167270D01*
X147357178Y-75154877D01*
X147333207Y-75065413D01*
X147280480Y-74974087D01*
X147205913Y-74899520D01*
X147143360Y-74863405D01*
X147114591Y-74846795D01*
X147114582Y-74846791D01*
X147012729Y-74819500D01*
X147012727Y-74819500D01*
X146907273Y-74819500D01*
X146907271Y-74819500D01*
X146805417Y-74846791D01*
X146805408Y-74846795D01*
X146714086Y-74899520D01*
X146639520Y-74974086D01*
X146586795Y-75065408D01*
X146586791Y-75065417D01*
X146559500Y-75167270D01*
X146559500Y-75272729D01*
X146586791Y-75374582D01*
X146586795Y-75374591D01*
X146639520Y-75465913D01*
X146701281Y-75527674D01*
X146722955Y-75580000D01*
X146701281Y-75632326D01*
X146639520Y-75694086D01*
X146586795Y-75785408D01*
X146586791Y-75785417D01*
X146559500Y-75887270D01*
X146559500Y-75992729D01*
X146586791Y-76094582D01*
X146586795Y-76094591D01*
X146639520Y-76185913D01*
X146712826Y-76259219D01*
X146734500Y-76311545D01*
X146734500Y-76593846D01*
X146712826Y-76646172D01*
X146660500Y-76667846D01*
X146608174Y-76646172D01*
X145767174Y-75805172D01*
X145745500Y-75752846D01*
X145745500Y-73733199D01*
X145745501Y-73733190D01*
X145745501Y-73634868D01*
X145730704Y-73599148D01*
X145711170Y-73551989D01*
X145711170Y-73551988D01*
X145647736Y-73488554D01*
X145647734Y-73488553D01*
X145096451Y-72937270D01*
X150249500Y-72937270D01*
X150249500Y-73042729D01*
X150276791Y-73144582D01*
X150276795Y-73144591D01*
X150325817Y-73229500D01*
X150329520Y-73235913D01*
X150404087Y-73310480D01*
X150495413Y-73363207D01*
X150597270Y-73390499D01*
X150597271Y-73390500D01*
X150597273Y-73390500D01*
X150702729Y-73390500D01*
X150702729Y-73390499D01*
X150804587Y-73363207D01*
X150895913Y-73310480D01*
X150895915Y-73310478D01*
X150899762Y-73307527D01*
X150901130Y-73309311D01*
X150946545Y-73290500D01*
X153179564Y-73290500D01*
X153179564Y-73290499D01*
X153255989Y-73270021D01*
X153324511Y-73230460D01*
X153380460Y-73174511D01*
X154242797Y-72312174D01*
X154288213Y-72293362D01*
X154287920Y-72291133D01*
X154292721Y-72290500D01*
X154292727Y-72290500D01*
X154394587Y-72263207D01*
X154485913Y-72210480D01*
X154560480Y-72135913D01*
X154613207Y-72044587D01*
X154640499Y-71942729D01*
X154640500Y-71942729D01*
X154640500Y-71837271D01*
X154640499Y-71837270D01*
X154637120Y-71824661D01*
X154613207Y-71735413D01*
X154560480Y-71644087D01*
X154485913Y-71569520D01*
X154478791Y-71565408D01*
X154394591Y-71516795D01*
X154394582Y-71516791D01*
X154292729Y-71489500D01*
X154292727Y-71489500D01*
X154187273Y-71489500D01*
X154187271Y-71489500D01*
X154085417Y-71516791D01*
X154085408Y-71516795D01*
X153994086Y-71569520D01*
X153919520Y-71644086D01*
X153866795Y-71735408D01*
X153866791Y-71735417D01*
X153839500Y-71837270D01*
X153838867Y-71842080D01*
X153836637Y-71841786D01*
X153817826Y-71887203D01*
X153037203Y-72667826D01*
X152984877Y-72689500D01*
X150946545Y-72689500D01*
X150901130Y-72670688D01*
X150899762Y-72672473D01*
X150895915Y-72669521D01*
X150804591Y-72616795D01*
X150804582Y-72616791D01*
X150702729Y-72589500D01*
X150702727Y-72589500D01*
X150597273Y-72589500D01*
X150597271Y-72589500D01*
X150495417Y-72616791D01*
X150495408Y-72616795D01*
X150404086Y-72669520D01*
X150329520Y-72744086D01*
X150276795Y-72835408D01*
X150276791Y-72835417D01*
X150249500Y-72937270D01*
X145096451Y-72937270D01*
X144011617Y-71852436D01*
X143989943Y-71800110D01*
X143989943Y-71696438D01*
X143989942Y-71696437D01*
X143962651Y-71594584D01*
X143962650Y-71594580D01*
X143909923Y-71503254D01*
X143835356Y-71428687D01*
X143784837Y-71399520D01*
X143744034Y-71375962D01*
X143744025Y-71375958D01*
X143642172Y-71348667D01*
X143642170Y-71348667D01*
X143536716Y-71348667D01*
X143536714Y-71348667D01*
X143434860Y-71375958D01*
X143434851Y-71375962D01*
X143343529Y-71428687D01*
X143268963Y-71503253D01*
X143216238Y-71594575D01*
X143216234Y-71594584D01*
X143188943Y-71696437D01*
X143188943Y-71801896D01*
X143216234Y-71903749D01*
X143216235Y-71903752D01*
X143216236Y-71903754D01*
X143268963Y-71995080D01*
X143343530Y-72069647D01*
X143434856Y-72122374D01*
X143536713Y-72149666D01*
X143536714Y-72149667D01*
X143640386Y-72149667D01*
X143692712Y-72171341D01*
X145272826Y-73751455D01*
X145294500Y-73803781D01*
X145294500Y-74346943D01*
X145272826Y-74399269D01*
X145220500Y-74420943D01*
X145168174Y-74399269D01*
X144481578Y-73712673D01*
X144481578Y-73712672D01*
X144407738Y-73638832D01*
X144407736Y-73638830D01*
X144398172Y-73634868D01*
X144383458Y-73628773D01*
X144383458Y-73628772D01*
X144324855Y-73604499D01*
X144235145Y-73604499D01*
X144226533Y-73604499D01*
X144226525Y-73604500D01*
X141604500Y-73604500D01*
X141552174Y-73582826D01*
X141530500Y-73530500D01*
X141530500Y-73365180D01*
X141530108Y-73363208D01*
X141521767Y-73321278D01*
X141488504Y-73271496D01*
X141486296Y-73270021D01*
X141438722Y-73238233D01*
X141427059Y-73235913D01*
X141394820Y-73229500D01*
X141394819Y-73229500D01*
X140074500Y-73229500D01*
X140022174Y-73207826D01*
X140000500Y-73155500D01*
X140000500Y-72679105D01*
X142099500Y-72679105D01*
X142099500Y-72810894D01*
X142133606Y-72938181D01*
X142133607Y-72938184D01*
X142133608Y-72938186D01*
X142199500Y-73052314D01*
X142292686Y-73145500D01*
X142406814Y-73211392D01*
X142534105Y-73245499D01*
X142534106Y-73245500D01*
X142534108Y-73245500D01*
X142665894Y-73245500D01*
X142665894Y-73245499D01*
X142793186Y-73211392D01*
X142907314Y-73145500D01*
X143000500Y-73052314D01*
X143066392Y-72938186D01*
X143100499Y-72810894D01*
X143100500Y-72810894D01*
X143100500Y-72679106D01*
X143100499Y-72679105D01*
X143066393Y-72551818D01*
X143066392Y-72551814D01*
X143000500Y-72437686D01*
X142907314Y-72344500D01*
X142814880Y-72291133D01*
X142793190Y-72278610D01*
X142793181Y-72278606D01*
X142665894Y-72244500D01*
X142665892Y-72244500D01*
X142534108Y-72244500D01*
X142534106Y-72244500D01*
X142406818Y-72278606D01*
X142406809Y-72278610D01*
X142292685Y-72344500D01*
X142199500Y-72437685D01*
X142133610Y-72551809D01*
X142133606Y-72551818D01*
X142099500Y-72679105D01*
X140000500Y-72679105D01*
X140000500Y-71338638D01*
X140000856Y-71331385D01*
X140008644Y-71252314D01*
X140016109Y-71176517D01*
X140018936Y-71162303D01*
X140063050Y-71016877D01*
X140068601Y-71003479D01*
X140140229Y-70869473D01*
X140148288Y-70857411D01*
X140244689Y-70739947D01*
X140254947Y-70729689D01*
X140372411Y-70633288D01*
X140384473Y-70625229D01*
X140409548Y-70611826D01*
X140518482Y-70553599D01*
X140531877Y-70548050D01*
X140677303Y-70503936D01*
X140691517Y-70501109D01*
X140846385Y-70485855D01*
X140853638Y-70485500D01*
X140884350Y-70485500D01*
X142173034Y-70485500D01*
X142225360Y-70507174D01*
G37*
%TD.AperFunction*%
%TA.AperFunction,Conductor*%
G36*
X144208269Y-74077174D02*
G01*
X144972826Y-74841731D01*
X144994500Y-74894057D01*
X144994500Y-75950341D01*
X144994499Y-75950355D01*
X144994499Y-75956313D01*
X144994499Y-76046023D01*
X145017853Y-76102404D01*
X145028830Y-76128904D01*
X145092264Y-76192338D01*
X145102671Y-76202745D01*
X145102673Y-76202746D01*
X147596441Y-78696514D01*
X147596444Y-78696518D01*
X147600662Y-78700736D01*
X147664096Y-78764170D01*
X147698306Y-78778340D01*
X147746978Y-78798501D01*
X147746979Y-78798501D01*
X147845299Y-78798501D01*
X147845307Y-78798500D01*
X150877492Y-78798500D01*
X150929818Y-78820174D01*
X150951492Y-78872500D01*
X150951492Y-78940737D01*
X150978783Y-79042590D01*
X150978787Y-79042599D01*
X150998805Y-79077271D01*
X151031512Y-79133921D01*
X151106079Y-79208488D01*
X151197405Y-79261215D01*
X151299262Y-79288507D01*
X151299263Y-79288508D01*
X151299265Y-79288508D01*
X151404721Y-79288508D01*
X151404721Y-79288507D01*
X151506579Y-79261215D01*
X151597905Y-79208488D01*
X151618174Y-79188219D01*
X151670500Y-79166545D01*
X151722826Y-79188219D01*
X151744500Y-79240545D01*
X151744500Y-82671679D01*
X151722826Y-82724005D01*
X148524005Y-85922826D01*
X148471679Y-85944500D01*
X145325145Y-85944500D01*
X145242266Y-85978828D01*
X145242263Y-85978830D01*
X142398269Y-88822826D01*
X142345943Y-88844500D01*
X141604500Y-88844500D01*
X141552174Y-88822826D01*
X141530500Y-88770500D01*
X141530500Y-88605180D01*
X141528927Y-88597271D01*
X141521767Y-88561278D01*
X141488504Y-88511496D01*
X141466103Y-88496528D01*
X141434638Y-88449437D01*
X141445687Y-88393888D01*
X141466104Y-88373471D01*
X141488504Y-88358504D01*
X141521767Y-88308722D01*
X141530500Y-88264820D01*
X141530500Y-87844498D01*
X141552174Y-87792172D01*
X141604500Y-87770498D01*
X141682729Y-87770498D01*
X141682729Y-87770497D01*
X141784587Y-87743205D01*
X141875913Y-87690478D01*
X141950480Y-87615911D01*
X142003207Y-87524585D01*
X142030499Y-87422727D01*
X142030500Y-87422727D01*
X142030500Y-87317269D01*
X142030499Y-87317268D01*
X142003208Y-87215415D01*
X142003208Y-87215414D01*
X142003207Y-87215411D01*
X141950480Y-87124085D01*
X141875913Y-87049518D01*
X141814540Y-87014084D01*
X141780062Y-86969152D01*
X141787455Y-86912999D01*
X141814541Y-86885913D01*
X141875913Y-86850480D01*
X141950480Y-86775913D01*
X142003207Y-86684587D01*
X142030499Y-86582729D01*
X142030500Y-86582729D01*
X142030500Y-86477271D01*
X142030499Y-86477270D01*
X142010994Y-86404477D01*
X142003207Y-86375413D01*
X141950480Y-86284087D01*
X141875913Y-86209520D01*
X141784591Y-86156795D01*
X141784582Y-86156791D01*
X141682729Y-86129500D01*
X141682727Y-86129500D01*
X141603904Y-86129500D01*
X141551578Y-86107826D01*
X141532939Y-86068400D01*
X141531209Y-86068745D01*
X141530500Y-86065180D01*
X141521767Y-86021278D01*
X141488504Y-85971496D01*
X141466103Y-85956528D01*
X141434638Y-85909437D01*
X141445687Y-85853888D01*
X141466104Y-85833471D01*
X141488504Y-85818504D01*
X141521767Y-85768722D01*
X141530500Y-85724820D01*
X141530500Y-85345123D01*
X141552174Y-85292797D01*
X141729471Y-85115500D01*
X141920460Y-84924511D01*
X141960021Y-84855989D01*
X141980499Y-84779564D01*
X141980500Y-84779564D01*
X141980500Y-82885123D01*
X142002174Y-82832797D01*
X142687797Y-82147174D01*
X142740123Y-82125500D01*
X144187384Y-82125500D01*
X144187384Y-82125499D01*
X144263809Y-82105021D01*
X144332331Y-82065460D01*
X144388280Y-82009511D01*
X145675462Y-80722329D01*
X145694865Y-80688722D01*
X145715023Y-80653807D01*
X145735501Y-80577382D01*
X145735502Y-80577382D01*
X145735502Y-79426545D01*
X145754313Y-79381130D01*
X145752529Y-79379762D01*
X145755480Y-79375915D01*
X145755482Y-79375913D01*
X145808209Y-79284587D01*
X145835501Y-79182729D01*
X145835502Y-79182729D01*
X145835502Y-79077271D01*
X145835501Y-79077270D01*
X145808210Y-78975417D01*
X145808209Y-78975413D01*
X145755482Y-78884087D01*
X145680915Y-78809520D01*
X145674181Y-78805632D01*
X145589593Y-78756795D01*
X145589584Y-78756791D01*
X145487731Y-78729500D01*
X145487729Y-78729500D01*
X145382275Y-78729500D01*
X145382273Y-78729500D01*
X145280419Y-78756791D01*
X145280410Y-78756795D01*
X145189088Y-78809520D01*
X145114522Y-78884086D01*
X145061797Y-78975408D01*
X145061793Y-78975417D01*
X145034502Y-79077270D01*
X145034502Y-79182729D01*
X145061793Y-79284582D01*
X145061797Y-79284591D01*
X145114523Y-79375915D01*
X145117475Y-79379762D01*
X145115690Y-79381130D01*
X145134502Y-79426545D01*
X145134502Y-80382695D01*
X145112828Y-80435021D01*
X145010530Y-80537318D01*
X144958204Y-80558992D01*
X144905878Y-80537318D01*
X144894118Y-80521992D01*
X144864523Y-80470734D01*
X144840480Y-80429089D01*
X144765913Y-80354522D01*
X144759714Y-80350943D01*
X144674591Y-80301797D01*
X144674582Y-80301793D01*
X144572729Y-80274502D01*
X144572727Y-80274502D01*
X144467273Y-80274502D01*
X144467271Y-80274502D01*
X144365417Y-80301793D01*
X144365408Y-80301797D01*
X144274086Y-80354522D01*
X144199520Y-80429088D01*
X144146795Y-80520410D01*
X144146791Y-80520419D01*
X144119500Y-80622272D01*
X144119500Y-80725944D01*
X144097826Y-80778270D01*
X143673271Y-81202826D01*
X143620945Y-81224500D01*
X141604500Y-81224500D01*
X141552174Y-81202826D01*
X141530500Y-81150500D01*
X141530500Y-80985180D01*
X141521767Y-80941278D01*
X141488504Y-80891496D01*
X141466103Y-80876528D01*
X141434638Y-80829437D01*
X141445687Y-80773888D01*
X141466104Y-80753471D01*
X141488504Y-80738504D01*
X141521767Y-80688722D01*
X141530500Y-80644820D01*
X141530500Y-79715180D01*
X141521767Y-79671278D01*
X141488504Y-79621496D01*
X141481221Y-79616630D01*
X141466104Y-79606529D01*
X141434638Y-79559437D01*
X141445687Y-79503888D01*
X141466104Y-79483471D01*
X141469579Y-79481149D01*
X141488504Y-79468504D01*
X141521767Y-79418722D01*
X141525479Y-79400062D01*
X141556946Y-79352970D01*
X141598057Y-79340500D01*
X143341525Y-79340500D01*
X143341533Y-79340501D01*
X143350145Y-79340501D01*
X143439854Y-79340501D01*
X143439855Y-79340501D01*
X143502599Y-79314511D01*
X143522736Y-79306170D01*
X143586170Y-79242736D01*
X143586170Y-79242735D01*
X143596575Y-79232330D01*
X143596576Y-79232327D01*
X144776731Y-78052174D01*
X144829057Y-78030500D01*
X145400810Y-78030500D01*
X145453136Y-78052174D01*
X145702826Y-78301864D01*
X145724500Y-78354190D01*
X145724500Y-78457862D01*
X145751791Y-78559715D01*
X145751795Y-78559724D01*
X145798729Y-78641016D01*
X145804520Y-78651046D01*
X145879087Y-78725613D01*
X145970413Y-78778340D01*
X146072270Y-78805632D01*
X146072271Y-78805633D01*
X146072273Y-78805633D01*
X146177729Y-78805633D01*
X146177729Y-78805632D01*
X146279587Y-78778340D01*
X146370913Y-78725613D01*
X146445480Y-78651046D01*
X146498207Y-78559720D01*
X146525499Y-78457862D01*
X146525500Y-78457862D01*
X146525500Y-78352404D01*
X146525499Y-78352403D01*
X146524824Y-78349885D01*
X146498207Y-78250546D01*
X146445480Y-78159220D01*
X146370913Y-78084653D01*
X146314658Y-78052174D01*
X146279591Y-78031928D01*
X146279582Y-78031924D01*
X146177729Y-78004633D01*
X146177727Y-78004633D01*
X146074057Y-78004633D01*
X146021731Y-77982959D01*
X145726445Y-77687673D01*
X145726445Y-77687672D01*
X145652602Y-77613829D01*
X145615593Y-77598500D01*
X145569722Y-77579499D01*
X145480012Y-77579499D01*
X145471400Y-77579499D01*
X145471392Y-77579500D01*
X144758475Y-77579500D01*
X144758467Y-77579499D01*
X144749855Y-77579499D01*
X144660146Y-77579499D01*
X144622374Y-77595145D01*
X144622373Y-77595145D01*
X144577266Y-77613828D01*
X144513829Y-77677265D01*
X143605078Y-78586015D01*
X143552752Y-78607689D01*
X143500426Y-78586015D01*
X143481275Y-78552844D01*
X143463207Y-78485413D01*
X143410480Y-78394087D01*
X143335913Y-78319520D01*
X143300967Y-78299344D01*
X143244591Y-78266795D01*
X143244582Y-78266791D01*
X143142729Y-78239500D01*
X143142727Y-78239500D01*
X143037273Y-78239500D01*
X143037271Y-78239500D01*
X142935417Y-78266791D01*
X142935408Y-78266795D01*
X142844086Y-78319520D01*
X142770781Y-78392826D01*
X142718455Y-78414500D01*
X142124057Y-78414500D01*
X142071731Y-78392826D01*
X141552174Y-77873269D01*
X141530500Y-77820943D01*
X141530500Y-77175180D01*
X141526617Y-77155659D01*
X141521767Y-77131278D01*
X141488504Y-77081496D01*
X141466103Y-77066528D01*
X141434638Y-77019437D01*
X141445687Y-76963888D01*
X141466104Y-76943471D01*
X141488504Y-76928504D01*
X141521767Y-76878722D01*
X141530500Y-76834820D01*
X141530500Y-76519500D01*
X141552174Y-76467174D01*
X141604500Y-76445500D01*
X142798455Y-76445500D01*
X142850781Y-76467174D01*
X142924087Y-76540480D01*
X143015413Y-76593207D01*
X143117270Y-76620499D01*
X143117271Y-76620500D01*
X143117273Y-76620500D01*
X143222729Y-76620500D01*
X143222729Y-76620499D01*
X143324587Y-76593207D01*
X143415913Y-76540480D01*
X143490480Y-76465913D01*
X143543207Y-76374587D01*
X143570499Y-76272729D01*
X143570500Y-76272729D01*
X143570500Y-76167271D01*
X143570499Y-76167270D01*
X143560218Y-76128902D01*
X143543207Y-76065413D01*
X143490480Y-75974087D01*
X143415913Y-75899520D01*
X143349674Y-75861277D01*
X143324591Y-75846795D01*
X143324582Y-75846791D01*
X143222729Y-75819500D01*
X143222727Y-75819500D01*
X143117273Y-75819500D01*
X143117271Y-75819500D01*
X143015417Y-75846791D01*
X143015408Y-75846795D01*
X142924086Y-75899520D01*
X142850781Y-75972826D01*
X142798455Y-75994500D01*
X141604500Y-75994500D01*
X141552174Y-75972826D01*
X141530500Y-75920500D01*
X141530500Y-75905180D01*
X141526937Y-75887270D01*
X141521767Y-75861278D01*
X141488504Y-75811496D01*
X141479039Y-75805172D01*
X141466104Y-75796529D01*
X141434638Y-75749437D01*
X141445687Y-75693888D01*
X141466104Y-75673471D01*
X141468045Y-75672174D01*
X141488504Y-75658504D01*
X141521767Y-75608722D01*
X141530500Y-75564820D01*
X141530500Y-75519500D01*
X141552174Y-75467174D01*
X141604500Y-75445500D01*
X143668455Y-75445500D01*
X143720781Y-75467174D01*
X143794087Y-75540480D01*
X143885413Y-75593207D01*
X143987270Y-75620499D01*
X143987271Y-75620500D01*
X143987273Y-75620500D01*
X144092729Y-75620500D01*
X144092729Y-75620499D01*
X144194587Y-75593207D01*
X144285913Y-75540480D01*
X144360480Y-75465913D01*
X144413207Y-75374587D01*
X144440499Y-75272729D01*
X144440500Y-75272729D01*
X144440500Y-75167271D01*
X144440499Y-75167270D01*
X144437178Y-75154877D01*
X144413207Y-75065413D01*
X144360480Y-74974087D01*
X144285913Y-74899520D01*
X144223360Y-74863405D01*
X144194591Y-74846795D01*
X144194582Y-74846791D01*
X144092729Y-74819500D01*
X144092727Y-74819500D01*
X143987273Y-74819500D01*
X143987271Y-74819500D01*
X143885417Y-74846791D01*
X143885408Y-74846795D01*
X143794086Y-74899520D01*
X143720781Y-74972826D01*
X143668455Y-74994500D01*
X141604500Y-74994500D01*
X141552174Y-74972826D01*
X141530500Y-74920500D01*
X141530500Y-74635180D01*
X141521767Y-74591278D01*
X141488504Y-74541496D01*
X141488501Y-74541494D01*
X141466104Y-74526529D01*
X141434638Y-74479437D01*
X141445687Y-74423888D01*
X141466104Y-74403471D01*
X141472393Y-74399269D01*
X141488504Y-74388504D01*
X141521767Y-74338722D01*
X141530500Y-74294820D01*
X141530500Y-74129500D01*
X141552174Y-74077174D01*
X141604500Y-74055500D01*
X144155943Y-74055500D01*
X144208269Y-74077174D01*
G37*
%TD.AperFunction*%
%TD*%
M02*
